<svg width="29" height="34" viewBox="0 0 29 34" fill="none" xmlns="http://www.w3.org/2000/svg">
    <path
        d="M21.0341 7.95783C18.0599 7.95783 16.8029 9.41839 14.7316 9.41839C12.6071 9.41839 10.9872 7.96668 8.41135 7.96668C5.88857 7.96668 3.1976 9.55116 1.4892 12.251C-0.909659 16.0573 -0.502474 23.2273 3.38349 29.3351C4.77324 31.5215 6.63213 33.9734 9.06639 34C9.08409 34 9.09294 34 9.11065 34C11.2262 34 11.8547 32.5749 14.767 32.5572C14.7847 32.5572 14.7935 32.5572 14.8112 32.5572C17.6793 32.5572 18.2546 33.9912 20.3614 33.9912C20.3791 33.9912 20.3879 33.9912 20.4056 33.9912C22.8399 33.9646 24.7961 31.2471 26.1859 29.0695C27.1862 27.5027 27.5579 26.7149 28.328 24.9445C22.7071 22.7493 21.8042 14.5525 27.3632 11.4101C25.6636 9.22364 23.2825 7.95783 21.0341 7.95783Z"
        fill="black" />
    <path
        d="M20.379 0C18.6087 0.123926 16.5462 1.28352 15.3335 2.79719C14.2359 4.16923 13.333 6.20515 13.687 8.17912C13.7313 8.17912 13.7756 8.17912 13.8287 8.17912C15.7141 8.17912 17.6438 7.01067 18.768 5.51471C19.8568 4.08956 20.68 2.07134 20.379 0Z"
        fill="black" />
</svg>