<svg width="34" height="34" viewBox="0 0 34 34" fill="none" xmlns="http://www.w3.org/2000/svg">
    <path
        d="M16.9997 7.08333C19.2901 7.08333 21.3931 7.8675 23.0719 9.17159L28.2246 4.25579C25.2288 1.61493 21.3073 0 16.9997 0C10.4722 0 4.81161 3.68321 1.96289 9.08062L7.6925 13.6039C9.08046 9.80244 12.7178 7.08333 16.9997 7.08333Z"
        fill="#F44336" />
    <path
        d="M33.8527 19.1275C33.9413 18.431 34 17.7205 34 16.9999C34 15.7846 33.8673 14.6013 33.6249 13.4583H17V20.5416H26.1888C25.4454 22.4736 24.1219 24.1084 22.4372 25.2442L28.1881 29.7843C31.2366 27.1085 33.3228 23.3613 33.8527 19.1275Z"
        fill="#2196F3" />
    <path
        d="M7.08333 16.9999C7.08333 15.8051 7.30555 14.6647 7.69284 13.6039L1.96322 9.08057C0.714473 11.4466 0 14.1385 0 16.9999C0 19.8294 0.70133 22.4914 1.92414 24.8383L7.66102 20.3092C7.29362 19.2729 7.08333 18.1622 7.08333 16.9999Z"
        fill="#FFC107" />
    <path
        d="M16.9997 26.9167C12.6852 26.9167 9.02445 24.1564 7.66071 20.3093L1.92383 24.8384C4.75863 30.2792 10.4403 34.0001 16.9997 34.0001C21.289 34.0001 25.2004 32.4066 28.1878 29.7845L22.4369 25.2443C20.8831 26.2919 19.0233 26.9167 16.9997 26.9167Z"
        fill="#00B060" />
    <path opacity="0.1"
        d="M17 33.6459C11.9968 33.6459 7.49805 31.5816 4.31738 28.2927C7.43095 31.7869 11.9517 34 17 34C22.0017 34 26.485 31.8306 29.5915 28.3911C26.4203 31.6266 21.9557 33.6459 17 33.6459Z"
        fill="black" />
    <path opacity="0.1" d="M17 20.1875V20.5417H26.1888L26.3323 20.1875H17Z" fill="black" />
    <path
        d="M33.9923 17.2084C33.9934 17.1386 34.0001 17.0701 34.0001 17.0001C34.0001 16.9803 33.997 16.9612 33.9969 16.9414C33.996 17.0306 33.9915 17.1188 33.9923 17.2084Z"
        fill="#E6E6E6" />
    <path opacity="0.2"
        d="M17 13.4583V13.8124H33.6962C33.6739 13.6955 33.6496 13.5743 33.6249 13.4583H17Z"
        fill="white" />
    <path
        d="M33.6249 13.4583H17V20.5417H26.1888C24.7598 24.2556 21.2177 26.9167 17 26.9167C11.5232 26.9167 7.08333 22.4768 7.08333 17C7.08333 11.5231 11.5232 7.08333 17 7.08333C18.986 7.08333 20.8164 7.69344 22.3671 8.6993C22.6044 8.85356 22.8493 8.99839 23.0723 9.17159L28.2249 4.25579L28.1087 4.16639C25.1273 1.58251 21.255 0 17 0C7.61112 0 0 7.61112 0 17C0 26.3888 7.61112 34 17 34C25.6667 34 32.8036 27.5099 33.8527 19.1276C33.9413 18.4311 34 17.7206 34 17C34 15.7847 33.8673 14.6013 33.6249 13.4583Z"
        fill="url(#paint0_linear_138_230)" />
    <path opacity="0.1"
        d="M22.3667 8.3452C20.816 7.33934 18.9856 6.72923 16.9997 6.72923C11.5229 6.72923 7.08301 11.169 7.08301 16.6459C7.08301 16.7056 7.08381 16.7523 7.08485 16.8119C7.18039 11.4177 11.5826 7.0834 16.9997 7.0834C18.9856 7.0834 20.816 7.69351 22.3667 8.69937C22.6041 8.85363 22.849 8.99846 23.072 9.17165L28.2246 4.25586L23.072 8.81748C22.849 8.64429 22.6041 8.49946 22.3667 8.3452Z"
        fill="black" />
    <path opacity="0.2"
        d="M17 0.354167C21.2146 0.354167 25.0508 1.91022 28.0207 4.4506L28.2249 4.25579L28.069 4.12005C25.0877 1.53618 21.255 0 17 0C7.61112 0 0 7.61112 0 17C0 17.0597 0.00830082 17.1174 0.00890602 17.1771C0.104884 7.87078 7.67087 0.354167 17 0.354167Z"
        fill="white" />
    <defs>
        <linearGradient id="paint0_linear_138_230" x1="0" y1="17" x2="34" y2="17"
            gradientUnits="userSpaceOnUse">
            <stop stop-color="white" stop-opacity="0.2" />
            <stop offset="1" stop-color="white" stop-opacity="0" />
        </linearGradient>
    </defs>
</svg>