<svg width="502" height="598" viewBox="0 0 502 598" fill="none" xmlns="http://www.w3.org/2000/svg">
    <path
        d="M257.366 590.122V467.107C257.368 465.384 258.056 463.731 259.28 462.513C260.503 461.294 262.162 460.609 263.892 460.607H278.712C280.442 460.609 282.101 461.294 283.324 462.513C284.548 463.731 285.236 465.384 285.238 467.107V590.122C285.236 591.845 284.548 593.497 283.324 594.716C282.101 595.934 280.442 596.62 278.712 596.622H263.892C262.162 596.62 260.503 595.934 259.28 594.716C258.056 593.497 257.368 591.845 257.366 590.122Z"
        fill="#2F2E41" />
    <path
        d="M228.056 590.122V467.107C228.058 465.384 228.746 463.731 229.969 462.513C231.193 461.294 232.852 460.609 234.582 460.607H249.401C251.132 460.609 252.79 461.294 254.014 462.513C255.237 463.731 255.926 465.384 255.928 467.107V590.122C255.926 591.845 255.237 593.497 254.014 594.716C252.79 595.934 251.132 596.62 249.401 596.622H234.582C232.852 596.62 231.193 595.934 229.969 594.716C228.746 593.497 228.058 591.845 228.056 590.122Z"
        fill="#2F2E41" />
    <path
        d="M286.647 426.494H226.646C223.319 426.494 220.622 429.181 220.622 432.494V500C220.622 503.314 223.319 506 226.646 506H286.647C289.974 506 292.672 503.314 292.672 500V432.494C292.672 429.181 289.974 426.494 286.647 426.494Z"
        fill="#2F2E41" />
    <path
        d="M155.776 233.225C155.776 233.225 125.496 247.236 99.8714 256.527C83.9703 220.776 61.0623 222.114 61.0623 222.114L47.174 231.639L49.6784 245.924L48.9954 269.281L45.3525 281.526L50.58 282.467L53.533 283L53.9781 282.599C53.2413 285.507 52.9431 288.508 53.0936 291.503L184.464 271.095C184.464 271.095 179.91 250.006 155.776 233.225Z"
        fill="#E6E6E6" />
    <path
        d="M116.984 417.106L125.792 428.976C127.769 431.64 131.541 432.204 134.217 430.235L233.545 357.121C236.221 355.151 236.787 351.394 234.809 348.73L226.001 336.86C224.024 334.195 220.252 333.631 217.576 335.601L118.248 408.714C115.572 410.684 115.006 414.441 116.984 417.106Z"
        fill="#6C63FF" />
    <path
        d="M286.235 332.828L273.145 339.746C270.206 341.3 269.088 344.932 270.647 347.859L328.545 456.52C330.105 459.447 333.751 460.561 336.69 459.008L349.78 452.089C352.719 450.536 353.837 446.903 352.278 443.976L294.38 335.315C292.82 332.388 289.174 331.274 286.235 332.828Z"
        fill="#6C63FF" />
    <path
        d="M322.932 381.053L301.553 395.168C298.286 396.895 294.373 395.922 292.814 392.995L269.204 348.684C267.644 345.757 269.028 341.984 272.295 340.257L286.846 332.566C290.113 330.839 294.026 331.812 295.586 334.74L326.023 372.626C327.583 375.553 326.199 379.326 322.932 381.053Z"
        fill="#CCCCCC" />
    <path
        d="M177.245 368.072L191.141 386.451C192.234 387.612 193.745 388.292 195.342 388.342C196.939 388.392 198.491 387.809 199.656 386.72L236.38 352.389C237.545 351.3 238.228 349.794 238.278 348.204C238.329 346.613 237.743 345.068 236.65 343.908L226.508 333.146C225.414 331.986 223.903 331.306 222.306 331.255C220.709 331.205 219.157 331.788 217.992 332.877L177.515 359.591C176.35 360.68 175.667 362.186 175.616 363.776C175.566 365.367 176.152 366.912 177.245 368.072Z"
        fill="#CCCCCC" />
    <path
        d="M290.314 331.06H222.98C219.653 331.06 216.956 333.746 216.956 337.06V479.535C216.956 482.849 219.653 485.535 222.98 485.535H290.314C293.641 485.535 296.338 482.849 296.338 479.535V337.06C296.338 333.746 293.641 331.06 290.314 331.06Z"
        fill="#CCCCCC" />
    <path
        d="M256.253 321.761C285.93 321.761 309.988 297.8 309.988 268.242C309.988 238.684 285.93 214.723 256.253 214.723C226.576 214.723 202.518 238.684 202.518 268.242C202.518 297.8 226.576 321.761 256.253 321.761Z"
        fill="#6C63FF" />
    <path
        d="M262.517 286.111C259.197 286.019 255.065 285.903 251.885 283.589C250.937 282.871 250.158 281.956 249.603 280.907C249.048 279.857 248.73 278.7 248.672 277.516C248.614 276.674 248.753 275.831 249.077 275.051C249.401 274.272 249.902 273.578 250.54 273.023C252.201 271.625 254.628 271.295 257.244 272.062L254.534 252.336L256.525 252.064L259.709 275.255L258.048 274.496C256.124 273.615 253.479 273.168 251.836 274.551C251.433 274.912 251.118 275.361 250.918 275.863C250.717 276.365 250.635 276.907 250.679 277.445C250.727 278.327 250.966 279.188 251.379 279.969C251.791 280.75 252.368 281.434 253.069 281.974C255.543 283.774 258.838 284.008 262.574 284.111L262.517 286.111Z"
        fill="#2F2E41" />
    <path d="M244.696 254.037H233.881V256.037H244.696V254.037Z" fill="#2F2E41" />
    <path d="M278.833 254.037H268.018V256.037H278.833V254.037Z" fill="#2F2E41" />
    <path
        d="M220.755 226.419C212.046 225.43 205.301 217.119 204.56 208.686C203.678 198.654 209.544 189.126 217.592 183.496C226.008 177.609 236.494 175.151 246.639 174.609C266.43 173.629 285.88 180.014 301.207 192.523C308.809 198.812 315.909 206.822 318.6 216.498C320.936 224.9 319.035 234.42 312.249 240.305C310.571 241.747 308.61 242.827 306.492 243.477C304.373 244.126 302.142 244.332 299.94 244.079C294.675 243.535 289.817 240.778 285.612 237.733C277.432 231.809 270.717 223.557 260.751 220.462C253.444 218.192 243.962 220.19 239.496 226.771C238.483 228.278 237.826 229.994 237.576 231.79C237.484 232.173 237.541 232.577 237.736 232.919C237.932 233.262 238.25 233.518 238.628 233.635C239.013 233.739 239.423 233.686 239.77 233.49C240.117 233.294 240.372 232.97 240.48 232.588C241.653 224.298 251.886 221.205 259.068 223.098C269.538 225.858 276.567 235.164 285.158 241.077C289.675 244.185 294.812 246.671 300.352 247.117C305.127 247.49 309.867 246.04 313.608 243.061C320.947 237.289 323.754 227.361 322.131 218.423C320.252 208.073 313.257 199.202 305.583 192.334C290.024 178.558 269.825 171.126 249.011 171.52C238.395 171.762 227.318 173.945 218.172 179.534C209.3 184.955 202.443 194.024 201.547 204.566C200.758 213.845 205.757 223.55 214.337 227.615C216.36 228.569 218.529 229.179 220.755 229.419C222.678 229.638 222.662 226.636 220.755 226.419Z"
        fill="#2F2E41" />
    <path
        d="M53.4345 281.186L59.8095 279.145C60.4926 277.841 59.2426 278.678 59.8391 277.41C75.9678 243.14 61.0618 222.114 61.0618 222.114L49.5306 230.022C49.5022 229.957 49.4789 229.89 49.4502 229.824C49.4502 229.824 47.4011 225.289 44.2136 228.69C44.2136 228.69 54.2314 252.954 43.0752 283.113L56.0528 289.009L61.0617 283.113L61.1756 282.546L52.2113 281.735L53.4345 281.186Z"
        fill="#CCCCCC" />
    <path
        d="M235.236 408.512C184.008 397.174 136.31 420.644 136.31 420.644L136.18 420.528L117.185 403.637L42.9619 283L61.0623 283.113C111.379 253.181 182.187 257.263 182.187 257.263C212.696 291.73 235.236 408.512 235.236 408.512Z"
        fill="#3F3D56" />
    <path opacity="0.1"
        d="M136.18 420.529L117.185 403.637L42.9619 283L61.0623 283.113C61.0623 283.113 133.204 378.011 136.18 420.529Z"
        fill="black" />
    <path
        d="M144.516 326.401C160.024 321.664 170.144 309.864 167.12 300.046C164.097 290.228 149.074 286.11 133.567 290.847C118.059 295.584 107.938 307.384 110.962 317.202C113.985 327.02 129.008 331.138 144.516 326.401Z"
        fill="#6C63FF" />
    <path
        d="M115.849 119.143C121.045 133.861 114.806 149.451 114.806 149.451C114.806 149.451 100.142 141.181 94.9462 126.464C89.7503 111.746 95.9896 96.1556 95.9896 96.1556C95.9896 96.1556 110.653 104.426 115.849 119.143Z"
        fill="#CCCCCC" />
    <path
        d="M131.489 527.354C122.779 540.304 106.544 544.6 106.544 544.6C106.544 544.6 104.432 527.898 113.143 514.947C121.853 501.996 138.087 497.701 138.087 497.701C138.087 497.701 140.199 514.403 131.489 527.354Z"
        fill="#CCCCCC" />
    <path
        d="M85.1872 140.14C97.1241 150.241 113.974 150.021 113.974 150.021C113.974 150.021 111.471 133.423 99.5338 123.322C87.597 113.221 70.7469 113.441 70.7469 113.441C70.7469 113.441 73.2504 130.039 85.1872 140.14Z"
        fill="#CCCCCC" />
    <path
        d="M96.3445 515.275C95.3606 530.882 105.591 544.272 105.591 544.272C105.591 544.272 117.417 532.36 118.401 516.754C119.385 501.148 109.154 487.757 109.154 487.757C109.154 487.757 97.3284 499.669 96.3445 515.275Z"
        fill="#CCCCCC" />
    <path
        d="M88.2993 134.081C103.738 136.715 114.383 149.726 114.383 149.726C114.383 149.726 99.9976 158.467 84.5587 155.833C69.1199 153.199 58.4746 140.188 58.4746 140.188C58.4746 140.188 72.8606 131.448 88.2993 134.081Z"
        fill="#3F3D56" />
    <path
        d="M103.063 514.158C110.161 528.119 106.072 544.424 106.072 544.424C106.072 544.424 90.474 538.095 83.3759 524.134C76.2777 510.173 80.3672 493.867 80.3672 493.867C80.3672 493.867 95.965 500.197 103.063 514.158Z"
        fill="#3F3D56" />
    <path
        d="M109.056 119.868C105.997 135.168 114.383 149.726 114.383 149.726C114.383 149.726 127.728 139.477 130.787 124.177C133.845 108.877 125.459 94.3188 125.459 94.3188C125.459 94.3188 112.114 104.568 109.056 119.868Z"
        fill="#3F3D56" />
    <path
        d="M126.854 522.334C112.751 529.009 106.072 544.425 106.072 544.425C106.072 544.425 122.259 549.019 136.362 542.344C150.465 535.67 157.145 520.254 157.145 520.254C157.145 520.254 140.958 515.66 126.854 522.334Z"
        fill="#3F3D56" />
    <path
        d="M384.462 81.6171C374.166 93.3741 357.471 95.6522 357.471 95.6522C357.471 95.6522 357.468 78.8685 367.764 67.1115C378.06 55.3545 394.755 53.0764 394.755 53.0764C394.755 53.0764 394.758 69.8601 384.462 81.6171Z"
        fill="#CCCCCC" />
    <path
        d="M351.006 65.3957C348.065 80.7189 356.563 95.2122 356.563 95.2122C356.563 95.2122 369.829 84.8617 372.769 69.5385C375.71 54.2153 367.212 39.7219 367.212 39.7219C367.212 39.7219 353.946 50.0725 351.006 65.3957Z"
        fill="#CCCCCC" />
    <path
        d="M357.832 65.106C363.141 79.783 357.022 95.4212 357.022 95.4212C357.022 95.4212 342.295 87.2632 336.986 72.586C331.677 57.9089 337.796 42.2708 337.796 42.2708C337.796 42.2708 352.523 50.4289 357.832 65.106Z"
        fill="#3F3D56" />
    <path
        d="M380.48 76.087C365.607 80.9782 357.023 95.4211 357.023 95.4211C357.023 95.4211 372.554 101.934 387.427 97.0425C402.301 92.1512 410.885 77.7083 410.885 77.7083C410.885 77.7083 395.354 71.1958 380.48 76.087Z"
        fill="#3F3D56" />
    <path
        d="M430.556 337.051C420.197 348.753 403.489 350.942 403.489 350.942C403.489 350.942 403.577 334.158 413.936 322.457C424.295 310.755 441.002 308.566 441.002 308.566C441.002 308.566 440.915 325.349 430.556 337.051Z"
        fill="#CCCCCC" />
    <path
        d="M397.188 320.651C394.165 335.958 402.585 350.497 402.585 350.497C402.585 350.497 415.906 340.218 418.929 324.91C421.952 309.603 413.532 295.064 413.532 295.064C413.532 295.064 400.211 305.344 397.188 320.651Z"
        fill="#CCCCCC" />
    <path
        d="M404.015 320.398C409.245 335.103 403.042 350.708 403.042 350.708C403.042 350.708 388.359 342.472 383.129 327.766C377.899 313.061 384.103 297.456 384.103 297.456C384.103 297.456 398.785 305.693 404.015 320.398Z"
        fill="#3F3D56" />
    <path
        d="M426.604 331.5C411.704 336.312 403.042 350.708 403.042 350.708C403.042 350.708 418.538 357.304 433.438 352.492C448.338 347.681 456.999 333.284 456.999 333.284C456.999 333.284 441.504 326.688 426.604 331.5Z"
        fill="#3F3D56" />
    <path d="M374.47 596H141.532V598H374.47V596Z" fill="#3F3D56" />
</svg>