<svg width="350" height="319" viewBox="0 0 350 319" fill="none" xmlns="http://www.w3.org/2000/svg">
<path d="M332.988 206.68L55.965 205.284C50.0405 205.254 45.2456 200.587 45.2766 194.881L45.451 162.768L343.963 164.273L343.788 196.385C343.757 202.092 338.912 206.709 332.988 206.68Z" fill="#E6E6E6"/>
<path d="M230.359 200.791L159.714 200.435L159.45 249.035L230.095 249.391L230.359 200.791Z" fill="#E6E6E6"/>
<path d="M234.377 243.273L155.235 242.875L155.201 249.013L234.344 249.412L234.377 243.273Z" fill="#E6E6E6"/>
<path d="M343.624 177.828L45.3774 176.325L46.2642 13.0705C46.2855 9.1547 49.6106 5.98548 53.6763 6.00597L337.175 7.43456C341.241 7.45505 344.532 10.6576 344.51 14.5734L343.624 177.828Z" fill="#3F3D56"/>
<path d="M337.333 15.8084L53.1624 14.3765L52.326 168.362L336.496 169.794L337.333 15.8084Z" fill="white"/>
<path d="M203.763 119.484L197.238 116.466C199.901 120.087 202.181 125.733 203.393 130.223C205.512 126.057 208.92 120.963 212.281 117.926L205.357 119.606C209.731 99.5091 225.837 85.1443 244.186 85.2334L244.45 84.508C225.283 84.4149 208.231 98.5749 203.763 119.484Z" fill="#3F3D56"/>
<path d="M233.62 144.05L192.279 143.85C190.526 143.841 189.107 142.458 189.117 140.767C189.126 139.076 190.561 137.707 192.314 137.715L233.655 137.916C235.408 137.925 236.827 139.308 236.817 140.999C236.808 142.69 235.373 144.059 233.62 144.05Z" fill="#6C63FF"/>
<path d="M288.63 144.328L247.29 144.127C245.536 144.118 244.117 142.735 244.127 141.044C244.136 139.353 245.571 137.984 247.324 137.992L288.665 138.193C290.418 138.202 291.837 139.585 291.828 141.276C291.818 142.967 290.384 144.336 288.63 144.328Z" fill="#E6E6E6"/>
<path d="M264.58 69.3724L224.395 69.1769C223.382 69.172 222.562 68.3723 222.568 67.3944C222.573 66.4165 223.402 65.6252 224.415 65.6301L264.6 65.8256C265.614 65.8305 266.433 66.6298 266.427 67.6077C266.422 68.5856 265.594 69.3773 264.58 69.3724Z" fill="#3F3D56"/>
<path d="M286.042 88.3612L202.728 87.9552C201.715 87.9502 200.895 87.149 200.901 86.1692C200.906 85.1895 201.735 84.3967 202.748 84.4016L286.062 84.8076C287.075 84.8125 287.895 85.6134 287.889 86.5932C287.884 87.5729 287.055 88.3661 286.042 88.3612Z" fill="#3F3D56"/>
<path d="M0 317.487C0 317.888 0.348089 318.21 0.781553 318.21H343.787C344.221 318.21 344.569 317.888 344.569 317.487C344.569 317.087 344.221 316.765 343.787 316.765H0.781553C0.348089 316.765 0 317.087 0 317.487Z" fill="#3F3D56"/>
<path d="M123.28 111.711C123.211 111.698 123.142 111.682 123.073 111.664C119.023 110.615 105.383 105.981 99.9176 90.3992C99.467 89.1162 99.9083 87.6815 101.015 86.8296L120.259 72.0252C121.045 71.4198 122.114 71.1901 123.104 71.3941C123.787 71.5428 125.378 72.0247 125.441 73.2925C125.817 80.7825 131.94 90.6901 141.177 93.6361C142.113 93.9345 142.711 94.9085 142.777 96.2415C142.829 97.2793 142.377 98.2514 141.539 98.9084L126.066 111.042C125.28 111.658 124.265 111.902 123.28 111.711ZM122.895 72.0991C122.137 71.9521 121.33 72.1364 120.733 72.5964L101.49 87.4008C100.631 88.0615 100.288 89.1723 100.637 90.1649C105.982 105.403 119.312 109.932 123.271 110.958C124.078 111.169 124.935 110.986 125.587 110.475L141.06 98.3413C141.709 97.8323 142.059 97.0798 142.019 96.2763C141.98 95.4897 141.676 94.5654 140.938 94.3299C131.395 91.2868 125.071 81.0589 124.683 73.3276C124.651 72.7016 123.761 72.287 122.939 72.108C122.925 72.1048 122.91 72.1019 122.895 72.0991Z" fill="#3F3D56"/>
<path d="M109.202 92.8082L122.688 83.9871C123.61 83.3841 122.653 81.9957 121.73 82.5995L108.243 91.4206C107.322 92.0236 108.279 93.412 109.202 92.8082Z" fill="#E6E6E6"/>
<path d="M115.309 97.2133C118.955 95.1456 122.283 92.5786 125.189 89.617C125.956 88.8352 124.66 87.73 123.896 88.5086C121.088 91.3718 117.875 93.8269 114.351 95.8257C113.39 96.371 114.352 97.7563 115.309 97.2133Z" fill="#E6E6E6"/>
<path d="M120.622 102.1C124.061 99.6451 127.154 96.7606 129.793 93.514C130.478 92.6718 129.188 91.5601 128.501 92.4056C125.951 95.5424 122.987 98.34 119.664 100.713C118.772 101.35 119.725 102.741 120.622 102.1Z" fill="#E6E6E6"/>
<path d="M119.896 81.4484C126.091 82.6216 132.137 78.7822 133.4 72.8728C134.664 66.9635 130.665 61.222 124.47 60.0488C118.275 58.8756 112.229 62.715 110.965 68.6243C109.702 74.5336 113.7 80.2752 119.896 81.4484Z" fill="#6C63FF"/>
<path d="M126.928 76.926C126.089 72.4745 125.249 68.0229 124.409 63.5714C124.293 62.9566 123.553 62.7953 123.195 63.3413C120.571 67.3443 118.495 71.6469 116.978 76.1472C116.719 76.9138 117.981 77.1462 118.237 76.3858C118.831 74.6247 119.523 72.8963 120.299 71.2036C121.702 71.5449 123.165 71.6607 124.612 71.5507C124.956 73.3745 125.3 75.1984 125.644 77.0223C125.791 77.8016 127.078 77.7167 126.928 76.926ZM120.844 70.044C121.63 68.4317 122.496 66.8555 123.437 65.3215L124.379 70.3135C123.187 70.3886 122.003 70.2982 120.844 70.044Z" fill="white"/>
<path d="M246.183 33.9497L143.664 33.4331C141.608 33.4227 139.641 32.6262 138.195 31.2188C136.749 29.8114 135.942 27.9083 135.953 25.9283C135.964 23.9483 136.791 22.0535 138.252 20.6607C139.713 19.2679 141.689 18.4913 143.745 18.5016L246.264 19.0183C248.32 19.0286 250.287 19.8251 251.733 21.2325C253.179 22.64 253.986 24.543 253.975 26.523C253.964 28.5031 253.137 30.3979 251.676 31.7907C250.215 33.1834 248.239 33.9601 246.183 33.9497Z" fill="#6C63FF"/>
<path d="M335.92 46.3405L53.7969 44.9188C53.4751 44.9103 53.1695 44.7808 52.9456 44.558C52.7217 44.3353 52.5973 44.0369 52.599 43.7268C52.6006 43.4167 52.7283 43.1196 52.9546 42.8991C53.181 42.6786 53.4879 42.5522 53.8098 42.547L335.932 43.9686C336.254 43.9771 336.56 44.1066 336.784 44.3294C337.008 44.5522 337.132 44.8505 337.13 45.1606C337.129 45.4707 337.001 45.7678 336.775 45.9883C336.548 46.2088 336.241 46.3352 335.92 46.3405Z" fill="#E6E6E6"/>
<path d="M67.9687 29.8197C70.3043 29.8315 72.2079 27.9768 72.2204 25.6771C72.2329 23.3774 70.3496 21.5035 68.0139 21.4918C65.6782 21.48 63.7747 23.3347 63.7622 25.6344C63.7497 27.9341 65.633 29.808 67.9687 29.8197Z" fill="#3F3D56"/>
<path d="M82.5782 29.8933C84.9139 29.9051 86.8175 28.0504 86.83 25.7507C86.8424 23.451 84.9591 21.5771 82.6235 21.5654C80.2878 21.5536 78.3843 23.4083 78.3718 25.7081C78.3593 28.0078 80.2426 29.8816 82.5782 29.8933Z" fill="#3F3D56"/>
<path d="M97.1878 29.967C99.5234 29.9787 101.427 28.124 101.439 25.8243C101.452 23.5246 99.5687 21.6508 97.233 21.639C94.8973 21.6272 92.9938 23.482 92.9813 25.7817C92.9688 28.0814 94.8521 29.9552 97.1878 29.967Z" fill="#3F3D56"/>
<path d="M113.852 29.178C113.785 29.1778 113.719 29.1647 113.658 29.1395C113.597 29.1143 113.541 29.0775 113.495 29.0313L110.657 26.2074C110.566 26.117 110.515 25.9958 110.516 25.8699C110.516 25.744 110.568 25.6234 110.66 25.5339L113.529 22.739C113.623 22.6495 113.749 22.5992 113.881 22.5991C114.013 22.5989 114.139 22.6489 114.233 22.7382C114.327 22.8274 114.38 22.9487 114.381 23.0757C114.383 23.2027 114.332 23.325 114.24 23.4161L111.715 25.876L114.213 28.3614C114.282 28.4295 114.328 28.5156 114.346 28.6088C114.364 28.702 114.353 28.7983 114.314 28.8855C114.275 28.9726 114.211 29.0469 114.129 29.099C114.046 29.151 113.95 29.1785 113.852 29.178Z" fill="#3F3D56"/>
<path d="M118.647 29.2022C118.548 29.2017 118.452 29.1732 118.37 29.1203C118.289 29.0674 118.225 28.9925 118.187 28.9049C118.15 28.8174 118.139 28.721 118.158 28.628C118.177 28.5349 118.224 28.4493 118.293 28.3819L120.818 25.9218L118.32 23.4367C118.23 23.3446 118.18 23.2218 118.183 23.0948C118.186 22.9679 118.24 22.8471 118.335 22.7588C118.43 22.6705 118.557 22.6218 118.689 22.6233C118.821 22.6248 118.946 22.6763 119.039 22.7667L121.877 25.5904C121.968 25.6808 122.019 25.802 122.018 25.9279C122.017 26.0538 121.965 26.1744 121.873 26.2639L119.005 29.0591C118.958 29.1048 118.902 29.141 118.841 29.1656C118.779 29.1901 118.713 29.2026 118.647 29.2022Z" fill="#E6E6E6"/>
<path d="M306.669 23.176C306.378 23.1749 306.098 23.2849 305.892 23.4818C305.685 23.6788 305.568 23.9467 305.566 24.2267L305.538 29.3392C305.537 29.6192 305.651 29.8882 305.856 30.0873C306.06 30.2863 306.339 30.3991 306.629 30.4009L311.937 30.4276C312.228 30.4288 312.507 30.3188 312.714 30.1218C312.921 29.9248 313.038 29.657 313.04 29.377L313.068 24.2645C313.069 23.9845 312.955 23.7154 312.75 23.5164C312.546 23.3174 312.267 23.2046 311.977 23.2027L306.669 23.176Z" fill="#E6E6E6"/>
<path d="M293.666 23.1105C293.375 23.1094 293.096 23.2194 292.889 23.4163C292.683 23.6133 292.565 23.8812 292.564 24.1612L292.536 29.2737C292.535 29.5537 292.649 29.8227 292.853 30.0218C293.058 30.2208 293.336 30.3336 293.627 30.3354L298.935 30.3622C299.226 30.3633 299.505 30.2533 299.712 30.0563C299.918 29.8594 300.035 29.5915 300.037 29.3115L300.065 24.199C300.066 23.919 299.952 23.6499 299.747 23.4509C299.543 23.2519 299.265 23.1391 298.974 23.1373L293.666 23.1105Z" fill="#E6E6E6"/>
<path d="M318.92 23.4786C318.629 23.4775 318.349 23.5875 318.143 23.7844C317.936 23.9814 317.819 24.2493 317.817 24.5293L317.789 29.6418C317.788 29.9218 317.902 30.1908 318.107 30.3899C318.311 30.5889 318.59 30.7017 318.88 30.7035L324.188 30.7303C324.479 30.7314 324.758 30.6214 324.965 30.4244C325.172 30.2275 325.289 29.9596 325.291 29.6796L325.319 24.5671C325.32 24.2871 325.206 24.018 325.001 23.819C324.796 23.62 324.518 23.5072 324.228 23.5054L318.92 23.4786Z" fill="#E6E6E6"/>
<path d="M189.179 27.3448L146.767 27.1311C146.412 27.1293 146.073 26.992 145.824 26.7495C145.575 26.5069 145.436 26.179 145.438 25.8377C145.44 25.4965 145.582 25.17 145.834 24.93C146.086 24.6899 146.426 24.5561 146.781 24.5579L189.193 24.7716C189.548 24.7734 189.887 24.9107 190.136 25.1532C190.385 25.3957 190.524 25.7237 190.522 26.0649C190.52 26.4061 190.378 26.7327 190.126 26.9727C189.874 27.2127 189.534 27.3466 189.179 27.3448Z" fill="white"/>
<path d="M22.3211 260.057H50.3316C50.3317 260.377 50.4635 260.683 50.6979 260.909C50.9323 261.134 51.2503 261.261 51.5818 261.261H79.0773C79.4657 261.543 79.8197 261.866 80.1325 262.225C81.0724 263.304 81.5861 264.669 81.583 266.078V267.041C81.5824 268.638 80.9235 270.169 79.7513 271.298C78.5791 272.427 76.9895 273.062 75.3317 273.062H22.3211C20.6636 273.061 19.0744 272.426 17.9024 271.297C16.7304 270.168 16.0713 268.638 16.0698 267.041V266.078C16.0721 264.482 16.7315 262.952 17.9033 261.823C19.0751 260.694 20.6638 260.059 22.3211 260.057Z" fill="#3F3D56"/>
<path d="M45.3282 272.823H51.8295V317.136H45.3282V272.823Z" fill="#3F3D56"/>
<path d="M26.8245 316.916C26.8245 317.593 36.6762 317.178 48.8289 317.178C60.9816 317.178 70.8333 317.593 70.8333 316.916C70.8333 316.24 60.9816 310.875 48.8289 310.875C36.6762 310.875 26.8245 316.24 26.8245 316.916Z" fill="#3F3D56"/>
<path d="M23.5462 261.444L24.6366 254.874C24.7747 254.046 25.2483 253.305 25.9533 252.813C26.6584 252.321 27.5373 252.118 28.3973 252.249L39.6444 253.979L58.9083 256.941L65.1747 257.904H51.5819C51.2504 257.904 50.9324 258.031 50.698 258.257C50.4635 258.483 50.3318 258.789 50.3317 259.108V260.057C50.3318 260.376 50.4635 260.683 50.698 260.909C50.9324 261.134 51.2504 261.261 51.5819 261.261H86.1738C86.6566 261.479 87.0746 261.81 87.3891 262.225C87.6551 262.562 87.8472 262.947 87.9538 263.358C88.0604 263.769 88.0792 264.196 88.0091 264.614L87.6992 266.483L87.3241 268.751L86.919 271.188C86.7812 272.014 86.3091 272.754 85.606 273.245C84.9029 273.736 84.0262 273.939 83.1683 273.809L74.2314 272.436L48.4563 268.472L26.2719 265.062C25.414 264.927 24.6461 264.471 24.1355 263.794C23.625 263.116 23.4131 262.272 23.5462 261.444Z" fill="#6C63FF"/>
<path d="M74.9169 262.225C75.2456 261.804 75.6814 261.472 76.182 261.261H85.744C86.247 261.471 86.6847 261.803 87.0143 262.225C87.4593 262.773 87.7006 263.45 87.6995 264.147V300.854C87.6982 301.691 87.3526 302.492 86.7386 303.084C86.1245 303.675 85.2921 304.008 84.4237 304.009H77.5073C76.6389 304.008 75.8065 303.675 75.1925 303.084C74.5785 302.492 74.233 301.691 74.2317 300.854V264.147C74.2313 263.45 74.4724 262.774 74.9169 262.225Z" fill="#6C63FF"/>
<path d="M54.1026 199.704L54.1675 199.622L58.4584 194.531C58.6869 194.258 58.9626 194.025 59.2735 193.842C59.4384 193.735 59.6165 193.648 59.8037 193.582C60.0775 193.477 60.3654 193.409 60.6589 193.38C60.8549 193.36 61.0524 193.357 61.2491 193.37C61.2529 193.371 61.2564 193.373 61.259 193.375C61.9221 193.422 62.5541 193.664 63.0695 194.069L71.8762 200.947L83.1934 209.79L100.082 222.988L101.312 223.951H79.9427L78.7076 222.988L74.6216 219.795L74.3317 219.573L54.5978 204.155L54.5827 204.145C54.1766 203.83 53.8557 203.426 53.6474 202.965C53.5103 202.664 53.4225 202.344 53.3874 202.016C53.3419 201.605 53.3818 201.188 53.5045 200.791C53.6273 200.395 53.8306 200.025 54.1026 199.704Z" fill="#6C63FF"/>
<path d="M54.1676 199.623C54.4436 198.325 55.0561 197.115 55.948 196.106C56.8371 195.09 57.9822 194.311 59.2736 193.843C59.4739 193.77 59.6687 193.703 59.8687 193.65C60.3201 193.52 60.7818 193.427 61.2491 193.371C61.253 193.371 61.2565 193.373 61.2592 193.375C63.3632 193.141 65.4794 193.704 67.1602 194.946L82.3933 206.159C82.7168 206.437 82.9787 206.776 83.1634 207.154C83.3481 207.532 83.4519 207.942 83.4684 208.36C83.4922 208.851 83.3981 209.34 83.1935 209.791C83.1434 209.892 83.0885 209.993 83.0284 210.089C82.9117 210.285 82.7707 210.466 82.6084 210.629L80.168 213.268L74.4918 219.4L74.3318 219.573L73.9665 219.973C73.676 220.28 73.3255 220.528 72.9351 220.704C72.5446 220.88 72.1219 220.98 71.6913 220.999C71.2606 221.017 70.8304 220.953 70.4253 220.811C70.0203 220.669 69.6483 220.451 69.3308 220.17L56.1932 206.578C55.5107 205.872 54.9698 205.051 54.5979 204.155C53.9978 202.717 53.8482 201.141 54.1676 199.623Z" fill="#2F2E41"/>
<path d="M48.3595 182.181C34.516 182.181 23.2935 171.372 23.2935 158.039C23.2935 144.706 34.516 133.897 48.3595 133.897C62.2031 133.897 73.4256 144.706 73.4256 158.039C73.4256 171.372 62.2031 182.181 48.3595 182.181Z" fill="#6C63FF"/>
<path d="M38.9592 258.121L39.6444 253.979L40.0495 251.546C40.1875 250.719 40.6605 249.979 41.3647 249.488C42.0689 248.997 42.9467 248.794 43.8054 248.926L62.0239 251.724L66.9648 252.485L67.965 252.64V257.904H51.5819C51.2503 257.904 50.9324 258.031 50.6979 258.257C50.4635 258.483 50.3318 258.789 50.3316 259.108V260.057C50.3318 260.377 50.4635 260.683 50.6979 260.909C50.9324 261.134 51.2503 261.261 51.5819 261.261H103.427C103.427 261.271 103.422 261.281 103.422 261.29L103.112 263.159L102.332 267.86C102.194 268.686 101.722 269.426 101.019 269.917C100.316 270.408 99.4392 270.611 98.5812 270.481L89.6444 269.108L87.6992 268.809L87.3241 268.751L74.2314 266.738L65.3246 265.365L51.1919 263.193L50.9816 263.159L41.6848 261.733C40.8268 261.601 40.0582 261.147 39.5473 260.469C39.0364 259.792 38.825 258.948 38.9592 258.121Z" fill="#6C63FF"/>
<path d="M14.2443 240.405C14.2443 260.086 16.32 271.858 48.3264 268.486C48.3713 268.482 48.4113 268.477 48.4563 268.472C54.1649 267.929 59.8107 266.889 65.3246 265.365C68.1901 264.559 70.9751 263.508 73.6464 262.225C74.2764 261.916 74.8815 261.594 75.4768 261.261H51.5819C51.2504 261.261 50.9324 261.134 50.698 260.909C50.4635 260.683 50.3318 260.377 50.3317 260.057V259.108C50.3318 258.789 50.4635 258.483 50.698 258.257C50.9324 258.031 51.2504 257.904 51.5819 257.904H67.965V227.482C67.9665 226.546 68.3531 225.649 69.0403 224.987C69.7274 224.325 70.659 223.953 71.6308 223.952H84.9587C84.8434 223.634 84.7286 223.311 84.6036 222.988C83.3532 219.656 81.8712 216.409 80.1677 213.268C77.8338 208.907 75.0563 204.78 71.876 200.947C69.6614 198.276 67.1752 195.825 64.4546 193.631C59.4384 189.642 53.9774 187.176 48.4362 187.176C28.0022 187.176 14.2443 220.724 14.2443 240.405Z" fill="#2F2E41"/>
<path d="M47.8329 166.987L47.8069 166.085C49.5495 166.038 51.0858 165.933 52.2402 165.12C52.5675 164.877 52.8366 164.568 53.029 164.216C53.2215 163.863 53.3328 163.475 53.3556 163.078C53.3758 162.835 53.3377 162.59 53.2441 162.364C53.1504 162.137 53.0038 161.935 52.8156 161.772C52.0493 161.149 50.8162 161.35 49.9174 161.747L49.1424 162.089L50.6287 151.628L51.5567 151.751L50.2925 160.649C50.81 160.464 51.3673 160.407 51.9136 160.483C52.4599 160.559 52.9779 160.765 53.4203 161.083C53.7179 161.333 53.9514 161.646 54.1025 161.998C54.2536 162.349 54.3184 162.73 54.2916 163.109C54.2642 163.644 54.1159 164.166 53.857 164.639C53.5981 165.112 53.2349 165.525 52.7928 165.849C51.3094 166.893 49.3818 166.945 47.8329 166.987Z" fill="#2F2E41"/>
<path d="M56.1463 152.518H61.1912V153.42H56.1463V152.518Z" fill="#2F2E41"/>
<path d="M40.2222 152.518H45.2671V153.42H40.2222V152.518Z" fill="#2F2E41"/>
<path d="M28.3548 151.406C30.3043 148.579 33.7345 147.381 37.1171 147.09C40.9244 146.762 44.6033 147.469 48.3205 148.156C52.4116 148.912 56.7413 149.619 60.8635 148.663C62.6871 148.257 64.3911 147.457 65.8471 146.325C67.3031 145.192 68.473 143.755 69.2688 142.124C70.7781 138.94 71.1032 135.353 70.1897 131.966C69.2237 128.363 66.826 125.193 63.9193 122.799C57.9868 117.912 49.9585 115.716 42.2367 115.923C34.5442 116.114 27.1092 118.632 20.9853 123.12C14.8511 127.77 10.5345 134.285 8.74014 141.602C6.86378 148.859 7.47504 156.506 10.4826 163.401C12.1724 167.176 14.6161 170.58 16.5019 174.26C18.2576 177.687 19.6098 181.671 18.5174 185.493C17.5588 188.846 14.7444 191.826 11.2112 192.736C9.60372 193.143 7.90275 193.035 6.36412 192.43C4.82549 191.825 3.53239 190.755 2.67936 189.382C0.913139 186.699 0.870903 183.186 3.52279 181.02C4.19141 180.465 4.97027 180.047 5.812 179.791C6.65375 179.534 7.54078 179.446 8.41916 179.53C9.29753 179.615 10.1489 179.87 10.9215 180.282C11.6941 180.693 12.3718 181.251 12.9133 181.923C13.9892 183.268 14.4707 184.969 14.2536 186.654C14.1229 187.506 15.4766 187.874 15.6085 187.014C15.9249 185.231 15.574 183.398 14.6182 181.842C13.6624 180.285 12.1638 179.106 10.3895 178.514C8.6152 177.922 6.6804 177.956 4.92975 178.61C3.1791 179.264 1.72636 180.495 0.830353 182.085C-0.768867 184.981 0.0940018 188.474 2.12407 190.949C3.17148 192.268 4.59116 193.268 6.21321 193.829C7.83526 194.391 9.59104 194.491 11.2704 194.117C14.9657 193.295 17.9886 190.466 19.4102 187.142C20.9929 183.441 20.2678 179.312 18.7249 175.721C17.0572 171.839 14.5805 168.358 12.622 164.617C10.8486 161.236 9.72007 157.577 9.29024 153.812C8.42998 146.252 10.2115 138.631 14.3529 132.156C18.5741 125.781 25.017 121.065 32.5244 118.855C39.9773 116.548 48.0233 116.753 55.3393 119.436C62.4788 122.145 69.3728 128.05 69.29 135.98C69.2546 139.367 67.949 142.822 65.255 145.081C62.0355 147.781 57.5526 148.012 53.5054 147.591C49.4325 147.167 45.4774 146.021 41.3869 145.729C37.8291 145.475 33.9907 145.739 30.814 147.441C29.3346 148.236 28.0751 149.361 27.1416 150.723C26.6398 151.45 27.8562 152.129 28.3548 151.406Z" fill="#2F2E41"/>
<path d="M33.4581 206.607L35.4436 205.277L39.1394 202.806C39.8541 202.33 40.7355 202.147 41.5905 202.296C42.4454 202.445 43.2042 202.914 43.7004 203.601L55.7477 220.3L66.9648 235.849L67.965 237.236V257.904H67.8751C67.0955 257.83 66.3695 257.488 65.8298 256.941C65.7139 256.826 65.6085 256.702 65.5146 256.57L62.0239 251.724L53.3971 239.765L44.4554 227.376L43.6051 226.196L32.643 211C32.5833 210.919 32.5282 210.835 32.4779 210.749C32.428 210.666 32.383 210.581 32.3431 210.494C32.0287 209.822 31.968 209.066 32.1716 208.356C32.3753 207.646 32.8304 207.027 33.4581 206.607Z" fill="#6C63FF"/>
<path d="M33.4232 199.998C33.7767 199.774 34.148 199.578 34.5336 199.411C36.2421 198.656 38.1681 198.492 39.9878 198.944C41.8075 199.397 43.4098 200.439 44.5255 201.896L55.9077 216.76C56.1363 217.114 56.2896 217.508 56.3585 217.92C56.4275 218.331 56.4107 218.752 56.3093 219.157C56.2079 219.562 56.0237 219.944 55.7677 220.28C55.5116 220.616 55.1886 220.9 54.8176 221.114L44.4555 227.376L44.3255 227.453L43.8055 227.766C43.0615 228.199 42.1698 228.331 41.3253 228.132C40.4808 227.934 39.7524 227.421 39.2994 226.707L31.2629 211.341L31.1279 211.086L31.1227 211.081L30.6278 210.123C29.7249 208.398 29.5108 206.415 30.0261 204.548C30.5414 202.682 31.7503 201.063 33.4232 199.998Z" fill="#2F2E41"/>
<path d="M103.112 261.261V297.526C103.111 298.362 102.765 299.164 102.151 299.756C101.537 300.347 100.705 300.68 99.8366 300.681H92.9202C92.0518 300.68 91.2193 300.347 90.6053 299.756C89.9912 299.164 89.6457 298.362 89.6444 297.526V261.261H103.112Z" fill="#6C63FF"/>
<path d="M51.5819 256.941H66.9648V227.482C66.9662 226.291 67.4582 225.148 68.3329 224.306C69.2077 223.463 70.3937 222.989 71.6308 222.988H128.677C129.915 222.988 131.102 223.462 131.978 224.304C132.854 225.147 133.347 226.29 133.348 227.482V257.731C133.347 258.923 132.854 260.066 131.978 260.908C131.102 261.751 129.915 262.224 128.677 262.225H51.5819C51.5018 262.225 51.4268 262.22 51.3518 262.215C51.2817 262.21 51.2117 262.196 51.1418 262.186C50.6315 262.087 50.1726 261.82 49.8426 261.432C49.5127 261.045 49.3321 260.559 49.3314 260.057V259.108C49.3314 258.534 49.5686 257.982 49.9906 257.576C50.4126 257.169 50.985 256.941 51.5819 256.941ZM51.5819 261.261H128.677C129.65 261.261 130.583 260.889 131.271 260.227C131.959 259.565 132.346 258.667 132.348 257.731V227.482C132.346 226.545 131.959 225.648 131.271 224.986C130.583 224.324 129.65 223.952 128.677 223.951H71.6308C70.659 223.953 69.7274 224.325 69.0402 224.987C68.3531 225.649 67.9664 226.546 67.965 227.482V257.904H51.5819C51.2503 257.904 50.9324 258.031 50.6979 258.257C50.4635 258.483 50.3318 258.789 50.3316 259.108V260.057C50.3318 260.377 50.4635 260.683 50.698 260.909C50.9324 261.134 51.2503 261.261 51.5819 261.261Z" fill="#3F3D56"/>
<path d="M100.156 246.311C98.0322 246.311 96.3103 244.653 96.3103 242.607C96.3103 240.561 98.0322 238.903 100.156 238.903C102.28 238.903 104.002 240.561 104.002 242.607C104.002 244.653 102.28 246.311 100.156 246.311Z" fill="#6C63FF"/>
<path d="M66.98 257.451H67.9802V261.786H66.98V257.451Z" fill="#3F3D56"/>
</svg>
