<svg width="352" height="318" viewBox="0 0 352 318" fill="none" xmlns="http://www.w3.org/2000/svg">
<rect x="121.681" y="1.07306" width="78.45" height="97.15" rx="5" transform="rotate(12.4619 121.681 1.07306)" fill="white"/>
<rect x="6" y="106.352" width="78.45" height="97.15" rx="5" transform="rotate(-29.2667 6 106.352)" fill="white"/>
<path d="M217.522 130.989C213.979 128.057 212.311 122.494 212.308 116.993C212.306 114.06 212.772 111.163 213.674 108.502C214.576 105.841 215.891 103.48 217.529 101.584C221.178 97.2742 226.036 95.1649 230.783 94.629C236.526 93.9806 242.232 95.6856 247.717 97.8619C253.59 100.192 259.344 103.124 265.356 104.755C271.19 106.339 277.039 106.495 282.782 104.205C288.083 102.092 293.464 98.3588 299.126 99.0058C304.017 99.5647 307.731 104.01 310.229 109.502C315.189 120.405 315.581 135.04 322.714 144.12C325.798 148.045 329.816 149.824 333.832 151.153C337.682 152.428 341.79 153.244 345.323 155.824C349.112 158.59 351.406 163.789 350.813 169.746C350.14 176.511 346.615 182.335 342.735 186.309C338.649 190.44 333.941 193.275 328.952 194.607C323.963 195.939 318.82 195.734 313.896 194.007C303.6 190.277 295.233 179.377 284.263 178.694C278.144 178.313 272.118 180.59 266 180.213C261.759 179.951 257.195 177.81 254.241 173.502C252.823 171.487 251.938 168.883 251.724 166.103C251.657 165.134 250.538 165.124 250.606 166.103C251.025 172.189 254.305 176.684 258.218 179.155C260.278 180.446 262.478 181.273 264.731 181.604C267.726 182.056 270.779 181.629 273.759 181.182C276.91 180.71 280.065 180.129 283.241 180.181C286.141 180.244 289.014 180.942 291.751 182.248C297.007 184.711 301.742 188.796 306.763 191.978C311.622 195.057 316.711 196.966 322.094 197.014C327.282 197.049 332.414 195.546 337.136 192.608C341.785 189.714 346.154 185.396 349.049 179.574C351.763 174.116 353.188 166.956 350.745 160.846C348.831 156.056 345.18 153.633 341.499 152.141C337.418 150.487 333.152 149.731 329.158 147.672C327.07 146.647 325.149 145.073 323.505 143.04C321.74 140.701 320.286 137.961 319.208 134.942C316.921 128.849 315.752 122.156 313.826 115.862C312.042 110.031 309.601 104.155 305.669 100.561C303.555 98.6519 301.099 97.5691 298.568 97.4306C295.766 97.2575 292.983 98.1359 290.32 99.2427C287.503 100.414 284.754 101.877 281.915 102.955C278.925 104.092 275.825 104.598 272.723 104.454C266.343 104.17 260.18 101.582 254.141 98.9719C243.56 94.3997 231.793 89.5051 221.155 96.5528C217.01 99.2989 213.499 103.906 212.019 109.956C210.71 115.309 210.89 121.554 212.91 126.541C213.867 128.913 215.262 130.901 216.957 132.307C217.574 132.818 218.137 131.498 217.522 130.989Z" fill="#2F2E41"/>
<path d="M185.082 252.853C185.841 252.368 186.404 251.631 186.672 250.771C186.94 249.912 186.895 248.986 186.545 248.156L182.807 239.229L183.586 238.45L204.082 218.066L217.777 204.447L219.443 202.789C220.066 202.168 220.91 201.821 221.789 201.823C222.669 201.824 223.511 202.175 224.132 202.797L229.445 208.135C229.753 208.442 229.997 208.808 230.164 209.21C230.33 209.613 230.415 210.044 230.414 210.479C230.414 210.914 230.327 211.345 230.159 211.747C229.991 212.148 229.746 212.513 229.437 212.82L215.483 226.699L213.896 228.273L184.952 257.058C184.417 257.592 183.715 257.927 182.963 258.008C182.211 258.088 181.453 257.909 180.817 257.5C180.642 257.387 180.479 257.256 180.33 257.109C180.307 257.091 180.284 257.07 180.263 257.049L179.591 256.373L185.082 252.853Z" fill="#6C63FF"/>
<path d="M204.498 233.233L198.65 225.309C198.168 224.656 197.965 223.839 198.086 223.037C198.208 222.235 198.643 221.513 199.296 221.032L221.674 201.44C222.328 200.958 223.146 200.756 223.949 200.877C224.751 200.998 225.473 201.433 225.955 202.086L236.651 214.853C237.133 215.506 237.335 216.324 237.214 217.126C237.093 217.928 236.657 218.649 236.004 219.131L208.779 233.88C208.126 234.361 207.308 234.564 206.505 234.442C205.702 234.321 204.98 233.886 204.498 233.233Z" fill="#2F2E41"/>
<path d="M240.456 317.968H232.926C232.046 317.967 231.204 317.618 230.582 316.997C229.96 316.375 229.61 315.533 229.609 314.655V251.94C229.61 251.061 229.96 250.219 230.582 249.598C231.204 248.977 232.046 248.627 232.926 248.626H240.456C241.335 248.627 242.178 248.977 242.8 249.598C243.421 250.219 243.771 251.061 243.772 251.94V314.655C243.771 315.533 243.421 316.375 242.8 316.997C242.178 317.618 241.335 317.967 240.456 317.968Z" fill="#6C63FF"/>
<path d="M255.35 317.968H247.819C246.94 317.967 246.097 317.618 245.475 316.997C244.854 316.375 244.504 315.533 244.503 314.655V251.94C244.504 251.061 244.854 250.219 245.475 249.598C246.097 248.977 246.94 248.627 247.819 248.626H255.35C256.229 248.627 257.072 248.977 257.694 249.598C258.315 250.219 258.665 251.061 258.666 251.94V314.655C258.665 315.533 258.315 316.375 257.694 316.997C257.072 317.618 256.229 317.967 255.35 317.968Z" fill="#6C63FF"/>
<path d="M347 317H0V318H347V317Z" fill="#3F3D56"/>
<path d="M240.886 174.716C255.967 174.716 268.192 162.5 268.192 147.431C268.192 132.362 255.967 120.146 240.886 120.146C225.806 120.146 213.58 132.362 213.58 147.431C213.58 162.5 225.806 174.716 240.886 174.716Z" fill="#6C63FF"/>
<path d="M283.159 285.811L267.346 215.637V199.057C267.346 197.976 266.916 196.938 266.15 196.174C265.385 195.409 264.347 194.979 263.264 194.979H248.116V184.317C248.116 183.782 248.011 183.251 247.806 182.756C247.6 182.262 247.3 181.812 246.921 181.433C246.542 181.054 246.092 180.754 245.597 180.549C245.101 180.344 244.571 180.239 244.035 180.239H235.871C235.335 180.239 234.804 180.344 234.309 180.549C233.814 180.754 233.364 181.054 232.985 181.433C232.606 181.812 232.305 182.262 232.1 182.756C231.895 183.251 231.79 183.782 231.79 184.317V194.979H216.641C215.559 194.979 214.521 195.409 213.755 196.174C212.99 196.938 212.56 197.976 212.56 199.057V286.28C212.56 286.803 212.661 287.321 212.858 287.806C213.042 288.677 213.513 289.461 214.195 290.035C214.877 290.608 215.731 290.937 216.622 290.97L280.614 293.102C284.438 293.202 286.174 288.232 283.159 285.811Z" fill="#2F2E41"/>
<path d="M241.148 157.124C239.462 157.077 237.363 157.018 235.746 155.838C235.265 155.472 234.869 155.006 234.587 154.471C234.305 153.937 234.143 153.347 234.113 152.743C234.084 152.314 234.154 151.884 234.319 151.486C234.484 151.089 234.738 150.735 235.062 150.452C235.908 149.739 237.142 149.572 238.469 149.962L237.092 139.905L238.104 139.766L239.722 151.589L238.878 151.202C237.899 150.753 236.556 150.525 235.721 151.23C235.516 151.415 235.356 151.644 235.254 151.9C235.152 152.156 235.111 152.432 235.133 152.707C235.158 153.156 235.279 153.595 235.489 153.993C235.698 154.391 235.991 154.74 236.348 155.015C237.606 155.933 239.28 156.052 241.177 156.105L241.148 157.124Z" fill="#2F2E41"/>
<path d="M249.44 140.773H243.944V141.792H249.44V140.773Z" fill="#2F2E41"/>
<path d="M259.188 266.142H251.657C250.778 266.141 249.935 265.792 249.314 265.17C248.692 264.549 248.342 263.707 248.341 262.828V219.364C248.342 218.486 248.692 217.643 249.314 217.022C249.935 216.401 250.778 216.051 251.657 216.05H259.188C260.067 216.051 260.91 216.401 261.532 217.022C262.154 217.643 262.503 218.486 262.504 219.364V262.828C262.503 263.707 262.154 264.549 261.532 265.17C260.91 265.792 260.067 266.141 259.188 266.142Z" fill="#6C63FF"/>
<path d="M230.121 123.044C230.288 124.242 230.788 125.37 231.563 126.299C232.337 127.229 233.357 127.924 234.506 128.306C235.655 128.687 236.888 128.741 238.065 128.46C239.243 128.179 240.319 127.574 241.171 126.715L239.892 126.378C240.605 128.202 241.801 129.798 243.352 130.995C244.903 132.193 246.75 132.947 248.697 133.177C250.643 133.407 252.615 133.105 254.403 132.302C256.191 131.499 257.727 130.226 258.847 128.619C259.423 127.819 258.096 127.055 257.525 127.847C256.56 129.198 255.25 130.265 253.731 130.938C252.213 131.61 250.542 131.864 248.892 131.673C247.243 131.481 245.674 130.851 244.351 129.848C243.028 128.846 241.997 127.507 241.368 125.971C241.329 125.844 241.259 125.729 241.164 125.637C241.068 125.545 240.951 125.479 240.823 125.445C240.694 125.411 240.559 125.411 240.431 125.444C240.303 125.477 240.185 125.542 240.089 125.634C239.425 126.304 238.584 126.772 237.663 126.983C236.743 127.194 235.782 127.139 234.892 126.825C234.002 126.511 233.22 125.951 232.636 125.209C232.053 124.468 231.692 123.576 231.597 122.637C231.46 121.667 229.985 122.08 230.121 123.044Z" fill="#2F2E41"/>
<path d="M173.412 111.586L104.451 95.6586C103.46 95.4286 102.6 94.8151 102.061 93.9527C101.522 93.0904 101.347 92.0496 101.575 91.0588L121.71 3.87792C121.94 2.88759 122.553 2.02896 123.416 1.4904C124.279 0.951835 125.32 0.777317 126.312 1.00513L195.273 16.9325C196.264 17.1626 197.124 17.7761 197.663 18.6384C198.202 19.5008 198.377 20.5415 198.149 21.5324L178.014 108.713C177.784 109.704 177.171 110.562 176.308 111.101C175.445 111.639 174.404 111.814 173.412 111.586ZM126.12 1.83543C125.349 1.65823 124.539 1.79396 123.868 2.21284C123.197 2.63173 122.719 3.29956 122.541 4.06982L102.405 91.2507C102.228 92.0213 102.364 92.8308 102.784 93.5015C103.203 94.1722 103.871 94.6494 104.642 94.8283L173.604 110.756C174.375 110.933 175.185 110.797 175.856 110.378C176.527 109.959 177.004 109.292 177.183 108.521L197.319 21.3405C197.496 20.5698 197.36 19.7603 196.94 19.0896C196.521 18.4189 195.852 17.9417 195.082 17.7628L126.12 1.83543Z" fill="#3F3D56"/>
<path d="M145.372 49.5425L130.191 46.0391C129.696 45.9242 129.266 45.6175 128.997 45.1864C128.727 44.7553 128.64 44.235 128.754 43.7396L132.891 25.8393C133.006 25.3441 133.313 24.9148 133.744 24.6455C134.176 24.3761 134.696 24.2888 135.192 24.4026L150.373 27.906C150.868 28.021 151.298 28.3276 151.567 28.7587C151.837 29.1898 151.924 29.7102 151.81 30.2056L147.673 48.1059C147.558 48.601 147.251 49.0304 146.82 49.2997C146.388 49.569 145.868 49.6563 145.372 49.5425Z" fill="#6C63FF"/>
<path d="M172.949 64.6524L157.769 61.149C157.273 61.0341 156.844 60.7274 156.574 60.2963C156.305 59.8652 156.217 59.3449 156.331 58.8495L160.469 40.9492C160.584 40.4541 160.891 40.0247 161.322 39.7554C161.753 39.4861 162.274 39.3987 162.77 39.5126L177.95 43.016C178.446 43.1309 178.876 43.4376 179.145 43.8687C179.415 44.2998 179.502 44.8201 179.388 45.3155L175.251 63.2158C175.136 63.7109 174.829 64.1403 174.397 64.4096C173.966 64.6789 173.445 64.7663 172.949 64.6524Z" fill="#E8BDBD"/>
<path d="M143.416 84.5103L128.235 81.0069C127.74 80.892 127.31 80.5853 127.041 80.1542C126.771 79.7231 126.684 79.2028 126.798 78.7074L130.935 60.8071C131.05 60.312 131.357 59.8826 131.788 59.6133C132.22 59.344 132.74 59.2566 133.236 59.3705L148.417 62.8739C148.912 62.9888 149.342 63.2955 149.611 63.7266C149.881 64.1577 149.968 64.678 149.854 65.1734L145.717 83.0737C145.602 83.5689 145.295 83.9982 144.864 84.2675C144.432 84.5369 143.912 84.6242 143.416 84.5103Z" fill="#FF6584"/>
<path d="M142.447 76.8686L140.966 78.9302L131.397 72.0587L132.416 70.3706L144.261 65.5621L146.35 67.0622L141.369 69.2234L135.359 71.7788L142.447 76.8686ZM146.915 67.4684L137.378 80.7502L134.751 78.8637L144.288 65.5818L146.915 67.4684Z" fill="#333333"/>
<path d="M70.2643 64.9594C69.6526 64.5117 68.9229 64.253 68.1656 64.2153C67.4083 64.1777 66.6566 64.3626 66.0033 64.7473L5.29097 101.105C4.41859 101.628 3.78968 102.476 3.54243 103.462C3.29517 104.448 3.44979 105.492 3.97231 106.364L50.0017 183.11C50.5252 183.981 51.3735 184.61 52.3604 184.857C53.3473 185.104 54.392 184.949 55.2649 184.427L115.977 148.07C116.849 147.546 117.477 146.698 117.725 145.712C117.972 144.726 117.818 143.683 117.296 142.81L71.2666 66.065C71.0097 65.6333 70.6689 65.2574 70.2643 64.9594ZM116.565 143.248C116.971 143.927 117.091 144.739 116.899 145.506C116.706 146.272 116.218 146.932 115.539 147.339L54.827 183.697C54.1479 184.103 53.3351 184.224 52.5673 184.032C51.7995 183.839 51.1395 183.35 50.7325 182.672L4.7031 105.927C4.29722 105.248 4.17729 104.436 4.3696 103.669C4.56191 102.902 5.05076 102.243 5.72897 101.835L66.4413 65.4776C66.9538 65.1734 67.5454 65.0286 68.1405 65.0617C68.7357 65.0949 69.3075 65.3045 69.7829 65.6637C69.8768 65.7359 69.9666 65.813 70.0522 65.8948C70.2395 66.0752 70.4021 66.2796 70.5358 66.5026L116.565 143.248Z" fill="#3F3D56"/>
<path d="M67.2409 88.6342L48.9542 99.5851C48.5663 99.8175 48.1018 99.8863 47.663 99.7765C47.2242 99.6666 46.8471 99.3871 46.6145 98.9994C46.382 98.6117 46.3131 98.1476 46.4231 97.7091C46.533 97.2707 46.8127 96.8939 47.2007 96.6615L65.4874 85.7105C65.8754 85.4782 66.3399 85.4094 66.7786 85.5192C67.2174 85.629 67.5946 85.9086 67.8271 86.2963C68.0596 86.684 68.1285 87.1481 68.0185 87.5865C67.9086 88.025 67.6289 88.4018 67.2409 88.6342Z" fill="#3F3D56"/>
<path d="M71.8437 96.3087L53.557 107.26C53.169 107.492 52.7046 107.561 52.2658 107.451C51.827 107.341 51.4499 107.062 51.2173 106.674C50.9848 106.286 50.9159 105.822 51.0259 105.384C51.1358 104.945 51.4155 104.568 51.8035 104.336L70.0902 93.3851C70.4782 93.1527 70.9426 93.0839 71.3814 93.1938C71.8202 93.3036 72.1973 93.5831 72.4299 93.9708C72.6624 94.3585 72.7313 94.8226 72.6213 95.2611C72.5114 95.6995 72.2317 96.0764 71.8437 96.3087Z" fill="#3F3D56"/>
<path d="M46.795 117.249L33.4311 125.252C32.9945 125.512 32.4721 125.589 31.9787 125.466C31.4852 125.342 31.0609 125.028 30.799 124.593L21.3477 108.834C21.0867 108.398 21.0095 107.876 21.1331 107.383C21.2568 106.89 21.5711 106.466 22.0071 106.204L35.371 98.2012C35.8077 97.9404 36.33 97.8633 36.8235 97.9869C37.3169 98.1104 37.7412 98.4245 38.0032 98.8602L47.4545 114.618C47.7155 115.055 47.7927 115.577 47.669 116.07C47.5454 116.563 47.2311 116.987 46.795 117.249Z" fill="#6C63FF"/>
<path d="M81.1421 112.099L39.8142 136.848C39.622 136.964 39.409 137.04 39.1873 137.074C38.9655 137.107 38.7394 137.096 38.5218 137.042C38.3043 136.987 38.0996 136.891 37.9194 136.757C37.7393 136.624 37.5872 136.456 37.472 136.264C37.3567 136.072 37.2805 135.859 37.2477 135.637C37.2149 135.416 37.2262 135.19 37.2808 134.972C37.3355 134.755 37.4326 134.551 37.5664 134.371C37.7002 134.191 37.8682 134.04 38.0607 133.925L79.3886 109.176C79.7765 108.944 80.2405 108.876 80.6787 108.986C81.1169 109.096 81.4935 109.376 81.7257 109.763C81.958 110.15 82.027 110.614 81.9175 111.052C81.8081 111.49 81.5292 111.866 81.1421 112.099Z" fill="#CCCCCC"/>
<path d="M85.7451 119.774L44.4172 144.523C44.2251 144.638 44.012 144.715 43.7903 144.748C43.5685 144.781 43.3424 144.77 43.1249 144.716C42.9073 144.662 42.7026 144.565 42.5225 144.432C42.3423 144.299 42.1903 144.131 42.075 143.939C41.9597 143.747 41.8835 143.534 41.8507 143.312C41.8179 143.09 41.8292 142.864 41.8839 142.647C41.9386 142.43 42.0356 142.225 42.1694 142.046C42.3032 141.866 42.4712 141.714 42.6637 141.599L83.9916 116.85C84.3796 116.618 84.8441 116.549 85.2828 116.659C85.7216 116.769 86.0987 117.048 86.3312 117.436C86.5638 117.824 86.6327 118.288 86.5227 118.726C86.4128 119.165 86.1331 119.541 85.7451 119.774Z" fill="#CCCCCC"/>
<path d="M90.3479 127.448L49.02 152.197C48.8279 152.313 48.6148 152.389 48.3931 152.423C48.1713 152.456 47.9452 152.445 47.7276 152.391C47.5101 152.336 47.3054 152.24 47.1252 152.106C46.9451 151.973 46.793 151.805 46.6778 151.613C46.5625 151.421 46.4863 151.208 46.4535 150.986C46.4207 150.765 46.432 150.539 46.4867 150.322C46.5413 150.104 46.6384 149.9 46.7722 149.72C46.906 149.54 47.074 149.389 47.2665 149.274L88.5944 124.525C88.9824 124.292 89.4468 124.223 89.8856 124.333C90.3244 124.443 90.7015 124.723 90.934 125.11C91.1666 125.498 91.2355 125.962 91.1255 126.401C91.0156 126.839 90.7359 127.216 90.3479 127.448Z" fill="#CCCCCC"/>
<path d="M94.9509 135.123L53.623 159.872C53.4309 159.987 53.2178 160.064 52.9961 160.097C52.7743 160.13 52.5482 160.119 52.3307 160.065C52.1131 160.011 51.9084 159.914 51.7283 159.781C51.5481 159.648 51.3961 159.48 51.2808 159.288C51.1655 159.096 51.0893 158.883 51.0565 158.661C51.0237 158.439 51.035 158.213 51.0897 157.996C51.1444 157.779 51.2414 157.574 51.3752 157.395C51.509 157.215 51.677 157.063 51.8695 156.948L93.1974 132.199C93.5854 131.967 94.0499 131.898 94.4886 132.008C94.9274 132.118 95.3045 132.397 95.5371 132.785C95.7696 133.173 95.8385 133.637 95.7286 134.075C95.6186 134.514 95.3389 134.89 94.9509 135.123Z" fill="#CCCCCC"/>
<path d="M99.5537 142.797L58.2258 167.547C58.0337 167.662 57.8206 167.739 57.5989 167.772C57.3771 167.805 57.151 167.794 56.9335 167.74C56.7159 167.685 56.5112 167.589 56.3311 167.455C56.1509 167.322 55.9988 167.154 55.8836 166.962C55.7683 166.77 55.6921 166.557 55.6593 166.335C55.6265 166.114 55.6378 165.888 55.6925 165.671C55.7472 165.453 55.8442 165.249 55.978 165.069C56.1118 164.889 56.2798 164.738 56.4723 164.623L97.8002 139.874C98.1881 139.642 98.6521 139.574 99.0903 139.684C99.5285 139.794 99.9051 140.074 100.137 140.461C100.37 140.848 100.439 141.312 100.329 141.75C100.22 142.188 99.9408 142.565 99.5537 142.797Z" fill="#CCCCCC"/>
<path d="M181.727 139.33L141.377 177.716L141.965 178.333L182.315 139.947L181.727 139.33Z" fill="#E6E6E6"/>
<path d="M141 178.661L146.121 178.601L146.112 177.748L141.907 177.798L142.164 173.605L141.312 173.553L141 178.661Z" fill="#E6E6E6"/>
<path d="M182.69 139L182.379 144.108L181.526 144.057L181.783 139.863L177.579 139.914L177.569 139.061L182.69 139Z" fill="#E6E6E6"/>
<path d="M161.846 163.518C164.436 163.518 166.536 161.42 166.536 158.831C166.536 156.243 164.436 154.145 161.846 154.145C159.255 154.145 157.155 156.243 157.155 158.831C157.155 161.42 159.255 163.518 161.846 163.518Z" fill="#E6E6E6"/>
<path d="M93.4799 35.6978L39.8457 50.7607L40.0765 51.5812L93.7107 36.5182L93.4799 35.6978Z" fill="#E6E6E6"/>
<path d="M39.0702 51.42L43.6247 53.7611L44.0159 53.003L40.2758 51.0817L42.4666 47.4955L41.7376 47.0517L39.0702 51.42Z" fill="#E6E6E6"/>
<path d="M297.155 71.1044C294.867 74.1161 292.362 76.0533 289.641 76.9159C286.92 77.7785 284.594 77.5243 282.665 76.1533C281.094 75.0364 280.363 73.1477 280.472 70.4871C280.581 67.8264 281.976 64.6069 284.658 60.8288C285.251 59.9936 285.836 59.2122 286.412 58.4848C286.988 57.7575 287.546 57.077 288.086 56.4432L296.097 47.3717L289.207 42.4736C279.205 54.0342 272.984 60.7206 270.546 62.5328C268.107 64.345 265.973 64.6008 264.144 63.3005C263.333 62.6932 262.779 61.803 262.594 60.8067C262.466 60.257 262.462 59.6859 262.582 59.1345C262.701 58.5832 262.942 58.0654 263.286 57.6185C263.935 56.7042 265.563 55.9389 268.17 55.3228C270.776 54.707 272.638 53.7796 273.758 52.5406L285.479 39.8231L282.586 37.7664C281.767 37.1914 280.822 36.8202 279.831 36.6835C278.949 36.516 278.039 36.5707 277.183 36.8426L274.545 37.8399L273.501 37.0978C276.621 34.7677 279.432 33.3475 281.934 32.837C284.435 32.3262 286.611 32.7283 288.46 34.0431L311.247 50.2429L307.52 55.4928L299.825 50.0222C297.892 52.2388 296.014 54.4944 294.191 56.7888C292.367 59.083 290.602 61.4333 288.894 63.8397C287.736 65.4705 287.175 67.0615 287.211 68.6128C287.246 70.164 287.831 71.3425 288.964 72.1484C289.66 72.643 290.592 72.8791 291.76 72.8567C292.305 72.8601 292.844 72.7457 293.34 72.5213C293.836 72.297 294.278 71.968 294.635 71.5569C295.005 71.162 295.293 70.8508 295.5 70.6232C295.706 70.3959 295.83 70.2524 295.873 70.1926L297.155 71.1044Z" fill="#6C63FF"/>
<path d="M168.287 215.473L139.99 222.518C139.286 222.693 138.63 223.025 138.071 223.488C137.511 223.951 137.064 224.533 136.76 225.192C136.456 225.852 136.305 226.57 136.316 227.296C136.328 228.021 136.503 228.735 136.827 229.384L147.657 251.012L152.179 260.039C152.689 261.059 153.542 261.866 154.589 262.318C155.636 262.77 156.809 262.838 157.901 262.51L163.938 260.71L183.632 254.832C184.378 254.611 185.059 254.212 185.618 253.672C186.03 253.272 186.368 252.803 186.618 252.286L186.634 252.25C186.922 251.632 187.078 250.961 187.091 250.279C187.103 249.597 186.972 248.92 186.707 248.292L173.916 218.274C173.468 217.212 172.654 216.346 171.621 215.832C170.588 215.318 169.406 215.191 168.287 215.473ZM172.979 218.677L185.769 248.695C185.978 249.191 186.081 249.726 186.07 250.264C186.059 250.803 185.935 251.333 185.706 251.82L185.695 251.845C185.464 252.325 185.135 252.752 184.73 253.099C184.325 253.445 183.852 253.704 183.341 253.857L163.862 259.671L157.61 261.536C156.748 261.795 155.821 261.741 154.995 261.383C154.168 261.026 153.494 260.388 153.093 259.582L148.755 250.929L137.737 228.93C137.482 228.418 137.345 227.855 137.337 227.282C137.328 226.71 137.448 226.143 137.688 225.623C137.927 225.103 138.28 224.643 138.721 224.278C139.161 223.912 139.678 223.649 140.233 223.509L168.53 216.465C169.414 216.241 170.349 216.341 171.165 216.747C171.981 217.153 172.624 217.838 172.979 218.677Z" fill="#3F3D56"/>
<path d="M168.992 228.371C168.808 228.549 168.582 228.677 168.336 228.745L149.849 233.847C149.458 233.953 149.041 233.9 148.689 233.7C148.337 233.5 148.079 233.168 147.971 232.778C147.863 232.388 147.915 231.971 148.114 231.619C148.313 231.266 148.644 231.007 149.034 230.898L167.521 225.797C167.849 225.706 168.197 225.727 168.512 225.857C168.826 225.987 169.089 226.217 169.257 226.513C169.426 226.808 169.492 227.151 169.443 227.488C169.395 227.824 169.236 228.135 168.992 228.371Z" fill="#6C63FF"/>
<path d="M171.403 235.261C171.219 235.439 170.993 235.568 170.747 235.635L152.26 240.737C151.87 240.843 151.453 240.791 151.1 240.59C150.748 240.39 150.49 240.059 150.382 239.668C150.275 239.278 150.326 238.861 150.525 238.509C150.724 238.156 151.055 237.897 151.445 237.788L169.932 232.687C170.26 232.596 170.609 232.618 170.923 232.747C171.238 232.877 171.5 233.108 171.669 233.403C171.837 233.698 171.903 234.041 171.855 234.378C171.807 234.714 171.648 235.025 171.403 235.261Z" fill="#6C63FF"/>
<path d="M174.536 242.164C174.352 242.341 174.126 242.47 173.88 242.538L155.393 247.639C155.002 247.746 154.585 247.693 154.233 247.493C153.881 247.292 153.623 246.961 153.515 246.571C153.407 246.181 153.459 245.764 153.658 245.411C153.857 245.059 154.188 244.8 154.578 244.691L173.065 239.589C173.393 239.499 173.741 239.52 174.056 239.65C174.37 239.779 174.633 240.01 174.801 240.305C174.97 240.601 175.036 240.944 174.987 241.28C174.939 241.617 174.78 241.928 174.536 242.164Z" fill="#6C63FF"/>
<path d="M137.494 33.3176L140.17 35.8106L140.856 32.1938L143.699 31.2434L142.503 37.0903L147.178 41.2215L144.326 42.175L141.442 39.5555L140.714 43.3824L137.861 44.3359L139.113 38.2234L134.641 34.2711L137.494 33.3176Z" fill="#333333"/>
<path d="M162.058 53.1276L160.759 52.59L162.943 47.3142C163.095 46.9469 163.295 46.6676 163.542 46.4761C163.793 46.2829 164.077 46.1765 164.393 46.1569C164.713 46.1355 165.055 46.2002 165.419 46.351C165.539 46.4004 165.65 46.457 165.753 46.5206C165.857 46.5813 165.957 46.6452 166.051 46.7123L165.636 47.6786C165.585 47.6402 165.53 47.6051 165.469 47.5731C165.409 47.5412 165.337 47.5079 165.254 47.4733C165.098 47.4091 164.954 47.3809 164.822 47.3889C164.693 47.3952 164.58 47.4373 164.481 47.5154C164.382 47.5934 164.302 47.7056 164.242 47.8519L162.058 53.1276ZM165.031 48.6823L164.653 49.5959L161.666 48.3593L162.044 47.4456L165.031 48.6823ZM164.816 51.2794L164.857 51.1809C165.118 50.5509 165.42 50.0063 165.764 49.5471C166.111 49.0892 166.474 48.7113 166.853 48.4134C167.236 48.1137 167.61 47.8893 167.976 47.74C168.342 47.5908 168.677 47.5126 168.981 47.5054L168.945 48.2881C168.723 48.3431 168.484 48.447 168.229 48.6C167.974 48.75 167.714 48.9569 167.447 49.2207C167.185 49.4829 166.924 49.8122 166.666 50.2088C166.408 50.6023 166.167 51.0723 165.94 51.6187L165.892 51.7352C165.666 52.2816 165.504 52.7864 165.407 53.2497C165.311 53.7101 165.262 54.1272 165.261 54.501C165.262 54.8791 165.299 55.2126 165.372 55.5015C165.444 55.7904 165.539 56.0343 165.656 56.2332L165.136 56.794C164.926 56.5743 164.744 56.2822 164.591 55.9179C164.436 55.5566 164.329 55.1347 164.27 54.6521C164.213 54.1737 164.223 53.6499 164.302 53.0807C164.384 52.5098 164.556 51.9094 164.816 51.2794ZM169.953 50.7199L170.145 52.5252L171.579 51.3929L172.954 51.9621L170.603 53.7639L171.011 56.8339L169.631 56.2628L169.403 54.3427L167.884 55.5398L166.505 54.9687L168.963 53.0853L168.574 50.1488L169.953 50.7199ZM174.889 55.3339L174.849 55.4324C174.596 56.0415 174.295 56.5744 173.945 57.0311C173.597 57.4848 173.227 57.8618 172.837 58.1619C172.449 58.4663 172.066 58.6943 171.689 58.8458C171.314 58.9985 170.97 59.0766 170.658 59.0801L170.681 58.3134C170.903 58.2585 171.141 58.1539 171.394 57.9997C171.649 57.8467 171.911 57.6368 172.179 57.37C172.445 57.1061 172.707 56.7753 172.962 56.3775C173.221 55.9809 173.463 55.5094 173.689 54.9631L173.738 54.8466C173.964 54.3002 174.126 53.7954 174.223 53.3321C174.32 52.8687 174.366 52.4489 174.361 52.0726C174.36 51.6945 174.323 51.3625 174.249 51.0765C174.179 50.7889 174.088 50.5483 173.976 50.3549L174.503 49.7915C174.722 50.0149 174.909 50.3145 175.065 50.6903C175.225 51.0642 175.335 51.4946 175.396 51.9815C175.46 52.4695 175.454 52.9988 175.379 53.5692C175.305 54.1366 175.141 54.7248 174.889 55.3339Z" fill="#333333"/>
<path d="M232.657 140.935H227.51V141.89H232.657V140.935Z" fill="#2F2E41"/>
</svg>
