<svg width="350" height="318" viewBox="0 0 350 318" fill="none" xmlns="http://www.w3.org/2000/svg">
<path d="M1.7156 55.2284C1.26102 55.4613 0.920836 55.8586 0.769667 56.3331C0.618498 56.8076 0.668695 57.3206 0.909249 57.7595L39.3575 127.719C39.5991 128.158 40.0111 128.486 40.5032 128.631C40.9953 128.777 41.5272 128.729 41.9823 128.497L148.35 74.1451C148.804 73.9122 149.144 73.5149 149.296 73.0405C149.447 72.566 149.397 72.053 149.156 71.6141L110.708 1.65447C110.466 1.21611 110.054 0.888037 109.562 0.742224C109.07 0.596407 108.538 0.644758 108.083 0.876665L1.7156 55.2284Z" fill="#E6E6E6"/>
<path d="M5.46539 56.3395C5.01081 56.5725 4.67062 56.9697 4.51945 57.4443C4.36828 57.9188 4.41848 58.4317 4.65904 58.8706L40.5094 124.103C40.7509 124.542 41.163 124.87 41.6551 125.015C42.1471 125.161 42.6791 125.113 43.1342 124.881L144.6 73.0339C145.054 72.801 145.395 72.4037 145.546 71.9292C145.697 71.4547 145.647 70.9418 145.406 70.5029L109.556 5.2703C109.314 4.83194 108.902 4.50387 108.41 4.35805C107.918 4.21223 107.386 4.26059 106.931 4.49249L5.46539 56.3395Z" fill="white"/>
<path d="M49.1363 89.7435L48.6461 89.994L49.4255 91.4121L49.9156 91.1617L49.1363 89.7435Z" fill="#E6E6E6"/>
<path d="M51.336 93.7461L50.8459 93.9965L52.2662 96.581L52.7564 96.3306L51.336 93.7461Z" fill="#E6E6E6"/>
<path d="M54.1767 98.9149L53.6866 99.1654L54.4659 100.584L54.9561 100.333L54.1767 98.9149Z" fill="#E6E6E6"/>
<path d="M99.9355 70.795L99.4454 71.0455L97.802 68.0552L98.2922 67.8048L99.9355 70.795ZM96.6488 64.8146L96.1587 65.0651L94.5153 62.0749L95.0055 61.8244L96.6488 64.8146ZM93.3621 58.8342L92.872 59.0847L91.2286 56.0945L91.7188 55.844L93.3621 58.8342ZM90.0754 52.8538L89.5853 53.1042L87.9419 50.1141L88.4321 49.8636L90.0754 52.8538Z" fill="#E6E6E6"/>
<path d="M101.579 73.7852L101.089 74.0356L101.868 75.4537L102.358 75.2033L101.579 73.7852Z" fill="#E6E6E6"/>
<path d="M127.803 56.9572L127.312 57.2077L125.842 54.5312L126.332 54.2807L127.803 56.9572ZM124.861 51.6042L124.371 51.8547L122.9 49.1782L123.39 48.9277L124.861 51.6042ZM121.919 46.2513L121.429 46.5017L119.958 43.8253L120.448 43.5748L121.919 46.2513ZM118.977 40.8983L118.487 41.1488L117.016 38.4723L117.506 38.2218L118.977 40.8983ZM116.035 35.5452L115.545 35.7957L114.074 33.1192L114.564 32.8687L116.035 35.5452ZM113.093 30.1922L112.603 30.4427L111.132 27.7662L111.622 27.5158L113.093 30.1922ZM110.151 24.8393L109.661 25.0898L108.19 22.4133L108.68 22.1628L110.151 24.8393Z" fill="#E6E6E6"/>
<path d="M129.274 59.6337L128.783 59.8842L129.563 61.3023L130.053 61.0518L129.274 59.6337Z" fill="#E6E6E6"/>
<path d="M46.4103 104.574C43.3573 101.768 43.6385 97.1188 45.6079 93.8044C48.1143 89.5864 53.2728 87.8246 58.0165 87.2216C67.3563 86.0343 77.9412 89.0067 86.0048 82.9106C87.6175 81.7229 88.9144 80.1827 89.7888 78.4168C90.6615 76.5231 90.9699 74.4323 90.6793 72.3789C90.1404 68.1002 87.6711 64.3936 85.8435 60.5556C84.1503 56.9997 82.7045 52.711 84.3747 48.8968C86.2045 44.7181 91.0403 42.8765 94.7807 40.6514C98.3883 38.526 101.362 35.5343 103.412 31.9687C105.457 28.4211 106.531 24.4298 106.534 20.3708C106.527 19.3993 106.455 18.4293 106.32 17.4666C106.248 16.9541 105.436 17.1321 105.507 17.6404C106.637 25.7597 102.754 34.379 95.7746 39.0723C92.0933 41.5477 87.4792 43.0818 84.7385 46.6796C82.1579 50.0671 82.5424 54.3539 83.9201 58.1211C85.3996 62.1668 87.9891 65.7537 89.2694 69.8741C89.9076 71.9281 90.2007 74.1198 89.6922 76.2319C89.1871 78.1999 88.1031 79.9852 86.5706 81.3731C79.1699 88.2753 68.0443 85.4263 58.8616 86.3229C54.0825 86.7896 48.8763 88.2833 45.8013 92.0857C43.4063 95.0473 42.4101 99.4557 44.1474 102.938C44.5588 103.757 45.1203 104.498 45.8049 105.125C46.1906 105.479 46.7995 104.932 46.4103 104.574Z" fill="#6C63FF"/>
<path d="M134.828 59.8228L41.2051 107.662L16.6907 63.0564L17.1809 62.8059L41.4355 106.939L134.568 59.3501L134.828 59.8228Z" fill="#3F3D56"/>
<path d="M232.56 101.787C233.342 102.086 234.267 101.62 234.626 100.747C234.986 99.8734 234.643 98.923 233.861 98.624C233.079 98.3251 232.154 98.7909 231.795 99.6644C231.435 100.538 231.778 101.488 232.56 101.787Z" fill="#E5E5E5"/>
<path d="M262.001 125.478C257.543 120.819 253.527 115.695 250.001 110.168C241.524 96.9213 237.433 83.7837 239.821 77.4767C240.519 75.6334 241.72 74.4191 243.392 73.8679C246.095 72.9762 249.859 73.9529 254.276 76.6918L253.837 77.4263C249.599 74.798 246.041 73.8432 243.55 74.6649C242.145 75.1285 241.132 76.1569 240.539 77.722C238.246 83.7778 242.312 96.6085 250.658 109.649C254.158 115.136 258.144 120.223 262.57 124.849L262.001 125.478Z" fill="#3F3D56"/>
<path d="M277.112 136.676C275.012 135.873 272.681 134.545 270.165 132.708L270.647 132.002C275.929 135.86 280.476 137.445 283.449 136.464C284.855 136.001 285.868 134.972 286.46 133.407C288.753 127.351 284.687 114.521 276.342 101.48C272.112 94.8704 267.213 88.8397 262.174 84.0398L262.723 83.3906C267.802 88.2285 272.738 94.3043 276.998 100.961C285.475 114.208 289.566 127.345 287.178 133.652C286.48 135.496 285.279 136.71 283.608 137.261C281.833 137.847 279.64 137.642 277.112 136.676Z" fill="#3F3D56"/>
<path d="M231.491 119.228C228.955 118.259 227.193 116.956 226.32 115.363C225.495 113.858 225.484 112.18 226.286 110.377C229.031 104.206 241.351 97.3416 256.943 93.295C274.368 88.7724 291.821 88.8161 298.442 93.3996L297.975 94.1155C291.504 89.6347 274.293 89.6318 257.052 94.1065C241.703 98.0901 229.619 104.747 226.983 110.672C226.302 112.203 226.308 113.622 227.002 114.888C230.516 121.298 249.781 122.257 269.947 117.023C283.8 113.428 294.934 107.736 299.003 102.17L299.598 102.643C295.41 108.371 284.09 114.192 270.057 117.834C260.18 120.398 250.213 121.569 241.991 121.132C237.72 120.905 234.173 120.253 231.491 119.228Z" fill="#3F3D56"/>
<path d="M257.489 82.4892C258.662 82.9376 260.05 82.2389 260.589 80.9287C261.128 79.6185 260.614 78.1929 259.441 77.7445C258.268 77.2961 256.88 77.9948 256.341 79.305C255.802 80.6153 256.316 82.0409 257.489 82.4892Z" fill="#6C63FF"/>
<path d="M264.884 131.226C266.057 131.674 267.445 130.976 267.984 129.665C268.523 128.355 268.009 126.93 266.836 126.481C265.663 126.033 264.275 126.731 263.736 128.042C263.197 129.352 263.711 130.778 264.884 131.226Z" fill="#6C63FF"/>
<path d="M262.925 154.576C263.707 154.874 264.632 154.409 264.991 153.535C265.351 152.662 265.008 151.711 264.226 151.412C263.444 151.114 262.519 151.579 262.16 152.453C261.8 153.326 262.143 154.277 262.925 154.576Z" fill="#E5E5E5"/>
<path d="M259.339 65.0463C260.121 65.3452 261.047 64.8794 261.406 64.0059C261.765 63.1325 261.423 62.1821 260.641 61.8831C259.859 61.5842 258.934 62.05 258.574 62.9235C258.215 63.797 258.557 64.7474 259.339 65.0463Z" fill="#E5E5E5"/>
<path d="M299.36 99.867C300.533 100.315 301.921 99.6167 302.46 98.3065C302.999 96.9963 302.485 95.5707 301.312 95.1223C300.139 94.674 298.751 95.3726 298.212 96.6828C297.673 97.9931 298.187 99.4187 299.36 99.867Z" fill="#6C63FF"/>
<path d="M109.726 315.794L109.696 315.939L109.687 315.972C109.687 315.96 109.683 315.952 109.683 315.939C109.674 315.885 109.67 315.832 109.661 315.778C109.683 315.782 109.704 315.79 109.726 315.794Z" fill="#F2F2F2"/>
<path d="M106.012 316.975C105.724 316.54 105.436 316.109 105.152 315.674C104.907 315.305 104.667 314.937 104.426 314.568C104.366 314.477 104.306 314.39 104.254 314.299C105.045 314.535 105.839 314.761 106.635 314.978C106.7 315.082 106.768 315.189 106.842 315.293C107.035 315.587 107.228 315.885 107.426 316.18C107.456 316.229 107.482 316.275 107.504 316.321C107.843 317.12 106.549 317.779 106.012 316.975Z" fill="white"/>
<path d="M103.227 316.134C103.205 316.105 103.183 316.072 103.162 316.043C103.175 316.039 103.183 316.039 103.196 316.035L103.227 316.134Z" fill="#F2F2F2"/>
<path d="M246.297 315.794L246.327 315.939L246.336 315.972C246.336 315.96 246.34 315.952 246.34 315.939C246.349 315.885 246.353 315.832 246.362 315.778C246.34 315.782 246.319 315.79 246.297 315.794Z" fill="#F2F2F2"/>
<path d="M250.011 316.975C250.299 316.54 250.587 316.109 250.871 315.674C251.116 315.305 251.356 314.937 251.597 314.568C251.657 314.477 251.718 314.39 251.769 314.299C250.978 314.535 250.185 314.761 249.388 314.978C249.323 315.082 249.255 315.189 249.181 315.293C248.988 315.587 248.795 315.885 248.597 316.18C248.567 316.229 248.541 316.275 248.519 316.321C248.18 317.12 249.474 317.779 250.011 316.975Z" fill="white"/>
<path d="M252.796 316.134C252.818 316.105 252.839 316.072 252.861 316.043C252.848 316.039 252.839 316.039 252.826 316.035L252.796 316.134Z" fill="#F2F2F2"/>
<path d="M164.63 177.952C164.282 178.065 163.96 178.244 163.685 178.478C163.409 178.712 163.184 178.997 163.023 179.315L160.816 183.643L160.225 184.8C159.898 185.441 159.848 186.181 160.087 186.857C160.325 187.533 160.831 188.091 161.495 188.407L178.604 196.521L208.945 210.903C209.578 211.202 210.305 211.26 210.981 211.065C211.657 210.87 212.231 210.435 212.589 209.849C212.625 209.792 212.655 209.737 212.687 209.678L214.377 206.366L215.487 204.189C215.576 204.015 215.646 203.832 215.695 203.643C215.821 203.144 215.797 202.62 215.625 202.133C215.508 201.797 215.322 201.487 215.079 201.222C214.836 200.956 214.541 200.739 214.21 200.584L210.594 198.868L183.837 186.183L166.763 178.085C166.098 177.769 165.331 177.722 164.63 177.952Z" fill="#6C63FF"/>
<path d="M159.336 179.558C159.018 179.985 158.746 180.444 158.527 180.926C157.678 182.786 157.629 184.894 158.39 186.789C159.152 188.684 160.663 190.211 162.59 191.033L175.96 196.723C176.384 196.902 176.847 196.977 177.309 196.942C177.77 196.906 178.215 196.762 178.604 196.521C178.921 196.324 179.193 196.066 179.402 195.764C179.496 195.632 179.577 195.493 179.645 195.346L183.811 186.249C183.822 186.228 183.83 186.206 183.837 186.183C184.113 185.534 184.116 184.807 183.845 184.156C183.573 183.505 183.049 182.982 182.383 182.698L169.013 177.009C167.341 176.3 165.468 176.166 163.706 176.63C161.944 177.094 160.402 178.128 159.336 179.558Z" fill="#2F2E41"/>
<path d="M195.988 220.94H189.643C188.902 220.941 188.192 221.225 187.668 221.73C187.144 222.235 186.85 222.92 186.849 223.634V261.757C186.85 262.471 187.144 263.155 187.668 263.66C188.192 264.165 188.902 264.449 189.643 264.45H195.988C196.355 264.45 196.718 264.38 197.057 264.245C197.396 264.11 197.704 263.911 197.963 263.661C198.223 263.411 198.429 263.114 198.569 262.787C198.709 262.461 198.782 262.11 198.782 261.757V223.634C198.782 223.28 198.709 222.93 198.569 222.603C198.429 222.276 198.223 221.979 197.963 221.729C197.704 221.479 197.396 221.281 197.057 221.145C196.718 221.01 196.355 220.94 195.988 220.94Z" fill="#6C63FF"/>
<path d="M192.074 234.768C191.611 234.768 191.153 234.684 190.722 234.522L155.38 221.194C154.439 220.826 153.687 220.114 153.29 219.214C152.893 218.313 152.883 217.297 153.261 216.389L156.285 208.938C156.654 208.019 157.382 207.277 158.314 206.872C158.769 206.671 159.261 206.561 159.761 206.548C160.261 206.534 160.759 206.618 161.224 206.794L196.566 220.122C197.032 220.298 197.457 220.562 197.815 220.898C198.173 221.235 198.457 221.638 198.65 222.083C199.049 222.99 199.062 224.012 198.685 224.927L195.661 232.378C195.381 233.077 194.889 233.679 194.249 234.106C193.609 234.532 192.851 234.762 192.074 234.768Z" fill="#CCCCCC"/>
<path d="M196.173 266.832H189.296C188.669 266.832 188.067 266.592 187.624 266.165C187.181 265.737 186.932 265.158 186.932 264.553C186.932 263.949 187.181 263.369 187.624 262.942C188.067 262.515 188.669 262.275 189.296 262.275H196.173C196.8 262.275 197.402 262.515 197.845 262.942C198.288 263.369 198.538 263.949 198.538 264.553C198.538 265.158 198.288 265.737 197.845 266.165C197.402 266.592 196.8 266.832 196.173 266.832Z" fill="#2F2E41"/>
<path d="M142.062 225.529C141.198 225.535 140.335 225.448 139.492 225.267C135.676 224.418 134.267 222.804 134.036 221.984C133.985 221.859 133.971 221.722 133.996 221.59C134.021 221.458 134.083 221.334 134.176 221.234C134.272 221.155 134.389 221.104 134.513 221.088C134.638 221.071 134.765 221.089 134.88 221.14C136.065 221.521 152.867 218.318 158.835 216.991C161.316 216.439 163.058 216.53 164.012 217.261C164.205 217.399 164.366 217.575 164.482 217.778C164.598 217.98 164.668 218.205 164.686 218.436V218.58L152.951 222.77C152.571 222.952 147.102 225.529 142.062 225.529Z" fill="#2F2E41"/>
<path d="M233.969 275.454C233.885 275.454 233.803 275.431 233.733 275.387C233.663 275.343 233.608 275.28 233.575 275.207L211.435 226.665C211.333 226.439 211.164 226.248 210.949 226.116C210.734 225.984 210.483 225.916 210.228 225.922L149.648 227.114C149.432 227.118 149.22 227.174 149.032 227.278C148.844 227.382 148.687 227.53 148.575 227.708L119.501 273.535C119.441 273.629 119.346 273.696 119.235 273.722C119.124 273.748 119.007 273.73 118.91 273.673C118.813 273.615 118.743 273.523 118.716 273.416C118.69 273.309 118.708 273.197 118.767 273.103L147.841 227.276C148.029 226.979 148.291 226.732 148.604 226.559C148.917 226.386 149.27 226.292 149.631 226.285L210.21 225.094C210.635 225.085 211.052 225.199 211.41 225.419C211.768 225.639 212.051 225.956 212.222 226.331L234.362 274.873C234.391 274.936 234.402 275.005 234.397 275.074C234.391 275.142 234.367 275.208 234.328 275.266C234.289 275.324 234.236 275.371 234.173 275.404C234.11 275.437 234.04 275.454 233.969 275.454Z" fill="#2F2E41"/>
<path d="M163.826 277.191C163.733 277.191 163.642 277.161 163.568 277.107C163.493 277.053 163.439 276.977 163.413 276.891L149.401 229.896C149.369 229.791 149.383 229.678 149.438 229.582C149.493 229.486 149.586 229.415 149.695 229.384C149.805 229.354 149.922 229.367 150.022 229.42C150.121 229.473 150.195 229.562 150.227 229.667L164.24 276.662C164.255 276.714 164.26 276.769 164.254 276.823C164.247 276.877 164.23 276.929 164.203 276.977C164.175 277.024 164.138 277.066 164.094 277.1C164.05 277.134 163.999 277.159 163.945 277.174C163.906 277.185 163.866 277.191 163.826 277.191Z" fill="#2F2E41"/>
<path d="M166.835 222.705H153.08C150.516 222.703 148.058 221.72 146.245 219.972C144.431 218.224 143.412 215.855 143.409 213.383V211.311C143.412 208.84 144.431 206.47 146.245 204.722C148.058 202.975 150.516 201.991 153.08 201.989H166.835C169.4 201.991 171.858 202.975 173.671 204.722C175.484 206.47 176.504 208.84 176.507 211.311V213.383C176.504 215.855 175.484 218.224 173.671 219.972C171.858 221.72 169.4 222.703 166.835 222.705Z" fill="#CCCCCC"/>
<path d="M237.439 281.829C238.863 281.829 240.018 280.716 240.018 279.343C240.018 277.97 238.863 276.857 237.439 276.857C236.014 276.857 234.86 277.97 234.86 279.343C234.86 280.716 236.014 281.829 237.439 281.829Z" fill="#2F2E41"/>
<path d="M116.222 281.829C117.646 281.829 118.801 280.716 118.801 279.343C118.801 277.97 117.646 276.857 116.222 276.857C114.797 276.857 113.643 277.97 113.643 279.343C113.643 280.716 114.797 281.829 116.222 281.829Z" fill="#2F2E41"/>
<path d="M208.174 207.594C207.819 207.595 207.475 207.474 207.204 207.254C206.932 207.033 206.75 206.727 206.69 206.39C206.63 206.053 206.695 205.706 206.875 205.411C207.054 205.115 207.336 204.891 207.671 204.777L220.64 200.357C221.016 200.229 221.429 200.25 221.789 200.416C222.149 200.582 222.426 200.879 222.559 201.241C222.692 201.604 222.671 202.002 222.499 202.349C222.327 202.696 222.019 202.963 221.643 203.092L208.674 207.511C208.514 207.566 208.344 207.594 208.174 207.594Z" fill="#2F2E41"/>
<path d="M174.209 276.857C174.125 276.857 174.042 276.833 173.972 276.788C173.901 276.744 173.846 276.68 173.813 276.605C173.78 276.53 173.771 276.447 173.786 276.368C173.802 276.288 173.841 276.214 173.9 276.155L212.759 237.332C212.799 237.293 212.845 237.261 212.897 237.239C212.949 237.217 213.005 237.205 213.061 237.204C213.118 237.203 213.174 237.213 213.227 237.233C213.279 237.253 213.327 237.283 213.368 237.321C213.409 237.358 213.441 237.404 213.464 237.454C213.486 237.504 213.499 237.557 213.499 237.612C213.5 237.666 213.49 237.721 213.469 237.771C213.449 237.822 213.418 237.868 213.378 237.907L174.518 276.731C174.478 276.771 174.43 276.803 174.377 276.824C174.324 276.846 174.267 276.857 174.209 276.857Z" fill="#2F2E41"/>
<path d="M123.196 281.849C123.082 281.849 122.972 281.806 122.892 281.728C122.811 281.651 122.765 281.545 122.765 281.435C122.765 281.325 122.81 281.22 122.891 281.142C122.971 281.064 123.08 281.021 123.194 281.02L159.097 280.92H159.098C159.212 280.92 159.322 280.963 159.402 281.041C159.483 281.118 159.528 281.224 159.529 281.333C159.529 281.443 159.484 281.549 159.403 281.627C159.323 281.704 159.213 281.748 159.099 281.748L123.197 281.849H123.196Z" fill="#2F2E41"/>
<path d="M210.762 222.4C210.664 222.4 210.569 222.367 210.492 222.308C210.416 222.248 210.363 222.165 210.343 222.072L208.332 213.022C208.319 212.961 208.319 212.899 208.334 212.839C208.349 212.778 208.378 212.722 208.418 212.674C208.458 212.626 208.509 212.587 208.567 212.561C208.625 212.534 208.688 212.52 208.752 212.52H215.572V208.078C215.572 207.968 215.618 207.862 215.698 207.785C215.779 207.707 215.888 207.663 216.002 207.663C216.116 207.663 216.226 207.707 216.306 207.785C216.387 207.862 216.432 207.968 216.432 208.078V212.935C216.432 213.045 216.387 213.15 216.306 213.228C216.226 213.305 216.116 213.349 216.002 213.349H209.284L211.183 221.899C211.197 221.959 211.196 222.022 211.181 222.082C211.166 222.142 211.138 222.198 211.097 222.246C211.057 222.294 211.006 222.333 210.948 222.36C210.89 222.386 210.827 222.4 210.762 222.4Z" fill="#2F2E41"/>
<path d="M166.835 292.521C165.135 292.521 163.473 292.035 162.059 291.124C160.645 290.214 159.544 288.92 158.893 287.406C158.242 285.891 158.072 284.225 158.404 282.618C158.735 281.01 159.554 279.534 160.756 278.375C161.959 277.216 163.491 276.427 165.158 276.107C166.826 275.787 168.554 275.951 170.125 276.578C171.696 277.206 173.039 278.268 173.984 279.631C174.928 280.993 175.432 282.595 175.432 284.234C175.43 286.431 174.523 288.538 172.912 290.091C171.3 291.645 169.115 292.519 166.835 292.521ZM166.835 276.776C165.305 276.776 163.809 277.214 162.537 278.033C161.264 278.853 160.273 280.018 159.687 281.38C159.102 282.743 158.948 284.243 159.247 285.689C159.545 287.136 160.282 288.465 161.364 289.508C162.446 290.551 163.825 291.261 165.326 291.549C166.827 291.837 168.383 291.689 169.796 291.125C171.21 290.56 172.419 289.604 173.269 288.378C174.119 287.151 174.573 285.709 174.573 284.234C174.57 282.257 173.754 280.361 172.304 278.963C170.853 277.565 168.887 276.779 166.835 276.776Z" fill="#2F2E41"/>
<path d="M175.111 286.306H168.233C167.606 286.306 167.005 286.066 166.562 285.639C166.118 285.211 165.869 284.632 165.869 284.027C165.869 283.423 166.118 282.843 166.562 282.416C167.005 281.988 167.606 281.748 168.233 281.748H175.111C175.738 281.748 176.339 281.988 176.783 282.416C177.226 282.843 177.475 283.423 177.475 284.027C177.475 284.632 177.226 285.211 176.783 285.639C176.339 286.066 175.738 286.306 175.111 286.306Z" fill="#2F2E41"/>
<path d="M339.322 317.793H21.9676C21.8319 317.793 21.7017 317.741 21.6057 317.648C21.5097 317.556 21.4558 317.43 21.4558 317.3C21.4558 317.169 21.5097 317.043 21.6057 316.951C21.7017 316.858 21.8319 316.806 21.9676 316.806H339.322C339.458 316.806 339.588 316.858 339.684 316.951C339.78 317.043 339.834 317.169 339.834 317.3C339.834 317.43 339.78 317.556 339.684 317.648C339.588 317.741 339.458 317.793 339.322 317.793Z" fill="#3F3D56"/>
<path d="M170.682 166.701C170.316 166.735 169.961 166.838 169.637 167.006C169.313 167.173 169.027 167.401 168.795 167.676L165.624 171.406L164.775 172.404C164.306 172.956 164.083 173.665 164.155 174.376C164.228 175.087 164.589 175.741 165.161 176.195L179.906 187.848L206.055 208.507C206.601 208.938 207.296 209.154 208 209.112C208.704 209.07 209.366 208.773 209.853 208.281C209.901 208.233 209.943 208.185 209.988 208.135L212.416 205.281L214.011 203.404C214.139 203.254 214.25 203.091 214.342 202.918C214.583 202.459 214.683 201.944 214.631 201.432C214.596 201.08 214.488 200.737 214.314 200.425C214.141 200.113 213.904 199.837 213.619 199.614L210.502 197.15L187.441 178.929L172.727 167.298C172.155 166.845 171.419 166.63 170.682 166.701Z" fill="#6C63FF"/>
<path d="M161.274 151.409C173.98 151.409 184.279 141.481 184.279 129.234C184.279 116.988 173.98 107.06 161.274 107.06C148.569 107.06 138.269 116.988 138.269 129.234C138.269 141.481 148.569 151.409 161.274 151.409Z" fill="#6C63FF"/>
<path d="M180.702 139.037L180.678 138.208C182.277 138.165 183.687 138.069 184.747 137.323C185.047 137.099 185.294 136.816 185.47 136.492C185.647 136.168 185.749 135.812 185.77 135.446C185.789 135.223 185.754 134.999 185.668 134.791C185.582 134.583 185.447 134.397 185.275 134.247C184.571 133.674 183.44 133.86 182.615 134.224L181.903 134.539L183.267 124.93L184.119 125.043L182.959 133.216C184.08 132.898 185.118 133.035 185.83 133.614C186.103 133.844 186.317 134.132 186.456 134.454C186.594 134.777 186.654 135.127 186.629 135.475C186.604 135.966 186.468 136.446 186.23 136.88C185.993 137.315 185.659 137.694 185.254 137.992C183.892 138.951 182.123 138.999 180.702 139.037Z" fill="#2F2E41"/>
<path d="M178.347 125.747H173.717V126.576H178.347V125.747Z" fill="#2F2E41"/>
<path d="M186.611 177.353L176.354 167.32C174.874 165.872 172.858 165.049 170.749 165.034C168.639 165.018 166.61 165.811 165.108 167.238C163.605 168.664 162.752 170.608 162.736 172.641C162.72 174.674 163.542 176.63 165.022 178.078L175.279 188.111C175.731 188.554 176.327 188.832 176.967 188.899C177.608 188.966 178.252 188.818 178.792 188.479C178.952 188.384 179.1 188.271 179.231 188.141L186.58 181.163C186.84 180.919 187.047 180.627 187.19 180.305C187.406 179.813 187.467 179.27 187.364 178.745C187.261 178.22 186.999 177.735 186.611 177.353Z" fill="#2F2E41"/>
<path d="M174.925 239.171H168.581C167.84 239.172 167.13 239.456 166.606 239.961C166.082 240.466 165.787 241.15 165.787 241.864V279.987C165.787 280.701 166.082 281.386 166.606 281.891C167.13 282.396 167.84 282.68 168.581 282.681H174.925C175.292 282.681 175.655 282.611 175.994 282.476C176.333 282.34 176.641 282.142 176.901 281.892C177.16 281.642 177.366 281.345 177.506 281.018C177.647 280.691 177.719 280.341 177.719 279.987V241.864C177.719 241.511 177.647 241.16 177.506 240.834C177.366 240.507 177.16 240.21 176.901 239.96C176.641 239.71 176.333 239.511 175.994 239.376C175.655 239.241 175.292 239.171 174.925 239.171Z" fill="#6C63FF"/>
<path d="M165.362 252.286C163.331 252.286 161.579 251.074 161.268 249.329L154.835 213.277C154.754 212.787 154.785 212.284 154.926 211.806C155.067 211.328 155.315 210.886 155.653 210.51C156.378 209.684 157.386 209.136 158.495 208.964L167.782 207.424C170.155 207.031 172.373 208.326 172.727 210.311L179.159 246.363C179.241 246.853 179.21 247.355 179.069 247.833C178.928 248.311 178.681 248.753 178.344 249.129C177.618 249.956 176.609 250.505 175.499 250.676L166.212 252.215C165.931 252.262 165.647 252.286 165.362 252.286Z" fill="#CCCCCC"/>
<path d="M174.792 162.277C173.699 161.078 172.427 160.043 171.018 159.205C167.978 157.426 164.486 156.492 160.93 156.507C157.373 156.522 153.89 157.485 150.867 159.29C149.663 160.023 148.561 160.9 147.587 161.9C145.049 164.44 143.618 167.821 143.589 171.347V211.234C143.587 211.356 143.599 211.477 143.624 211.597C143.826 212.838 145.085 213.797 146.598 213.797H175.428C177.083 213.797 178.437 212.648 178.437 211.234V171.347C178.415 167.995 177.118 164.768 174.792 162.277Z" fill="#2F2E41"/>
<path d="M166.445 131.001C163.395 131.978 159.971 129.97 159.777 126.808C159.722 126.074 159.837 125.338 160.114 124.652C160.39 123.966 160.822 123.349 161.378 122.844C162.401 122.002 163.656 121.466 164.99 121.301C167.886 120.817 170.863 121.21 173.772 120.793C176.706 120.371 179.293 118.911 180.579 116.254C181.195 114.95 181.52 113.536 181.533 112.104C181.546 110.671 181.246 109.252 180.653 107.938C179.318 104.996 176.7 102.755 173.815 101.247C168.263 98.3443 161.599 97.7726 155.482 99.0602C149.338 100.318 143.797 103.498 139.723 108.106C139.235 108.672 138.773 109.258 138.337 109.863C138.28 109.957 138.251 110.064 138.251 110.173C138.251 110.282 138.28 110.39 138.337 110.484C138.393 110.579 138.474 110.657 138.572 110.712C138.669 110.767 138.78 110.797 138.893 110.798L142.665 110.36L142.108 109.425L138.009 116.528C137.757 116.965 138.185 117.642 138.737 117.441L144.748 115.258L144.121 114.219L138.155 121.221C137.632 121.834 138.539 122.719 139.067 122.1L145.033 115.098C145.395 114.673 145.072 113.817 144.406 114.059L138.394 116.243L139.123 117.156L143.221 110.053C143.436 109.682 143.175 109.058 142.665 109.117L138.893 109.555L139.45 110.49C142.973 105.627 148.377 102.201 154.277 100.628C160.199 99.0487 166.791 99.3018 172.363 101.923C175.307 103.308 178 105.388 179.414 108.298C180.018 109.558 180.305 110.937 180.253 112.324C180.2 113.711 179.808 115.066 179.11 116.28C175.875 121.604 168.332 118.868 163.285 120.418C160.406 121.303 158.339 123.744 158.482 126.734C158.565 128.25 159.232 129.681 160.353 130.747C161.474 131.813 162.967 132.437 164.541 132.497C165.302 132.533 166.064 132.433 166.788 132.2C167.572 131.949 167.236 130.748 166.445 131.001Z" fill="#2F2E41"/>
<path d="M116.973 316.847C109.237 316.847 101.674 314.636 95.2413 310.493C88.8086 306.35 83.795 300.461 80.8344 293.572C77.8738 286.682 77.0992 279.101 78.6085 271.787C80.1178 264.473 83.8432 257.755 89.3137 252.482C94.7842 247.209 101.754 243.618 109.342 242.163C116.93 240.708 124.795 241.455 131.942 244.308C139.09 247.162 145.199 251.995 149.497 258.195C153.795 264.396 156.089 271.685 156.089 279.143C156.078 289.139 151.953 298.723 144.619 305.791C137.286 312.86 127.344 316.836 116.973 316.847ZM116.973 242.267C109.407 242.267 102.01 244.43 95.7189 248.482C89.4276 252.534 84.5242 258.293 81.6287 265.031C78.7331 271.769 77.9755 279.184 79.4517 286.337C80.9278 293.49 84.5714 300.061 89.9216 305.218C95.2719 310.375 102.089 313.887 109.51 315.31C116.931 316.733 124.623 316.003 131.613 313.212C138.604 310.421 144.578 305.694 148.782 299.63C152.986 293.566 155.23 286.436 155.23 279.143C155.218 269.366 151.184 259.993 144.012 253.08C136.84 246.167 127.116 242.278 116.973 242.267Z" fill="#2F2E41"/>
<path d="M238.19 316.847C230.454 316.847 222.891 314.636 216.458 310.493C210.026 306.35 205.012 300.461 202.052 293.572C199.091 286.682 198.316 279.101 199.826 271.787C201.335 264.473 205.06 257.755 210.531 252.482C216.001 247.209 222.971 243.618 230.559 242.163C238.147 240.708 246.012 241.455 253.159 244.308C260.307 247.162 266.416 251.995 270.714 258.195C275.012 264.396 277.306 271.685 277.306 279.143C277.295 289.139 273.17 298.723 265.837 305.791C258.503 312.86 248.561 316.836 238.19 316.847ZM238.19 242.267C230.624 242.267 223.227 244.43 216.936 248.482C210.645 252.534 205.741 258.293 202.846 265.031C199.95 271.769 199.193 279.184 200.669 286.337C202.145 293.49 205.789 300.061 211.139 305.218C216.489 310.375 223.306 313.887 230.727 315.31C238.148 316.733 245.84 316.003 252.83 313.212C259.821 310.421 265.796 305.694 269.999 299.63C274.203 293.566 276.447 286.436 276.447 279.143C276.435 269.366 272.401 259.993 265.229 253.08C258.057 246.167 248.333 242.278 238.19 242.267Z" fill="#2F2E41"/>
</svg>
