<svg width="48" height="48" viewBox="0 0 48 48" fill="none" xmlns="http://www.w3.org/2000/svg">
<path d="M13 32.0769C14.7462 32.0769 16.4443 32.2775 18.0943 32.6788C19.7443 33.0801 21.3795 33.7333 23 34.6384V15.0154C21.5564 13.9846 19.9654 13.2115 18.2269 12.6961C16.4885 12.1808 14.7462 11.9231 13 11.9231C11.8 11.9231 10.7494 11.9949 9.84805 12.1384C8.94678 12.282 7.94615 12.5487 6.84615 12.9384C6.53845 13.041 6.3205 13.1884 6.1923 13.3807C6.0641 13.5731 6 13.7846 6 14.0154V32.0461C6 32.4051 6.1282 32.6679 6.3846 32.8346C6.64103 33.0013 6.92308 33.0205 7.23075 32.8923C7.96152 32.6462 8.80575 32.4487 9.76345 32.3C10.7211 32.1513 11.8 32.0769 13 32.0769ZM25 34.6384C26.6205 33.7333 28.2558 33.0801 29.9058 32.6788C31.5557 32.2775 33.2538 32.0769 35 32.0769C36.2 32.0769 37.2789 32.1513 38.2366 32.3C39.1943 32.4487 40.0385 32.6462 40.7693 32.8923C41.0769 33.0205 41.359 33.0013 41.6154 32.8346C41.8718 32.6679 42 32.4051 42 32.0461V14.0154C42 13.7846 41.9359 13.5795 41.8077 13.4C41.6795 13.2205 41.4616 13.0666 41.1539 12.9384C40.0539 12.5487 39.0532 12.282 38.152 12.1384C37.2507 11.9949 36.2 11.9231 35 11.9231C33.2538 11.9231 31.5115 12.1808 29.7731 12.6961C28.0346 13.2115 26.4436 13.9846 25 15.0154V34.6384ZM24 36.9115C23.6872 36.9115 23.3993 36.8724 23.1365 36.7942C22.8737 36.716 22.6231 36.6154 22.3846 36.4923C20.9308 35.7 19.4167 35.0994 17.8423 34.6904C16.2679 34.2814 14.6538 34.0769 13 34.0769C11.959 34.0769 10.9365 34.1641 9.9327 34.3385C8.92883 34.5128 7.95127 34.7923 7 35.1769C6.27437 35.4667 5.59295 35.3795 4.95575 34.9154C4.31858 34.4513 4 33.8103 4 32.9923V13.6615C4 13.1666 4.13012 12.7077 4.39035 12.2846C4.65062 11.8615 5.01537 11.5667 5.4846 11.4C6.65897 10.882 7.88077 10.5064 9.15 10.273C10.4192 10.0397 11.7026 9.92303 13 9.92303C14.959 9.92303 16.8699 10.2051 18.7327 10.7692C20.5955 11.3333 22.3513 12.1538 24 13.2307C25.6487 12.1538 27.4045 11.3333 29.2673 10.7692C31.1301 10.2051 33.041 9.92303 35 9.92303C36.2974 9.92303 37.5808 10.0397 38.85 10.273C40.1192 10.5064 41.341 10.882 42.5154 11.4C42.9846 11.5667 43.3494 11.8615 43.6096 12.2846C43.8699 12.7077 44 13.1666 44 13.6615V32.9923C44 33.8103 43.6558 34.4385 42.9673 34.8769C42.2789 35.3154 41.5462 35.3898 40.7693 35.1C39.8436 34.741 38.8981 34.4808 37.9327 34.3192C36.9673 34.1577 35.9897 34.0769 35 34.0769C33.3462 34.0769 31.7321 34.2814 30.1577 34.6904C28.5833 35.0994 27.0692 35.7 25.6154 36.4923C25.3769 36.6154 25.1263 36.716 24.8635 36.7942C24.6007 36.8724 24.3128 36.9115 24 36.9115ZM27.7693 17.8961C27.7693 17.75 27.8199 17.6019 27.9211 17.4519C28.0224 17.3019 28.1423 17.1897 28.2808 17.1154C29.2987 16.6538 30.3744 16.3013 31.5077 16.0577C32.641 15.8141 33.8051 15.6923 35 15.6923C35.641 15.6923 36.2481 15.7275 36.8211 15.798C37.3942 15.8686 37.9846 15.9705 38.5923 16.1038C38.7641 16.1449 38.9135 16.2346 39.0404 16.373C39.1673 16.5115 39.2308 16.6833 39.2308 16.8884C39.2308 17.2243 39.1307 17.4679 38.9308 17.6192C38.7308 17.7705 38.4628 17.8051 38.1269 17.7231C37.6346 17.6231 37.1301 17.5545 36.6134 17.5173C36.0968 17.4801 35.559 17.4615 35 17.4615C33.9282 17.4615 32.8795 17.5641 31.8539 17.7692C30.8282 17.9744 29.8551 18.2615 28.9346 18.6307C28.591 18.7615 28.3109 18.7577 28.0943 18.6192C27.8776 18.4808 27.7693 18.2397 27.7693 17.8961ZM27.7693 28.7423C27.7693 28.5961 27.8199 28.4416 27.9211 28.2788C28.0224 28.116 28.1423 27.9974 28.2808 27.923C29.2474 27.4615 30.3231 27.1154 31.5077 26.8846C32.6923 26.6538 33.8564 26.5384 35 26.5384C35.641 26.5384 36.2481 26.5737 36.8211 26.6442C37.3942 26.7147 37.9846 26.8167 38.5923 26.95C38.7641 26.991 38.9135 27.0808 39.0404 27.2192C39.1673 27.3577 39.2308 27.5295 39.2308 27.7346C39.2308 28.0705 39.1307 28.3141 38.9308 28.4654C38.7308 28.6167 38.4628 28.6513 38.1269 28.5692C37.6346 28.4692 37.1301 28.4006 36.6134 28.3634C36.0968 28.3263 35.559 28.3077 35 28.3077C33.9538 28.3077 32.9244 28.4147 31.9116 28.6288C30.8987 28.8429 29.9321 29.1474 29.0116 29.5423C28.668 29.6987 28.375 29.6968 28.1327 29.5365C27.8904 29.3763 27.7693 29.1115 27.7693 28.7423ZM27.7693 23.3577C27.7693 23.2115 27.8199 23.0634 27.9211 22.9134C28.0224 22.7634 28.1423 22.6513 28.2808 22.5769C29.2987 22.1154 30.3744 21.7628 31.5077 21.5192C32.641 21.2756 33.8051 21.1538 35 21.1538C35.641 21.1538 36.2481 21.1891 36.8211 21.2596C37.3942 21.3301 37.9846 21.4321 38.5923 21.5654C38.7641 21.6064 38.9135 21.6961 39.0404 21.8346C39.1673 21.9731 39.2308 22.1449 39.2308 22.35C39.2308 22.6859 39.1307 22.9295 38.9308 23.0807C38.7308 23.232 38.4628 23.2667 38.1269 23.1846C37.6346 23.0846 37.1301 23.016 36.6134 22.9788C36.0968 22.9417 35.559 22.9231 35 22.9231C33.9282 22.9231 32.8795 23.0256 31.8539 23.2307C30.8282 23.4359 29.8551 23.7231 28.9346 24.0923C28.591 24.2231 28.3109 24.2192 28.0943 24.0807C27.8776 23.9423 27.7693 23.7013 27.7693 23.3577Z" fill="white"/>
</svg>
