<svg width="726" height="337" viewBox="0 0 726 337" fill="none" xmlns="http://www.w3.org/2000/svg">
<path d="M289.459 13.2983H710.194C714.127 13.3019 717.897 14.869 720.678 17.6555C723.458 20.4421 725.022 24.2205 725.025 28.1612V73.5322C725.022 77.473 723.458 81.2514 720.678 84.0379C717.897 86.8245 714.127 88.3915 710.194 88.3951H289.459C285.527 88.3915 281.757 86.8245 278.976 84.0379C276.196 81.2514 274.632 77.473 274.628 73.5322V28.1612C274.632 24.2205 276.196 20.4421 278.976 17.6555C281.757 14.869 285.527 13.3019 289.459 13.2983ZM276.189 73.5322C276.194 77.0576 277.594 80.4372 280.082 82.9301C282.569 85.4229 285.941 86.8256 289.459 86.8306H710.194C713.712 86.8256 717.085 85.4229 719.572 82.9301C722.06 80.4372 723.459 77.0576 723.464 73.5322V28.1612C723.459 24.6358 722.06 21.2562 719.572 18.7634C717.085 16.2705 713.712 14.8678 710.194 14.8629H289.459C285.941 14.8678 282.569 16.2705 280.082 18.7634C277.594 21.2562 276.194 24.6358 276.189 28.1612V73.5322Z" fill="#3F3D56"/>
<path d="M289.459 195.565H710.194C714.126 195.56 717.896 193.993 720.677 191.206C723.457 188.42 725.021 184.642 725.025 180.702V135.331C725.021 131.39 723.457 127.612 720.677 124.826C717.896 122.04 714.126 120.472 710.194 120.468H289.459C285.527 120.472 281.758 122.04 278.977 124.826C276.197 127.612 274.633 131.39 274.628 135.331V180.702C274.633 184.642 276.197 188.42 278.977 191.206C281.758 193.993 285.527 195.56 289.459 195.565ZM710.194 122.032C713.712 122.036 717.085 123.439 719.573 125.932C722.061 128.425 723.46 131.805 723.464 135.331V180.702C723.46 184.227 722.061 187.608 719.573 190.101C717.085 192.594 713.712 193.996 710.194 194H289.459C285.941 193.996 282.568 192.594 280.08 190.101C277.593 187.608 276.193 184.227 276.189 180.702V135.331C276.193 131.805 277.593 128.425 280.08 125.932C282.568 123.439 285.941 122.036 289.459 122.032H710.194Z" fill="#3F3D56"/>
<path d="M289.459 302.734H710.194C714.126 302.729 717.896 301.162 720.677 298.376C723.457 295.589 725.021 291.811 725.025 287.871V242.5C725.021 238.559 723.457 234.782 720.677 231.995C717.896 229.209 714.126 227.642 710.194 227.637H289.459C285.527 227.642 281.758 229.209 278.977 231.995C276.197 234.782 274.633 238.559 274.628 242.5V287.871C274.633 291.811 276.197 295.589 278.977 298.376C281.758 301.162 285.527 302.729 289.459 302.734ZM710.194 229.202C713.712 229.206 717.085 230.608 719.573 233.101C722.061 235.594 723.46 238.974 723.464 242.5V287.871C723.46 291.397 722.061 294.777 719.573 297.27C717.085 299.763 713.712 301.165 710.194 301.169H289.459C285.941 301.165 282.568 299.763 280.08 297.27C277.593 294.777 276.193 291.397 276.189 287.871V242.5C276.193 238.974 277.593 235.594 280.08 233.101C282.568 230.608 285.941 229.206 289.459 229.202H710.194Z" fill="#3F3D56"/>
<path d="M640.855 76.2701H665.833C669.248 76.2662 672.522 74.9051 674.936 72.4854C677.351 70.0657 678.709 66.7849 678.713 63.3629V38.3306C678.709 34.9086 677.351 31.6278 674.936 29.2081C672.522 26.7883 669.248 25.4272 665.833 25.4233H640.855C637.44 25.4272 634.166 26.7883 631.752 29.2081C629.337 31.6278 627.979 34.9086 627.975 38.3306V63.3629C627.979 66.7849 629.337 70.0657 631.752 72.4854C634.166 74.9051 637.44 76.2662 640.855 76.2701Z" fill="#6C63FF"/>
<path d="M327.576 71.9678H603.122C604.778 71.9678 606.367 71.3085 607.538 70.1348C608.709 68.9612 609.367 67.3695 609.367 65.7097C609.367 64.05 608.709 62.4582 607.538 61.2846C606.367 60.111 604.778 59.4517 603.122 59.4517H327.576C325.92 59.4517 324.331 60.111 323.16 61.2846C321.989 62.4582 321.331 64.05 321.331 65.7097C321.331 67.3695 321.989 68.9612 323.16 70.1348C324.331 71.3085 325.92 71.9678 327.576 71.9678Z" fill="#CCCCCC"/>
<path d="M417.343 45.371H603.122C604.778 45.371 606.367 44.7117 607.538 43.538C608.709 42.3644 609.367 40.7727 609.367 39.1129C609.367 37.4532 608.709 35.8614 607.538 34.6878C606.367 33.5142 604.778 32.8549 603.122 32.8549H417.343C415.687 32.8549 414.098 33.5142 412.927 34.6878C411.756 35.8614 411.098 37.4532 411.098 39.1129C411.098 40.7727 411.756 42.3644 412.927 43.538C414.098 44.7117 415.687 45.371 417.343 45.371Z" fill="#CCCCCC"/>
<path d="M640.855 183.44H665.833C669.248 183.436 672.522 182.075 674.936 179.655C677.351 177.235 678.709 173.954 678.713 170.532V145.5C678.709 142.078 677.351 138.797 674.936 136.377C672.522 133.958 669.248 132.597 665.833 132.593H640.855C637.44 132.597 634.166 133.958 631.752 136.377C629.337 138.797 627.979 142.078 627.975 145.5V170.532C627.979 173.954 629.337 177.235 631.752 179.655C634.166 182.075 637.44 183.436 640.855 183.44Z" fill="#6C63FF"/>
<path d="M327.576 179.137H603.122C604.778 179.137 606.367 178.478 607.538 177.304C608.709 176.131 609.367 174.539 609.367 172.879C609.367 171.219 608.709 169.628 607.538 168.454C606.367 167.28 604.778 166.621 603.122 166.621H327.576C325.92 166.621 324.331 167.28 323.16 168.454C321.989 169.628 321.331 171.219 321.331 172.879C321.331 174.539 321.989 176.131 323.16 177.304C324.331 178.478 325.92 179.137 327.576 179.137Z" fill="#CCCCCC"/>
<path d="M417.343 152.54H603.122C604.778 152.54 606.367 151.881 607.538 150.707C608.709 149.534 609.367 147.942 609.367 146.282C609.367 144.622 608.709 143.031 607.538 141.857C606.367 140.683 604.778 140.024 603.122 140.024H417.343C415.687 140.024 414.098 140.683 412.927 141.857C411.756 143.031 411.098 144.622 411.098 146.282C411.098 147.942 411.756 149.534 412.927 150.707C414.098 151.881 415.687 152.54 417.343 152.54Z" fill="#CCCCCC"/>
<path d="M640.855 290.609H665.833C669.248 290.605 672.522 289.244 674.936 286.824C677.351 284.404 678.709 281.124 678.713 277.702V252.669C678.709 249.247 677.351 245.967 674.936 243.547C672.522 241.127 669.248 239.766 665.833 239.762H640.855C637.44 239.766 634.166 241.127 631.752 243.547C629.337 245.967 627.979 249.247 627.975 252.669V277.702C627.979 281.124 629.337 284.404 631.752 286.824C634.166 289.244 637.44 290.605 640.855 290.609Z" fill="#6C63FF"/>
<path d="M327.576 286.306H603.122C604.778 286.306 606.367 285.647 607.538 284.473C608.709 283.3 609.367 281.708 609.367 280.048C609.367 278.389 608.709 276.797 607.538 275.623C606.367 274.45 604.778 273.79 603.122 273.79H327.576C325.92 273.79 324.331 274.45 323.16 275.623C321.989 276.797 321.331 278.389 321.331 280.048C321.331 281.708 321.989 283.3 323.16 284.473C324.331 285.647 325.92 286.306 327.576 286.306Z" fill="#CCCCCC"/>
<path d="M417.343 259.71H603.122C604.778 259.71 606.367 259.05 607.538 257.877C608.709 256.703 609.367 255.111 609.367 253.452C609.367 251.792 608.709 250.2 607.538 249.027C606.367 247.853 604.778 247.194 603.122 247.194H417.343C415.687 247.194 414.098 247.853 412.927 249.027C411.756 250.2 411.098 251.792 411.098 253.452C411.098 255.111 411.756 256.703 412.927 257.877C414.098 259.05 415.687 259.71 417.343 259.71Z" fill="#CCCCCC"/>
<path d="M280.092 35.9839C270.177 35.9839 262.139 27.9286 262.139 17.9919C262.139 8.05526 270.177 0 280.092 0C290.008 0 298.046 8.05526 298.046 17.9919C298.046 27.9286 290.008 35.9839 280.092 35.9839Z" fill="#3F3D56"/>
<path d="M273.067 25.4233C273.17 25.4234 273.271 25.4032 273.366 25.3639C273.461 25.3246 273.547 25.2669 273.619 25.1941L287.67 11.1135C287.816 10.9668 287.898 10.7678 287.898 10.5604C287.898 10.3529 287.816 10.154 287.67 10.0073C287.523 9.86061 287.325 9.7782 287.118 9.7782C286.911 9.7782 286.712 9.86061 286.566 10.0073L272.515 24.0879C272.406 24.1973 272.332 24.3367 272.302 24.4884C272.272 24.6401 272.287 24.7974 272.346 24.9403C272.405 25.0833 272.505 25.2054 272.634 25.2914C272.762 25.3773 272.913 25.4233 273.067 25.4233Z" fill="white"/>
<path d="M287.118 25.4236C287.272 25.4236 287.423 25.3777 287.551 25.2917C287.68 25.2058 287.78 25.0836 287.839 24.9407C287.898 24.7978 287.913 24.6405 287.883 24.4888C287.853 24.3371 287.779 24.1977 287.67 24.0883L273.619 10.0077C273.547 9.93503 273.461 9.87741 273.366 9.8381C273.271 9.79879 273.17 9.77856 273.067 9.77856C272.965 9.77856 272.863 9.79879 272.769 9.8381C272.674 9.87741 272.588 9.93503 272.515 10.0077C272.443 10.0803 272.385 10.1665 272.346 10.2614C272.307 10.3563 272.287 10.458 272.287 10.5607C272.287 10.6635 272.307 10.7652 272.346 10.8601C272.385 10.955 272.443 11.0412 272.515 11.1138L286.566 25.1945C286.638 25.2672 286.724 25.3249 286.819 25.3643C286.914 25.4036 287.015 25.4238 287.118 25.4236Z" fill="white"/>
<path d="M99.3794 114.437C76.307 114.437 57.6031 95.6934 57.6031 72.5716C57.6031 49.4497 76.307 30.7058 99.3794 30.7058C122.452 30.7058 141.156 49.4497 141.156 72.5716C141.156 95.6934 122.452 114.437 99.3794 114.437Z" fill="#6C63FF"/>
<path d="M96.3094 331.378V235.149C96.3078 233.801 95.7728 232.509 94.8216 231.555C93.8704 230.602 92.5808 230.066 91.2356 230.064H79.7147C78.3696 230.066 77.0799 230.602 76.1287 231.555C75.1775 232.509 74.6425 233.801 74.6409 235.149V331.378C74.6425 332.726 75.1775 334.019 76.1287 334.972C77.0799 335.925 78.3696 336.461 79.7147 336.463H91.2356C92.5808 336.461 93.8704 335.925 94.8216 334.972C95.7728 334.019 96.3078 332.726 96.3094 331.378Z" fill="#2F2E41"/>
<path d="M120.658 331.378V235.149C120.656 233.801 120.121 232.509 119.17 231.555C118.219 230.602 116.929 230.066 115.584 230.064H104.063C102.718 230.066 101.428 230.602 100.477 231.555C99.5258 232.509 98.9907 233.801 98.9892 235.149V331.378C98.9907 332.726 99.5258 334.019 100.477 334.972C101.428 335.925 102.718 336.461 104.063 336.463H115.584C116.929 336.461 118.219 335.925 119.17 334.972C120.121 334.019 120.656 332.726 120.658 331.378Z" fill="#2F2E41"/>
<path d="M72.7306 246.462H125.079C126.527 246.461 127.916 245.883 128.94 244.857C129.965 243.83 130.541 242.438 130.543 240.987V155.764C130.543 147.355 127.209 139.291 121.276 133.345C115.343 127.399 107.295 124.058 98.9045 124.058C90.5136 124.058 82.4664 127.399 76.5331 133.345C70.5998 139.291 67.2665 147.355 67.2665 155.764V240.987C67.2682 242.438 67.8445 243.83 68.8688 244.857C69.8932 245.883 71.282 246.461 72.7306 246.462Z" fill="#2F2E41"/>
<path d="M134.658 91.0784L134.615 89.5139C137.519 89.4329 140.08 89.2503 142.004 87.8416C142.549 87.4195 142.998 86.8847 143.318 86.2735C143.639 85.6622 143.825 84.9889 143.863 84.2993C143.896 83.878 143.833 83.4545 143.677 83.0618C143.521 82.6691 143.276 82.3177 142.963 82.035C141.685 80.9541 139.63 81.304 138.132 81.9923L136.841 82.5858L139.318 64.4449L140.865 64.6573L138.758 80.0886C140.793 79.4889 142.679 79.7471 143.97 80.8403C144.466 81.2742 144.856 81.8172 145.107 82.4268C145.359 83.0363 145.467 83.6961 145.423 84.3543C145.377 85.2808 145.13 86.1862 144.698 87.0068C144.267 87.8275 143.661 88.5437 142.925 89.1052C140.452 90.9157 137.24 91.0058 134.658 91.0784Z" fill="#2F2E41"/>
<path d="M121.974 65.988H130.382V67.5526H121.974V65.988Z" fill="#2F2E41"/>
<path d="M82.8529 240.927C83.3447 240.476 83.7424 239.932 84.0227 239.326C84.3031 238.72 84.4606 238.064 84.4862 237.396L88.4637 141.251C88.4914 140.584 88.3876 139.918 88.1584 139.291C87.9291 138.664 87.5789 138.088 87.1277 137.597C86.6765 137.106 86.1331 136.708 85.5286 136.427C84.9241 136.146 84.2704 135.988 83.6046 135.96L72.0932 135.481C70.7491 135.427 69.4384 135.909 68.4487 136.822C67.4589 137.735 66.8711 139.004 66.8141 140.351L62.8364 236.498C62.7823 237.845 63.2635 239.158 64.1745 240.15C65.0855 241.142 66.3518 241.731 67.6958 241.788L79.2067 242.266C79.5737 242.282 79.9413 242.258 80.3032 242.195C81.257 242.027 82.1423 241.587 82.8529 240.927Z" fill="#6C63FF"/>
<path d="M68.1637 175.855H86.8978C88.2429 175.853 89.5326 175.317 90.4838 174.364C91.435 173.411 91.97 172.118 91.9716 170.77V144.173C91.9716 140.335 90.4501 136.654 87.7419 133.94C85.0338 131.226 81.3607 129.702 77.5307 129.702C73.7008 129.702 70.0277 131.226 67.3195 133.94C64.6114 136.654 63.0899 140.335 63.0899 144.173V170.77C63.0915 172.118 63.6265 173.411 64.5777 174.364C65.5289 175.317 66.8186 175.853 68.1637 175.855Z" fill="#2F2E41"/>
<path d="M188.468 211.485L195.812 202.59C196.669 201.55 197.079 200.213 196.952 198.871C196.826 197.529 196.173 196.292 195.138 195.431L121.153 134.089C120.116 133.23 118.781 132.819 117.442 132.946C116.103 133.073 114.868 133.727 114.01 134.765L106.666 143.661C106.241 144.176 105.922 144.769 105.726 145.407C105.53 146.046 105.461 146.716 105.524 147.381C105.586 148.046 105.779 148.692 106.091 149.282C106.403 149.872 106.827 150.395 107.341 150.82L181.324 212.162C182.215 212.9 183.331 213.311 184.487 213.328C185.643 213.345 186.77 212.966 187.682 212.254C187.971 212.027 188.234 211.769 188.468 211.485Z" fill="#6C63FF"/>
<path d="M133.908 171.531L145.776 157.004C146.627 155.96 147.03 154.62 146.896 153.279C146.763 151.938 146.104 150.704 145.064 149.849L124.528 133.001C123.061 131.796 121.371 130.894 119.555 130.344C117.74 129.794 115.834 129.608 113.947 129.796C112.059 129.984 110.228 130.544 108.556 131.441C106.884 132.339 105.405 133.559 104.204 135.029C103.003 136.5 102.102 138.193 101.554 140.013C101.005 141.833 100.82 143.743 101.008 145.634C101.197 147.525 101.755 149.361 102.652 151.036C103.548 152.711 104.765 154.193 106.233 155.396L126.768 172.245C127.81 173.097 129.147 173.501 130.486 173.367C131.824 173.234 133.055 172.573 133.908 171.531Z" fill="#2F2E41"/>
<path d="M184.325 175.064L184.536 175.249L189.581 169.472C189.965 169.033 190.431 168.673 190.953 168.415C191.475 168.156 192.043 168.003 192.624 167.965C193.205 167.926 193.788 168.002 194.339 168.189C194.891 168.376 195.4 168.67 195.838 169.055L208.052 179.767C208.937 180.544 209.478 181.64 209.556 182.816C209.634 183.992 209.242 185.151 208.468 186.038L180.787 217.731C180.404 218.17 179.938 218.529 179.416 218.788C178.894 219.046 178.326 219.199 177.745 219.238C177.164 219.277 176.581 219.2 176.03 219.013C175.478 218.826 174.969 218.532 174.53 218.148L162.317 207.435C161.432 206.659 160.891 205.562 160.813 204.386C160.735 203.211 161.126 202.052 161.901 201.165L180.944 179.361L180.734 179.176L184.325 175.064Z" fill="#3F3D56"/>
<path d="M194.489 170.9L196.009 172.234C195.789 172.344 195.6 172.507 195.458 172.709C195.315 172.91 195.224 173.143 195.193 173.388C195.162 173.632 195.191 173.881 195.278 174.111C195.366 174.342 195.508 174.547 195.693 174.71L202.367 180.564C202.552 180.726 202.775 180.841 203.014 180.897C203.254 180.953 203.504 180.949 203.741 180.885C203.979 180.822 204.198 180.701 204.378 180.533C204.558 180.365 204.694 180.155 204.774 179.922L206.195 181.168C206.507 181.442 206.762 181.774 206.946 182.147C207.129 182.519 207.238 182.925 207.266 183.339C207.293 183.754 207.239 184.17 207.106 184.564C206.973 184.958 206.764 185.321 206.491 185.634L180.127 215.82C179.575 216.452 178.795 216.838 177.959 216.894C177.124 216.95 176.3 216.67 175.67 216.117L163.964 205.85C163.334 205.297 162.948 204.516 162.893 203.678C162.837 202.841 163.116 202.015 163.668 201.383L190.032 171.197C190.584 170.566 191.363 170.179 192.199 170.124C193.035 170.068 193.858 170.347 194.489 170.9Z" fill="white"/>
<path d="M88.9057 79.66C86.7303 76.0179 85.0278 72.0051 85.8359 67.6898C86.5575 63.8365 89.3247 60.8355 93.3036 60.4417C95.6997 60.2045 98.0844 60.8455 100.425 61.263C102.343 61.6007 104.293 61.7273 106.238 61.6404C110.154 61.4621 113.992 60.4868 117.519 58.7741C121.099 57.0952 124.279 54.6675 126.845 51.6543C129.41 48.6412 131.303 45.1124 132.394 41.3052C134.768 32.6427 133.005 22.8059 127.367 15.7546L129.324 15.2369L126.776 23.626C126.726 23.7981 126.638 23.9566 126.518 24.0897C126.399 24.2228 126.251 24.3269 126.085 24.3944C125.92 24.4619 125.741 24.4909 125.563 24.4793C125.384 24.4677 125.211 24.4157 125.056 24.3273C120.438 21.4031 115.275 19.4496 109.881 18.5853C104.486 17.7211 98.9733 17.964 93.6757 19.2995C90.6822 20.0532 87.791 21.1677 85.0651 22.6185C83.735 23.3272 82.5505 21.3021 83.8831 20.5921C89.003 17.9155 94.6115 16.3076 100.369 15.8656C106.127 15.4235 111.915 16.1566 117.382 18.0204C120.495 19.0839 123.469 20.5212 126.238 22.3009L124.518 23.0022L127.066 14.613C127.122 14.4169 127.229 14.2388 127.375 14.0961C127.521 13.9535 127.701 13.8511 127.898 13.799C128.095 13.7468 128.302 13.7467 128.499 13.7986C128.696 13.8505 128.877 13.9527 129.023 14.0952C131.645 17.4291 133.567 21.2605 134.673 25.3586C135.778 29.4567 136.045 33.7366 135.456 37.9406C134.886 42.0841 133.45 46.0603 131.24 49.6083C129.03 53.1564 126.096 56.1963 122.632 58.5287C119.171 60.8699 115.281 62.5 111.187 63.3247C107.093 64.1495 102.877 64.1524 98.7819 63.3334C96.4902 62.8919 93.8913 62.2599 91.6427 63.2216C90.8271 63.6158 90.1082 64.1852 89.537 64.8892C88.9658 65.5933 88.5563 66.4147 88.3377 67.2952C87.0634 71.6222 89.2316 75.7312 91.4463 79.329L88.9057 79.66Z" fill="#2F2E41"/>
<path d="M109.834 161.972L109.863 161.971C110.299 161.97 110.722 161.82 111.063 161.546C111.403 161.272 111.64 160.891 111.735 160.464L111.583 127.868C111.682 127.427 111.627 126.965 111.428 126.56C111.23 126.154 110.898 125.828 110.49 125.637C104.828 122.971 98.9772 122.613 92.6039 124.543C92.1163 124.688 91.7043 125.018 91.4556 125.462C91.2068 125.907 91.1409 126.431 91.2718 126.923L107.949 160.517C108.055 160.936 108.298 161.307 108.64 161.571C108.982 161.835 109.402 161.976 109.834 161.972Z" fill="#CCCCCC"/>
<path d="M0.806015 337H194.391C194.598 337 194.796 336.918 194.943 336.771C195.089 336.624 195.171 336.425 195.171 336.218C195.171 336.01 195.089 335.811 194.943 335.665C194.796 335.518 194.598 335.436 194.391 335.436H0.806015C0.598984 335.436 0.400406 335.518 0.254013 335.665C0.107635 335.811 0.0254211 336.01 0.0254211 336.218C0.0254211 336.425 0.107635 336.624 0.254013 336.771C0.400406 336.918 0.598984 337 0.806015 337Z" fill="#3F3D56"/>
<path d="M333 32H324V38.7407M324 38.7407H332M324 38.7407V46" stroke="#18AF4B" stroke-width="2"/>
<path d="M335 46V37.403C335 37.403 340 35.8305 340 38.8981V41.1574" stroke="#18AF4B" stroke-width="2"/>
<path d="M344 41H350.927C350.927 41 351.315 39.3766 350.301 38.1982C348.52 36.1275 345.607 37.1541 344.668 38.1982C344.062 38.8729 343.915 41.3998 344.042 43.4184C344.152 45.1584 345.213 45.5835 346.233 45.8545C347.346 46.15 348.749 46.2013 349.5 45.8545M349.5 45.8545C350.695 45.3025 351.5 44.5 351.5 44.5L349.5 45.8545Z" stroke="#18AF4B" stroke-width="2"/>
<path d="M355 41H361.927C361.927 41 362.315 39.3766 361.301 38.1982C359.52 36.1275 356.607 37.1541 355.668 38.1982C355.062 38.8729 354.915 41.3998 355.042 43.4184C355.152 45.1584 356.213 45.5835 357.233 45.8545C358.346 46.15 359.749 46.2013 360.5 45.8545M360.5 45.8545C361.695 45.3025 362.5 44.5 362.5 44.5L360.5 45.8545Z" stroke="#18AF4B" stroke-width="2"/>
<path d="M333 139H324V145.741M324 145.741H332M324 145.741V153" stroke="#18AF4B" stroke-width="2"/>
<path d="M335 153V144.403C335 144.403 340 142.83 340 145.898V148.157" stroke="#18AF4B" stroke-width="2"/>
<path d="M344 148H350.927C350.927 148 351.315 146.377 350.301 145.198C348.52 143.128 345.607 144.154 344.668 145.198C344.062 145.873 343.915 148.4 344.042 150.418C344.152 152.158 345.213 152.584 346.233 152.854C347.346 153.15 348.749 153.201 349.5 152.854M349.5 152.854C350.695 152.302 351.5 151.5 351.5 151.5L349.5 152.854Z" stroke="#18AF4B" stroke-width="2"/>
<path d="M355 148H361.927C361.927 148 362.315 146.377 361.301 145.198C359.52 143.128 356.607 144.154 355.668 145.198C355.062 145.873 354.915 148.4 355.042 150.418C355.152 152.158 356.213 152.584 357.233 152.854C358.346 153.15 359.749 153.201 360.5 152.854M360.5 152.854C361.695 152.302 362.5 151.5 362.5 151.5L360.5 152.854Z" stroke="#18AF4B" stroke-width="2"/>
<path d="M333 246H324V252.741M324 252.741H332M324 252.741V260" stroke="#18AF4B" stroke-width="2"/>
<path d="M335 260V251.403C335 251.403 340 249.83 340 252.898V255.157" stroke="#18AF4B" stroke-width="2"/>
<path d="M344 255H350.927C350.927 255 351.315 253.377 350.301 252.198C348.52 250.128 345.607 251.154 344.668 252.198C344.062 252.873 343.915 255.4 344.042 257.418C344.152 259.158 345.213 259.584 346.233 259.854C347.346 260.15 348.749 260.201 349.5 259.854M349.5 259.854C350.695 259.302 351.5 258.5 351.5 258.5L349.5 259.854Z" stroke="#18AF4B" stroke-width="2"/>
<path d="M355 255H361.927C361.927 255 362.315 253.377 361.301 252.198C359.52 250.128 356.607 251.154 355.668 252.198C355.062 252.873 354.915 255.4 355.042 257.418C355.152 259.158 356.213 259.584 357.233 259.854C358.346 260.15 359.749 260.201 360.5 259.854M360.5 259.854C361.695 259.302 362.5 258.5 362.5 258.5L360.5 259.854Z" stroke="#18AF4B" stroke-width="2"/>
</svg>
