<svg width="302" height="200" viewBox="0 0 302 200" fill="none" xmlns="http://www.w3.org/2000/svg">
<path d="M27.0292 176.94C28.891 177.595 30.8899 177.759 32.8334 177.416C34.7769 177.074 36.5995 176.237 38.1256 174.986C42.0122 171.723 43.2309 166.351 44.2222 161.374L47.1548 146.655L41.0151 150.883C36.5995 153.923 32.0847 157.061 29.0277 161.464C25.9707 165.868 24.637 171.88 27.0925 176.645" fill="#E5E5E5"/>
<path d="M27.9775 195.785C27.2047 190.155 26.4096 184.452 26.953 178.762C27.4345 173.708 28.9764 168.773 32.1154 164.725C33.7816 162.581 35.809 160.743 38.1065 159.296C38.7055 158.918 39.2569 159.867 38.6605 160.243C34.685 162.756 31.6101 166.466 29.8791 170.838C27.9673 175.701 27.6603 181.001 27.9896 186.167C28.1886 189.29 28.6116 192.393 29.0364 195.493C29.0699 195.633 29.049 195.781 28.9778 195.906C28.9066 196.031 28.7905 196.125 28.6529 196.168C28.5126 196.206 28.363 196.187 28.2366 196.115C28.1103 196.043 28.0169 195.925 27.9775 195.785Z" fill="#F1F1F1"/>
<path d="M33.5396 186.752C34.3379 187.965 35.4354 188.953 36.7264 189.62C38.0173 190.286 39.4582 190.609 40.9101 190.557C44.6422 190.38 47.7523 187.776 50.5518 185.303L58.8338 177.991L53.3527 177.729C49.4109 177.54 45.3674 177.363 41.613 178.58C37.8586 179.797 34.3961 182.721 33.7097 186.607" fill="#E5E5E5"/>
<path d="M25.7929 199.022C29.5133 192.439 33.8283 185.123 41.5391 182.785C43.6829 182.137 45.9309 181.905 48.1618 182.101C48.8651 182.161 48.6894 183.245 47.9877 183.185C44.2479 182.874 40.5154 183.862 37.4185 185.981C34.4383 188.01 32.1177 190.83 30.154 193.82C28.9509 195.652 27.8734 197.562 26.7958 199.469C26.4515 200.079 25.4446 199.638 25.7929 199.022Z" fill="#F1F1F1"/>
<path d="M110.534 67.9254V61.5986L149.258 42.1094L175.074 108.263L135.543 118.751L110.534 67.9254Z" fill="#3F3D56"/>
<path d="M175.785 109.934L148.9 45.7084L146.853 46.6713L146.053 44.7593L112.194 62.8471L112.233 62.9501L111.957 63.0801L114.803 69.7685L133.754 120.039L135.936 119.424L136.602 120.989L175.785 109.934Z" fill="#6C63FF"/>
<path d="M136.602 120.514L175.785 109.459L148.9 45.2339L111.957 62.6056L136.602 120.514Z" fill="black"/>
<path d="M157.931 101.698C157.399 101.444 156.946 101.05 156.619 100.56C156.291 100.07 156.102 99.5001 156.07 98.9112L155.705 91.9995C155.66 91.1303 155.962 90.2788 156.544 89.6317C157.126 88.9847 157.941 88.595 158.81 88.5481L216.418 85.5049C217.287 85.4599 218.138 85.7615 218.785 86.3436C219.432 86.9256 219.822 87.7406 219.869 88.6097L220.234 95.5216C220.279 96.3908 219.977 97.2422 219.395 97.8892C218.813 98.5362 217.998 98.9259 217.129 98.9728L159.522 102.016C158.973 102.046 158.426 101.937 157.931 101.698Z" fill="#6C63FF"/>
<path d="M197.643 101.834C197.083 101.563 196.611 101.139 196.282 100.61C195.952 100.082 195.78 99.4707 195.784 98.8481L195.716 85.8346C195.719 85.4033 195.807 84.9768 195.975 84.5795C196.143 84.1823 196.388 83.822 196.695 83.5194C197.003 83.2168 197.367 82.9777 197.767 82.8159C198.167 82.6541 198.594 82.5727 199.026 82.5763L225.306 84.8931C226.002 84.8973 226.88 85.9751 227.586 86.8403C227.808 87.1119 227.999 87.3464 228.139 87.4884C228.2 87.5506 228.258 87.6153 228.314 87.6813C228.816 88.2794 229.088 89.0371 229.081 89.818L229.023 96.7389C229.015 97.6092 228.662 98.4407 228.041 99.051C227.421 99.6613 226.584 100.001 225.713 99.9943L199.06 102.157C198.57 102.156 198.086 102.045 197.643 101.834Z" fill="#2F2E41"/>
<path d="M218.972 65.7256C232.833 65.7256 244.07 54.4888 244.07 40.6274C244.07 26.7661 232.833 15.5293 218.972 15.5293C205.111 15.5293 193.874 26.7661 193.874 40.6274C193.874 54.4888 205.111 65.7256 218.972 65.7256Z" fill="#6C63FF"/>
<path d="M214.08 200H207.158C206.288 199.999 205.453 199.653 204.838 199.037C204.223 198.422 203.876 197.588 203.875 196.717V138.091C203.876 137.221 204.223 136.387 204.838 135.771C205.453 135.156 206.288 134.81 207.158 134.809H214.08C214.95 134.81 215.784 135.156 216.4 135.771C217.015 136.387 217.361 137.221 217.362 138.091V196.717C217.361 197.588 217.015 198.422 216.4 199.037C215.784 199.653 214.95 199.999 214.08 200Z" fill="#6C63FF"/>
<path d="M232.336 200H225.415C224.545 199.999 223.71 199.653 223.095 199.037C222.479 198.422 222.133 197.588 222.132 196.717V138.091C222.133 137.221 222.479 136.387 223.095 135.771C223.71 135.156 224.545 134.81 225.415 134.809H232.336C233.207 134.81 234.041 135.156 234.657 135.771C235.272 136.387 235.618 137.221 235.619 138.091V196.717C235.618 197.588 235.272 198.422 234.657 199.037C234.041 199.653 233.207 199.999 232.336 200Z" fill="#6C63FF"/>
<path d="M205.03 49.9294L205.004 48.9914C206.749 48.9429 208.287 48.8335 209.443 47.989C209.771 47.736 210.04 47.4153 210.233 47.0489C210.425 46.6824 210.537 46.2788 210.56 45.8654C210.58 45.6128 210.542 45.3589 210.448 45.1235C210.354 44.8881 210.207 44.6774 210.019 44.508C209.252 43.86 208.017 44.0697 207.117 44.4824L206.341 44.8382L207.829 33.9629L208.758 34.0902L207.493 43.3411C208.715 42.9816 209.848 43.1364 210.624 43.7917C210.922 44.0519 211.156 44.3774 211.308 44.7428C211.459 45.1083 211.524 45.5038 211.497 45.8984C211.47 46.4538 211.321 46.9965 211.062 47.4885C210.803 47.9805 210.439 48.4099 209.996 48.7465C208.511 49.8318 206.581 49.8859 205.03 49.9294Z" fill="#2F2E41"/>
<path d="M218.405 34.8882H213.354V35.8261H218.405V34.8882Z" fill="#2F2E41"/>
<path d="M202.461 34.8882H197.41V35.8261H202.461V34.8882Z" fill="#2F2E41"/>
<path d="M247.566 124.211L224.401 78.0158H224.727C225.536 78.0149 226.31 77.6934 226.882 77.122C227.453 76.5505 227.775 75.7757 227.776 74.9676V74.0297C227.775 73.2215 227.453 72.4467 226.882 71.8753C226.31 71.3038 225.536 70.9824 224.727 70.9814H214.41C213.602 70.9824 212.827 71.3038 212.256 71.8753C211.684 72.4467 211.363 73.2215 211.362 74.0297V74.9676C211.364 75.7131 211.641 76.4319 212.138 76.9873C212.635 77.5427 213.319 77.8961 214.06 77.9804L190.828 124.236C189.723 126.436 189.199 128.882 189.307 131.341C189.414 133.801 190.149 136.192 191.441 138.287C192.733 140.382 194.54 142.112 196.69 143.311C198.839 144.511 201.26 145.141 203.722 145.141H234.648C237.113 145.141 239.537 144.51 241.689 143.31C243.842 142.109 245.651 140.377 246.946 138.28C248.24 136.182 248.977 133.788 249.086 131.326C249.194 128.863 248.671 126.414 247.566 124.211Z" fill="#2F2E41"/>
<path d="M215.194 24.4187C209.139 28.5743 199.839 26.2832 197.095 19.2623C196.425 17.5539 196.126 15.7226 196.218 13.8899C196.31 12.0573 196.791 10.2651 197.628 8.63243C199.527 5.06479 203.206 2.92362 207.076 2.12132C212.269 1.04491 217.638 2.49 222.384 4.5889C222.555 4.67817 222.749 4.7128 222.941 4.6881C223.132 4.6634 223.312 4.58056 223.454 4.45077C227.988 0.836429 234.575 2.40573 239.223 4.93217C244.25 7.7553 248.502 11.7773 251.599 16.6403C254.758 21.462 256.732 26.9623 257.36 32.6922C257.934 38.8847 256.923 45.1214 254.421 50.8151C251.919 56.5087 248.009 61.4719 243.06 65.2372C242.16 65.9103 243.04 67.4449 243.952 66.7628C253.961 59.2745 259.961 46.7784 259.251 34.2542C258.559 22.0409 251.578 10.2736 241.073 3.95509C235.497 0.601411 227.726 -1.20035 222.205 3.20147L223.276 3.06334C218.528 0.964026 213.327 -0.517861 208.095 0.170572C203.652 0.755337 199.286 2.88623 196.738 6.68136C195.618 8.42317 194.884 10.384 194.584 12.4325C194.284 14.481 194.425 16.5699 194.998 18.5596C195.556 20.5262 196.564 22.3362 197.941 23.8468C199.319 25.3575 201.029 26.5274 202.936 27.2644C207.183 28.95 212.293 28.5472 216.086 25.9443C217.018 25.3049 216.135 23.7731 215.194 24.4187Z" fill="#2F2E41"/>
<path d="M183.853 118.476L156.968 54.2504L154.753 54.8137L154.121 53.3013L113.144 65.2198L113.205 65.3769L112.906 65.4528L115.789 72.0036L134.704 120.514L137.066 120.362L137.551 121.463L183.853 118.476Z" fill="#6C63FF"/>
<path d="M137.156 128.432L184.328 118.371L158.132 55.8242L110.534 67.9254L137.156 128.432Z" fill="#3F3D56"/>
<path d="M142.092 88.4732C147.072 88.4732 151.108 84.4363 151.108 79.4566C151.108 74.4768 147.072 70.4399 142.092 70.4399C137.112 70.4399 133.075 74.4768 133.075 79.4566C133.075 84.4363 137.112 88.4732 142.092 88.4732Z" fill="white"/>
<path d="M214.903 91.0293C215.244 91.0455 215.58 91.1145 215.9 91.2339C216.305 91.3827 216.676 91.6104 216.992 91.9037C217.308 92.197 217.563 92.5501 217.741 92.9425L220.624 99.2352C220.985 100.027 221.018 100.93 220.715 101.745C220.412 102.561 219.797 103.223 219.006 103.587L166.558 127.61C165.767 127.971 164.864 128.004 164.048 127.701C163.232 127.398 162.57 126.783 162.207 125.992L159.324 119.699C158.963 118.908 158.93 118.005 159.233 117.189C159.536 116.373 160.151 115.711 160.942 115.348L213.39 91.325C213.863 91.1069 214.382 91.0055 214.903 91.0293Z" fill="#6C63FF"/>
<path d="M215.896 89.5861C216.505 89.6145 217.095 89.8117 217.598 90.1556C218.102 90.4995 218.501 90.9766 218.749 91.5337L221.563 97.8571C221.881 98.5702 221.934 99.3735 221.712 100.122C221.688 100.205 221.66 100.287 221.629 100.369C221.557 100.555 221.475 100.846 221.381 101.183C221.079 102.258 220.703 103.597 220.051 103.887L196.91 116.48C196.516 116.659 196.09 116.757 195.658 116.771C195.225 116.784 194.795 116.711 194.39 116.558C193.986 116.404 193.616 116.171 193.302 115.874C192.988 115.576 192.736 115.22 192.56 114.824L187.427 102.859C187.075 102.063 187.053 101.161 187.365 100.349C187.677 99.5372 188.299 98.8822 189.093 98.5278L214.435 89.8617C214.893 89.6569 215.394 89.5625 215.896 89.5861Z" fill="#2F2E41"/>
<path d="M300.802 199.995H119.995C119.869 199.995 119.749 199.945 119.66 199.856C119.571 199.767 119.521 199.646 119.521 199.52C119.521 199.394 119.571 199.273 119.66 199.184C119.749 199.095 119.869 199.045 119.995 199.045H300.802C300.928 199.045 301.049 199.095 301.138 199.184C301.227 199.273 301.277 199.394 301.277 199.52C301.277 199.646 301.227 199.767 301.138 199.856C301.049 199.945 300.928 199.995 300.802 199.995Z" fill="#3F3D56"/>
<path d="M90.6407 199.995H0.474559C0.348698 199.995 0.227999 199.945 0.139002 199.856C0.0500049 199.767 0 199.646 0 199.52C0 199.394 0.0500049 199.273 0.139002 199.184C0.227999 199.095 0.348698 199.045 0.474559 199.045H90.6407C90.7666 199.045 90.8873 199.095 90.9763 199.184C91.0653 199.273 91.1153 199.394 91.1153 199.52C91.1153 199.646 91.0653 199.767 90.9763 199.856C90.8873 199.945 90.7666 199.995 90.6407 199.995Z" fill="#3F3D56"/>
</svg>
