<svg width="404" height="200" viewBox="0 0 404 200" fill="none" xmlns="http://www.w3.org/2000/svg">
<path d="M172.312 195.723C174.812 195.721 177.208 194.727 178.976 192.959C180.743 191.19 181.735 188.793 181.735 186.293C181.735 183.793 180.743 181.395 178.976 179.627C177.208 177.859 174.812 176.864 172.312 176.863H32.2381C32.9426 175.569 33.9825 174.49 35.2485 173.737C36.5144 172.984 37.9598 172.587 39.4325 172.586H317.861C321.494 172.59 324.976 174.036 327.543 176.606C330.11 179.176 331.552 182.66 331.552 186.293C331.55 189.925 330.107 193.407 327.541 195.977C324.974 198.547 321.493 199.994 317.861 200H39.4326C37.9598 199.999 36.5145 199.601 35.2485 198.849C33.9826 198.096 32.9427 197.016 32.2381 195.723L172.312 195.723Z" fill="#CCCCCC"/>
<path d="M32.0521 182.059H165.229C165.433 182.058 165.629 181.977 165.773 181.833C165.916 181.688 165.997 181.493 165.997 181.289C165.997 181.085 165.916 180.89 165.773 180.745C165.629 180.601 165.433 180.52 165.229 180.519H32.0521C31.8482 180.52 31.6529 180.601 31.5089 180.745C31.365 180.89 31.2841 181.085 31.2841 181.289C31.2841 181.493 31.365 181.688 31.5089 181.833C31.6529 181.977 31.8482 182.058 32.0521 182.059Z" fill="#CCCCCC"/>
<path d="M32.0521 187.063H165.229C165.434 187.063 165.629 186.981 165.774 186.837C165.918 186.693 165.999 186.497 165.999 186.293C165.999 186.089 165.918 185.893 165.774 185.748C165.629 185.604 165.434 185.523 165.229 185.523H32.0521C31.8479 185.523 31.6521 185.604 31.5077 185.748C31.3634 185.893 31.2823 186.089 31.2823 186.293C31.2823 186.497 31.3634 186.693 31.5077 186.837C31.6521 186.981 31.8479 187.063 32.0521 187.063Z" fill="#CCCCCC"/>
<path d="M32.0521 192.066H165.229C165.433 192.066 165.629 191.985 165.773 191.84C165.916 191.696 165.997 191.5 165.997 191.297C165.997 191.093 165.916 190.897 165.773 190.753C165.629 190.609 165.433 190.527 165.229 190.527H32.0521C31.8482 190.527 31.6529 190.609 31.5089 190.753C31.365 190.897 31.2841 191.093 31.2841 191.297C31.2841 191.5 31.365 191.696 31.5089 191.84C31.6529 191.985 31.8482 192.066 32.0521 192.066Z" fill="#CCCCCC"/>
<path d="M208.493 169.164C210.993 169.163 213.39 168.168 215.157 166.4C216.924 164.632 217.917 162.234 217.917 159.734C217.917 157.234 216.924 154.837 215.157 153.068C213.39 151.3 210.993 150.306 208.493 150.304H68.4194C69.1239 149.011 70.1637 147.931 71.4297 147.179C72.6956 146.426 74.1409 146.028 75.6136 146.027H354.042C357.675 146.031 361.157 147.477 363.724 150.047C366.291 152.618 367.733 156.102 367.733 159.734C367.731 163.366 366.288 166.849 363.722 169.419C361.155 171.988 357.674 173.435 354.042 173.441H75.6136C74.1409 173.44 72.6956 173.043 71.4297 172.29C70.1637 171.537 69.1239 170.458 68.4194 169.164L208.493 169.164Z" fill="#6C63FF"/>
<path d="M68.2332 155.5H201.41C201.614 155.5 201.81 155.419 201.954 155.274C202.098 155.13 202.178 154.934 202.178 154.731C202.178 154.527 202.098 154.331 201.954 154.187C201.81 154.043 201.614 153.961 201.41 153.961H68.2332C68.0291 153.961 67.8332 154.042 67.6889 154.186C67.5445 154.331 67.4634 154.526 67.4634 154.731C67.4634 154.935 67.5445 155.131 67.6889 155.275C67.8332 155.419 68.0291 155.5 68.2332 155.5Z" fill="#CCCCCC"/>
<path d="M68.2332 160.504H201.41C201.615 160.504 201.81 160.423 201.955 160.279C202.099 160.134 202.18 159.938 202.18 159.734C202.18 159.53 202.099 159.334 201.955 159.19C201.81 159.046 201.615 158.965 201.41 158.965H68.2332C68.029 158.965 67.8332 159.046 67.6889 159.19C67.5445 159.334 67.4634 159.53 67.4634 159.734C67.4634 159.938 67.5445 160.134 67.6889 160.279C67.8332 160.423 68.029 160.504 68.2332 160.504Z" fill="#CCCCCC"/>
<path d="M68.2332 165.508H201.41C201.614 165.507 201.81 165.426 201.954 165.282C202.098 165.137 202.178 164.942 202.178 164.738C202.178 164.534 202.098 164.339 201.954 164.194C201.81 164.05 201.614 163.969 201.41 163.968H68.2332C68.132 163.968 68.0316 163.988 67.938 164.026C67.8444 164.065 67.7593 164.122 67.6877 164.193C67.616 164.265 67.5591 164.35 67.5203 164.443C67.4815 164.537 67.4616 164.637 67.4616 164.738C67.4616 164.839 67.4815 164.94 67.5203 165.033C67.5591 165.127 67.616 165.212 67.6877 165.283C67.7593 165.355 67.8444 165.411 67.938 165.45C68.0316 165.488 68.132 165.508 68.2332 165.508Z" fill="#CCCCCC"/>
<path d="M244.674 141.72C247.174 141.718 249.571 140.724 251.338 138.956C253.105 137.187 254.098 134.79 254.098 132.29C254.098 129.79 253.105 127.392 251.338 125.624C249.571 123.855 247.174 122.861 244.674 122.859H104.6C105.305 121.566 106.345 120.487 107.611 119.734C108.877 118.981 110.322 118.584 111.795 118.582H390.224C393.856 118.587 397.339 120.033 399.906 122.603C402.473 125.173 403.914 128.657 403.914 132.29C403.912 135.921 402.47 139.404 399.903 141.974C397.337 144.544 393.856 145.99 390.224 145.997H111.795C110.322 145.996 108.877 145.598 107.611 144.845C106.345 144.093 105.305 143.013 104.6 141.72L244.674 141.72Z" fill="#CCCCCC"/>
<path d="M104.414 128.056H237.592C237.795 128.055 237.991 127.974 238.135 127.83C238.279 127.685 238.36 127.49 238.36 127.286C238.36 127.082 238.279 126.887 238.135 126.742C237.991 126.598 237.795 126.517 237.592 126.516H104.414C104.21 126.516 104.014 126.597 103.87 126.742C103.726 126.886 103.644 127.082 103.644 127.286C103.644 127.49 103.726 127.686 103.87 127.83C104.014 127.975 104.21 128.056 104.414 128.056Z" fill="#CCCCCC"/>
<path d="M104.414 133.059H237.592C237.693 133.059 237.793 133.04 237.886 133.001C237.98 132.962 238.064 132.905 238.136 132.834C238.207 132.763 238.264 132.678 238.303 132.584C238.341 132.491 238.361 132.391 238.361 132.29C238.361 132.189 238.341 132.088 238.303 131.995C238.264 131.902 238.207 131.817 238.136 131.745C238.064 131.674 237.98 131.617 237.886 131.578C237.793 131.54 237.693 131.52 237.592 131.52H104.414C104.313 131.52 104.213 131.54 104.12 131.578C104.026 131.617 103.941 131.674 103.87 131.745C103.799 131.817 103.742 131.902 103.703 131.995C103.664 132.088 103.645 132.189 103.645 132.29C103.645 132.391 103.664 132.491 103.703 132.584C103.742 132.678 103.799 132.763 103.87 132.834C103.941 132.905 104.026 132.962 104.12 133.001C104.213 133.04 104.313 133.059 104.414 133.059Z" fill="#CCCCCC"/>
<path d="M104.414 138.063H237.592C237.796 138.063 237.992 137.982 238.136 137.838C238.28 137.693 238.361 137.498 238.361 137.293C238.361 137.089 238.28 136.893 238.136 136.749C237.992 136.605 237.796 136.524 237.592 136.524H104.414C104.313 136.524 104.213 136.544 104.12 136.582C104.026 136.621 103.941 136.678 103.87 136.749C103.799 136.821 103.742 136.905 103.703 136.999C103.664 137.092 103.645 137.192 103.645 137.293C103.645 137.395 103.664 137.495 103.703 137.588C103.742 137.681 103.799 137.766 103.87 137.838C103.941 137.909 104.026 137.966 104.12 138.005C104.213 138.043 104.313 138.063 104.414 138.063Z" fill="#CCCCCC"/>
<path d="M101.339 83.1725C102.069 83.1714 102.772 82.8927 103.305 82.393C103.838 81.8932 104.161 81.2096 104.208 80.4807L104.636 73.955C104.686 73.1928 104.431 72.442 103.927 71.8677C103.424 71.2934 102.712 70.9428 101.95 70.8928L50.8242 67.5446C50.0183 67.4918 49.2098 67.5983 48.4451 67.8579C47.6803 68.1176 46.9742 68.5253 46.3671 69.0579C45.7599 69.5904 45.2635 70.2373 44.9064 70.9617C44.5492 71.686 44.3382 72.4737 44.2854 73.2796C44.2327 74.0855 44.3391 74.8939 44.5988 75.6586C44.8584 76.4233 45.2662 77.1295 45.7987 77.7367C46.3313 78.3438 46.9782 78.8402 47.7025 79.1973C48.4269 79.5545 49.2145 79.7655 50.0204 79.8183L101.146 83.1662C101.211 83.1703 101.275 83.1724 101.339 83.1725Z" fill="#6C63FF"/>
<path d="M91.2576 84.0139C92.0024 84.0127 92.7178 83.7233 93.254 83.2065C93.7902 82.6896 94.1057 81.9854 94.1344 81.2412L94.4987 71.4943C94.5129 71.1163 94.4524 70.7393 94.3208 70.3847C94.1892 70.0301 93.9891 69.7049 93.7318 69.4277C93.4745 69.1505 93.1651 68.9267 92.8214 68.769C92.4776 68.6114 92.1061 68.523 91.7282 68.5089L49.6858 66.9375C48.9225 66.909 48.1792 67.1849 47.6193 67.7045C47.0594 68.2241 46.7288 68.9448 46.7002 69.7081L46.3359 79.455C46.3218 79.8329 46.3822 80.21 46.5138 80.5646C46.6454 80.9191 46.8456 81.2443 47.1028 81.5215C47.3601 81.7988 47.6695 82.0226 48.0133 82.1803C48.357 82.3379 48.7285 82.4263 49.1065 82.4404L91.1488 84.0117C91.1851 84.0132 91.2216 84.0139 91.2576 84.0139Z" fill="#2F2E41"/>
<path d="M41.9907 173.862H48.5305C49.2941 173.861 50.0261 173.558 50.566 173.018C51.106 172.478 51.4097 171.746 51.4106 170.982V116.477C51.4097 115.713 51.106 114.981 50.566 114.441C50.0261 113.901 49.2941 113.598 48.5305 113.597H41.9907C41.2272 113.598 40.4951 113.901 39.9552 114.441C39.4153 114.981 39.1116 115.713 39.1107 116.477V170.982C39.1116 171.746 39.4153 172.478 39.9552 173.018C40.4951 173.558 41.2272 173.861 41.9907 173.862Z" fill="#2F2E41"/>
<path d="M71.0182 145.051L76.6107 141.661C77.2632 141.265 77.7318 140.626 77.9137 139.884C78.0955 139.143 77.9758 138.359 77.5807 137.706L49.328 91.0944C48.9314 90.4419 48.2923 89.9733 47.5507 89.7914C46.8091 89.6096 46.0256 89.7293 45.3722 90.1243L39.7797 93.5142C39.1271 93.9107 38.6586 94.5499 38.4767 95.2915C38.2948 96.0331 38.4146 96.8165 38.8096 97.4699L67.0624 144.081C67.4589 144.734 68.0981 145.202 68.8397 145.384C69.5813 145.566 70.3647 145.446 71.0182 145.051Z" fill="#2F2E41"/>
<path d="M51.9233 56.7147C39.4432 56.7147 29.3261 46.5976 29.3261 34.1176C29.3261 21.6375 39.4432 11.5204 51.9233 11.5204C64.4034 11.5204 74.5205 21.6375 74.5205 34.1176C74.5205 46.5976 64.4034 56.7147 51.9233 56.7147Z" fill="#6C63FF"/>
<path d="M64.155 41.833C64.8819 41.5942 65.5492 41.2025 66.112 40.6842C66.4849 40.3142 66.7725 39.8671 66.9545 39.3743C67.1364 38.8815 67.2084 38.3548 67.1655 37.8312C67.1418 37.4582 67.0322 37.0957 66.8452 36.772C66.6583 36.4483 66.399 36.1723 66.0876 35.9654C65.2795 35.447 64.1988 35.4455 63.0983 35.9304L63.14 27.1088L62.2539 27.1046L62.2049 37.4753L62.8876 37.0458C63.6794 36.5486 64.8101 36.1987 65.6091 36.7113C65.8065 36.8468 65.9701 37.0259 66.087 37.2349C66.2039 37.4438 66.2711 37.6769 66.2833 37.916C66.3131 38.306 66.2587 38.6979 66.1235 39.065C65.9883 39.4321 65.7757 39.7657 65.5 40.0432C64.5215 40.9779 63.0939 41.2702 61.4659 41.5314L61.6063 42.4063C62.4713 42.2917 63.3243 42.0999 64.155 41.833Z" fill="#2F2E41"/>
<path d="M72.2748 26.6631L72.3909 27.5416L67.6592 28.1664L67.5432 27.288L72.2748 26.6631Z" fill="#2F2E41"/>
<path d="M57.3397 28.635L57.4557 29.5135L52.7241 30.1383L52.608 29.2599L57.3397 28.635Z" fill="#2F2E41"/>
<path d="M33.0546 131.101H71.1596C72.1581 131.1 73.1154 130.703 73.8215 129.996C74.5275 129.29 74.9247 128.333 74.9258 127.335L66.9485 66.1608C66.9421 65.1669 66.5426 64.2158 65.8373 63.5155C65.132 62.8152 64.1781 62.4225 63.1841 62.4232H49.6613C44.2599 62.4293 39.0816 64.5777 35.2622 68.397C31.4429 72.2163 29.2945 77.3947 29.2884 82.7961V127.335C29.2895 128.333 29.6867 129.29 30.3927 129.996C31.0988 130.703 32.0561 131.1 33.0546 131.101Z" fill="#2F2E41"/>
<path d="M0.270713 106.996C0.035343 107.5 -0.0494268 108.061 0.0266177 108.611C0.102662 109.162 0.336292 109.679 0.699353 110.1L4.97483 115.049C5.22208 115.335 5.52331 115.57 5.86126 115.74C6.19922 115.91 6.56731 116.011 6.94452 116.039C7.32173 116.066 7.70066 116.019 8.05969 115.9C8.41871 115.781 8.75076 115.593 9.03693 115.345L47.8069 81.8497C48.4183 81.3218 48.9196 80.6787 49.2823 79.957C49.6451 79.2353 49.862 78.4492 49.9209 77.6437C49.9798 76.8381 49.8794 76.0288 49.6255 75.2621C49.3716 74.4953 48.9691 73.7861 48.4411 73.1749C47.913 72.5637 47.2697 72.0625 46.548 71.6999C45.8262 71.3374 45.0401 71.1206 44.2345 71.0619C43.4289 71.0032 42.6197 71.1037 41.853 71.3578C41.0863 71.6119 40.3772 72.0145 39.7661 72.5427L0.995913 106.038C0.689206 106.303 0.442031 106.629 0.270713 106.996Z" fill="#6C63FF"/>
<path d="M8.82774 95.942C8.59238 96.4457 8.50765 97.0068 8.5837 97.5575C8.65975 98.1083 8.89337 98.6254 9.25644 99.0465L16.5591 107.499C17.059 108.076 17.7674 108.432 18.5289 108.487C19.2904 108.543 20.0429 108.294 20.6212 107.795L52.4569 80.2906C52.7432 80.0434 52.9779 79.7422 53.1477 79.4042C53.3175 79.0663 53.4191 78.6982 53.4466 78.3209C53.4741 77.9437 53.4271 77.5648 53.3082 77.2057C53.1892 76.8467 53.0007 76.5146 52.7534 76.2284L45.451 67.776C45.2037 67.4898 44.9025 67.2551 44.5645 67.0853C44.2266 66.9155 43.8585 66.814 43.4813 66.7865C43.1041 66.7589 42.7251 66.806 42.3661 66.9249C42.0071 67.0439 41.675 67.2323 41.3889 67.4796L9.55294 94.9844C9.24631 95.2488 8.99915 95.5752 8.82774 95.942Z" fill="#2F2E41"/>
<path d="M51.5007 20.7152C54.5214 18.2154 58.5595 20.5797 61.9756 20.2441C65.2439 19.9231 67.8745 17.0469 68.5913 13.9518C69.4276 10.3409 67.6148 6.67287 64.8841 4.35971C61.8932 1.82625 57.8778 1.03897 54.0512 1.42448C49.6654 1.86632 45.6248 3.83 41.987 6.22894C38.4771 8.47073 35.2383 11.1111 32.3354 14.0974C29.7342 16.8628 27.5119 20.1758 26.7506 23.9491C26.0588 27.3782 26.4647 31.2004 28.4435 34.1541C29.4938 35.6686 30.9167 36.887 32.5749 37.6916C34.3029 38.5812 36.1519 39.2289 37.8234 40.2294C40.3507 41.7422 42.7764 44.8255 41.916 47.9698C41.7313 48.6568 41.3805 49.2878 40.8946 49.8073C40.3108 50.4312 39.2954 49.5728 39.8808 48.9473C40.9089 47.8487 40.8975 46.3574 40.3863 45.0127C39.7768 43.4969 38.6706 42.233 37.2488 41.4281C35.4991 40.3831 33.558 39.7218 31.7625 38.7661C30.0432 37.8916 28.5606 36.6147 27.4409 35.0439C25.3283 31.9872 24.7537 28.0504 25.3148 24.4293C25.922 20.5106 28.0084 16.9789 30.5957 14.0353C33.4113 10.8318 36.8463 8.14011 40.349 5.72993C44.1074 3.14376 48.2466 0.975601 52.7952 0.24939C56.7381 -0.380122 60.9891 0.134332 64.3846 2.34102C67.5541 4.40082 69.9483 7.88599 70.1199 11.7328C70.1745 13.4826 69.7619 15.2153 68.9245 16.7527C68.0871 18.2901 66.8551 19.5766 65.3554 20.4798C63.8174 21.3609 62.0416 21.7369 60.2785 21.5548C58.3929 21.398 56.5142 20.784 54.6112 20.9084C53.7504 20.9443 52.9248 21.2597 52.2595 21.807C51.5995 22.3532 50.8461 21.2569 51.5007 20.7152Z" fill="#2F2E41"/>
<path d="M78.0719 138.493C78.0638 138.443 78.0543 138.393 78.0435 138.343C77.9647 137.973 77.8133 137.623 77.598 137.311C77.3827 137 77.1078 136.735 76.7893 136.531L71.2937 132.986C70.6516 132.573 69.8718 132.431 69.1254 132.592C68.3791 132.753 67.727 133.204 67.3124 133.845L50.3596 160.129C49.9457 160.771 49.8036 161.551 49.9647 162.297C50.1259 163.044 50.5769 163.696 51.2187 164.11L56.7145 167.655C57.3566 168.068 58.1364 168.209 58.8828 168.048C59.6292 167.887 60.2812 167.437 60.6958 166.795L77.6487 140.512C78.036 139.915 78.187 139.195 78.0719 138.493Z" fill="#2F2E41"/>
</svg>
