<svg width="48" height="48" viewBox="0 0 48 48" fill="none" xmlns="http://www.w3.org/2000/svg">
<path d="M14 26.4615C13.3231 26.4615 12.7436 26.2205 12.2615 25.7385C11.7795 25.2564 11.5384 24.6769 11.5384 24C11.5384 23.3231 11.7795 22.7436 12.2615 22.2616C12.7436 21.7795 13.3231 21.5384 14 21.5384C14.6769 21.5384 15.2564 21.7795 15.7385 22.2616C16.2205 22.7436 16.4615 23.3231 16.4615 24C16.4615 24.6769 16.2205 25.2564 15.7385 25.7385C15.2564 26.2205 14.6769 26.4615 14 26.4615ZM14 34C11.2222 34 8.86112 33.0287 6.91665 31.086C4.97222 29.1433 4 26.7843 4 24.0091C4 21.2338 4.97222 18.8718 6.91665 16.923C8.86112 14.9743 11.2222 14 14 14C16.0538 14 17.9057 14.5564 19.5557 15.6692C21.2057 16.782 22.4103 18.2256 23.1693 20H40.9193C41.1235 20 41.3213 20.0372 41.5128 20.1116C41.7043 20.1859 41.8872 20.3102 42.0616 20.4846L44.4461 22.8693C44.6205 23.0436 44.743 23.2235 44.8135 23.4089C44.884 23.5944 44.9193 23.7932 44.9193 24.0051C44.9193 24.2171 44.884 24.4141 44.8135 24.5962C44.743 24.7782 44.6205 24.9564 44.4461 25.1307L40.2116 29.327C40.0786 29.4703 39.9191 29.585 39.733 29.671C39.5469 29.757 39.3628 29.8038 39.1808 29.8115C38.9987 29.8192 38.8167 29.7962 38.6346 29.7423C38.4526 29.6885 38.2744 29.6039 38.1 29.4885L35.7693 27.7308L33.0346 29.727C32.8936 29.8347 32.7487 29.909 32.6 29.95C32.4513 29.991 32.2897 30.0115 32.1154 30.0115C31.941 30.0115 31.7776 29.9846 31.625 29.9308C31.4724 29.8769 31.3256 29.809 31.1846 29.727L28.5961 28H23.1693C22.4103 29.7487 21.2057 31.1859 19.5557 32.3116C17.9057 33.4372 16.0538 34 14 34ZM14 32C15.9692 32 17.6494 31.4077 19.0404 30.2231C20.4314 29.0385 21.3218 27.6308 21.7115 26H29.2307L32.0923 27.9346C32.0667 27.9346 32.0603 27.9365 32.073 27.9404C32.0859 27.9442 32.0923 27.9423 32.0923 27.9346L35.8077 25.2693L39.05 27.7115L42.7616 24L40.7616 22H21.7115C21.3218 20.3692 20.4314 18.9615 19.0404 17.7769C17.6494 16.5923 15.9692 16 14 16C11.8 16 9.91667 16.7833 8.35 18.35C6.78333 19.9167 6 21.8 6 24C6 26.2 6.78333 28.0833 8.35 29.65C9.91667 31.2167 11.8 32 14 32Z" fill="white"/>
</svg>
