<svg width="478" height="412" viewBox="0 0 478 412" fill="none" xmlns="http://www.w3.org/2000/svg">
<g clip-path="url(#clip0_430_481)">
<path d="M409.881 99.4197C411.187 97.245 412.298 94.9544 413.197 92.584C399.7 85.8579 382.216 77.4788 367.878 71.2041C366.495 73.731 365.125 76.324 364.016 78.4871C378.069 84.3327 396.615 92.9667 409.881 99.4197Z" fill="#6C63FF"/>
<path d="M438.877 121.033C441.785 112.536 439.091 106.402 433.247 102.999C430.164 101.204 422.661 97.3002 413.197 92.584C412.298 94.9544 411.187 97.245 409.881 99.4197C417.312 103.034 423.086 105.964 425.486 107.337C428.48 109.049 432.632 111.267 430.281 120.686C429.002 125.81 422.378 139.702 413.737 156.42C416.979 155.576 420.236 154.759 423.499 153.972C431.118 138.968 436.942 126.687 438.877 121.033Z" fill="#6C63FF"/>
<path d="M336.064 62.8965C331.507 64.6665 328.812 69.2819 326.471 73.576L326.471 73.5746C326.606 72.8907 281.027 160.449 269.799 187.26C267.958 191.658 266.143 196.7 268.124 201.022C269.379 203.759 271.937 205.632 274.412 207.345C287.849 216.642 334.921 238.524 349.649 245.612C353.289 247.364 356.985 249.054 360.897 250.072C363.348 250.71 366.037 251.058 368.355 250.023C370.799 248.931 372.353 246.532 373.761 244.255C383.711 228.162 398.909 200.881 412.194 175.757C408.812 176.607 405.458 177.453 402.155 178.304C390.366 200.132 377.65 222.477 369.903 234.81C368.675 236.764 367.321 238.825 365.218 239.779C363.224 240.685 360.925 240.414 358.834 239.896C355.497 239.067 352.348 237.664 349.251 236.208C336.714 230.316 293.214 210.757 281.805 202.969C279.702 201.533 277.532 199.964 276.485 197.643C274.832 193.979 276.436 189.666 278.056 185.899C287.934 162.938 330.786 82.2978 330.664 82.8819C332.71 79.1996 335.355 74.3061 339.273 72.7519C341.098 72.0283 343.094 71.9123 345.036 71.9891C347.724 72.0946 354.931 74.7082 364.016 78.4871C365.125 76.324 366.495 73.731 367.878 71.2041C356.01 66.0106 346.298 62.2589 342.787 62.0795C340.516 61.9634 338.186 62.0728 336.064 62.8965Z" fill="#6C63FF"/>
<path d="M394.151 180.409L394.149 180.409L394.15 180.41C396.776 179.702 399.448 179.002 402.155 178.304C406.205 170.806 410.145 163.369 413.737 156.42C405.776 158.491 397.905 160.718 390.248 163.046C390.251 163.059 390.254 163.073 390.257 163.087C391.512 167.944 394.051 179.944 394.147 180.397C394.148 180.401 394.15 180.405 394.151 180.409Z" fill="#C4EBFD"/>
<path d="M446.519 166.78C445.997 164.465 445.395 161.786 444.792 159.1L442.67 149.73C436.295 151.009 429.884 152.433 423.499 153.972C420.036 160.793 416.202 168.177 412.194 175.757C423.611 172.89 435.346 169.993 446.519 166.78Z" fill="#C4EBFD"/>
<path fill-rule="evenodd" clip-rule="evenodd" d="M412.194 175.757L423.499 153.972C420.036 160.793 416.202 168.177 412.194 175.757Z" fill="#6C63FF"/>
<path d="M402.155 178.304C405.458 177.453 408.812 176.607 412.194 175.757L423.499 153.972C420.236 154.759 416.979 155.576 413.737 156.42C410.145 163.369 406.205 170.806 402.155 178.304Z" fill="#C4EBFD"/>
<path d="M358.875 25.2718C356.248 31.6809 353.623 38.0894 350.997 44.4986M310.524 23.0833C314.718 30.851 318.157 39.0272 320.781 47.4603M283.602 58.2526C291.16 62.0792 298.717 65.9065 306.274 69.7324C305.635 69.5977 304.995 69.4624 304.355 69.3284M364.296 114.924C378.659 120.801 393.022 126.678 407.385 132.554C407.6 132.642 407.888 132.71 408.027 132.524C408.165 132.338 407.709 132.132 407.751 132.359M347.175 147.464C361.448 154.661 372.619 159.787 387.399 165.885M380.986 171.955C381.545 174.014 382.04 176.089 382.468 178.18M380.986 171.955C384.124 169.041 387.915 165.458 390.248 163.046M380.986 171.955C381.546 174.013 382.041 176.089 382.468 178.18M380.986 171.955C378.017 174.715 375.632 176.877 375.632 176.877L382.468 178.18M382.468 178.18L394.149 180.409M390.248 163.046C397.905 160.718 405.776 158.491 413.737 156.42M390.248 163.046C390.251 163.059 390.254 163.073 390.257 163.087M446.531 166.777C450.121 165.744 453.673 164.692 457.115 163.583C456.789 160.337 455.227 150.834 453.902 147.609C450.184 148.253 446.437 148.974 442.682 149.728M446.531 166.777L444.792 159.1M446.531 166.777C446.527 166.778 446.524 166.779 446.519 166.78M442.682 149.728C443.281 152.373 444.036 155.735 444.792 159.1M442.682 149.728C442.682 149.728 442.674 149.728 442.67 149.73M444.792 159.1C445.395 161.786 445.997 164.465 446.519 166.78M444.792 159.1L442.67 149.73M442.67 149.73C436.295 151.009 429.884 152.433 423.499 153.972M390.247 163.047C397.905 160.72 405.775 158.491 413.737 156.42M390.247 163.047C391.692 169.71 391.928 174.082 394.149 180.409M390.247 163.047C390.25 163.06 390.253 163.074 390.257 163.087M446.519 166.78C435.346 169.993 423.611 172.89 412.194 175.757M333.349 184.308C347.089 190.064 360.598 196.368 373.833 203.199M306.795 169.165L309.346 177.768C309.346 177.768 320.179 172.822 326.717 170.663M320.938 133.803L323.489 142.405C323.489 142.405 334.322 137.459 340.859 135.301M336.895 100.257L339.446 108.859C339.446 108.859 350.279 103.913 356.816 101.755M412.194 175.757C398.909 200.881 383.711 228.162 373.761 244.255C372.353 246.532 370.799 248.931 368.355 250.023C366.037 251.058 363.348 250.71 360.897 250.072C356.985 249.054 353.289 247.364 349.649 245.612C334.921 238.524 287.849 216.642 274.412 207.345C271.937 205.632 269.379 203.759 268.124 201.022C266.143 196.7 267.958 191.658 269.799 187.26C281.027 160.449 326.606 72.8907 326.471 73.5746L326.471 73.576C328.812 69.2819 331.507 64.6665 336.064 62.8965C338.186 62.0728 340.516 61.9634 342.787 62.0795C346.298 62.2589 356.01 66.0106 367.878 71.2041M412.194 175.757C408.812 176.607 405.458 177.453 402.155 178.304M412.194 175.757C416.202 168.177 420.036 160.793 423.499 153.972M412.194 175.757L423.499 153.972M402.155 178.304C390.366 200.132 377.65 222.477 369.903 234.81C368.675 236.764 367.321 238.825 365.218 239.779C363.224 240.685 360.925 240.414 358.834 239.896C355.497 239.067 352.348 237.664 349.251 236.208C336.714 230.316 293.214 210.757 281.805 202.969C279.702 201.533 277.532 199.964 276.485 197.643C274.832 193.979 276.436 189.666 278.056 185.899C287.934 162.938 330.786 82.2978 330.664 82.8819C332.71 79.1996 335.355 74.3061 339.273 72.7519C341.098 72.0283 343.094 71.9123 345.036 71.9891C347.724 72.0946 354.931 74.7082 364.016 78.4871M402.155 178.304C399.448 179.002 396.776 179.702 394.15 180.41L394.149 180.409M402.155 178.304C406.205 170.806 410.145 163.369 413.737 156.42M364.016 78.4871C365.125 76.324 366.495 73.731 367.878 71.2041M364.016 78.4871C363.721 79.0618 363.445 79.606 363.192 80.1107C362.859 80.7743 362.521 81.483 362.584 82.2214C362.692 83.4952 363.902 84.3439 364.998 85.0007C377.325 92.3948 390.171 98.925 403.412 104.529C404.065 104.805 404.779 105.084 405.464 104.898C406.107 104.722 406.572 104.177 406.981 103.651C408.032 102.301 409.001 100.887 409.881 99.4197M364.016 78.4871C378.069 84.3327 396.615 92.9667 409.881 99.4197M367.878 71.2041C368.712 69.6792 369.55 68.1783 370.338 66.8104C371.34 65.0724 373.435 64.3204 375.321 64.9902L375.321 64.9888C388.244 69.5803 399.715 75.7798 410.766 82.1388C412.3 83.022 413.933 84.0745 414.467 85.7626C414.875 87.0526 414.549 88.4546 414.158 89.7528C413.872 90.7074 413.551 91.6519 413.197 92.584M367.878 71.2041C382.216 77.4788 399.7 85.8579 413.197 92.584M409.881 99.4197C411.187 97.245 412.298 94.9544 413.197 92.584M409.881 99.4197C417.312 103.034 423.086 105.964 425.486 107.337C428.48 109.049 432.632 111.267 430.281 120.686C429.002 125.81 422.378 139.702 413.737 156.42M413.197 92.584C422.661 97.3002 430.164 101.204 433.247 102.999C439.091 106.402 441.785 112.536 438.877 121.033C436.942 126.687 431.118 138.968 423.499 153.972M413.737 156.42C416.979 155.576 420.236 154.759 423.499 153.972M394.149 180.409L394.151 180.409C394.15 180.405 394.148 180.401 394.147 180.397M394.149 180.409C394.149 180.409 394.148 180.403 394.147 180.397M390.257 163.087C391.512 167.944 394.051 179.944 394.147 180.397M390.257 163.087C391.694 169.723 391.933 174.089 394.147 180.397M319.91 169.017C320.034 168.736 319.897 168.409 319.61 168.302C317.346 167.46 305.647 162.38 305.016 162.649C304.503 162.868 300.655 170.777 298.718 176.812C298.636 177.067 298.729 177.345 298.956 177.484C303.352 180.192 312.025 183.534 313.193 183.979C313.269 184.008 313.35 183.971 313.382 183.896L319.91 169.017ZM334.054 133.654C334.177 133.373 334.04 133.046 333.753 132.939C331.489 132.097 319.791 127.017 319.159 127.286C318.646 127.505 314.799 135.414 312.861 141.449C312.779 141.704 312.872 141.981 313.1 142.121C317.495 144.829 326.169 148.171 327.336 148.616C327.412 148.645 327.493 148.608 327.526 148.533L334.054 133.654ZM350.01 100.109C350.134 99.8273 349.997 99.5009 349.709 99.3939C347.445 98.5517 335.747 93.4715 335.116 93.7405C334.603 93.9596 330.755 101.868 328.817 107.904C328.735 108.159 328.829 108.436 329.056 108.576C333.451 111.284 342.125 114.626 343.293 115.071C343.368 115.1 343.45 115.062 343.482 114.988L350.01 100.109Z" stroke="black" stroke-width="1.5" stroke-linecap="round" stroke-linejoin="round"/>
</g>
<path d="M179.02 334.768C178.695 332.893 177.901 331.103 176.73 329.602L176.693 329.607C153.209 337.384 128.672 344.081 106.908 349.397C94.6236 321.873 86.0359 293.388 78.001 265.157C75.1201 256.234 72.3672 247.283 69.7273 238.298C60.2682 242.283 50.9054 247.218 41.6388 253.556C60.0653 292.26 79.8283 330.331 101.232 368.909C127.162 357.529 153.091 346.149 179.02 334.768Z" fill="#6C63FF"/>
<path fill-rule="evenodd" clip-rule="evenodd" d="M204.215 319.74C189.468 281.891 174.666 231.632 162.122 193C128.316 202.24 97.2433 213.405 66.9 226.28C70.6894 239.105 74.2861 252.104 78.001 265.157C87.0089 293.054 97.2688 320.662 109.241 348.088C131.564 340.083 154.09 332.642 176.693 329.607C186.119 326.485 195.376 323.19 204.215 319.74ZM90.7223 241.709C112.702 235.762 132.982 229.383 153.26 223.004L155.378 230.936C134.957 238.355 114.4 245.811 92.9781 249.469C92.2265 246.883 91.4738 244.295 90.7223 241.709Z" fill="#C4EBFD"/>
<path d="M176.73 329.602C177.901 331.103 178.695 332.893 179.02 334.768C153.091 346.149 127.162 357.529 101.232 368.909C79.8283 330.331 60.0653 292.26 41.6388 253.556C50.9054 247.218 60.2682 242.283 69.7273 238.298C72.3672 247.283 75.1201 256.234 78.001 265.157M176.73 329.602C176.718 329.603 176.705 329.605 176.693 329.607M176.73 329.602L176.693 329.607M90.7223 241.709C91.4738 244.295 92.2265 246.883 92.9781 249.469C114.4 245.811 134.957 238.355 155.378 230.936M90.7223 241.709L90.7212 241.71C112.702 235.763 132.981 229.383 153.26 223.004M90.7223 241.709C112.702 235.762 132.982 229.383 153.26 223.004M155.378 230.936C154.672 228.292 153.966 225.648 153.26 223.004M155.378 230.936L153.26 223.004M98.6999 263.624C118.577 257.997 138.344 251.985 157.986 245.593M103.837 274.918C123.695 268.654 143.552 262.39 163.41 256.125M109.132 287.267C128.654 280.692 148.231 274.277 167.858 268.024M113.497 299.019C133.783 293.835 153.906 288.02 173.828 281.586M119.027 311.632C124.304 309.409 129.667 307.392 135.101 305.587M148.089 319.395C147.535 315.323 147.619 310.913 149.847 307.456C152.074 303.999 157.035 302.067 160.506 304.28C162.512 305.56 163.593 307.845 164.572 310.011C165.92 309.076 166.416 307.363 167.035 305.847C167.654 304.331 168.749 302.719 170.387 302.615C171.593 302.539 172.667 303.316 173.823 303.665C175.994 304.321 178.299 303.438 180.394 302.57M44.6555 373.395C54.0421 369.718 63.7859 366.95 73.7047 365.141M87.1278 378.268C83.6442 384.646 80.0043 390.94 76.2121 397.143M106.701 387.6C107.174 395.39 107.344 403.198 107.21 411M176.693 329.607C153.209 337.384 128.672 344.081 106.908 349.397C94.6236 321.873 86.0359 293.388 78.001 265.157M176.693 329.607C186.119 326.485 195.376 323.19 204.215 319.74C189.468 281.891 174.666 231.632 162.122 193C128.316 202.24 97.2433 213.405 66.9 226.28C70.6894 239.105 74.2861 252.104 78.001 265.157M176.693 329.607C154.09 332.642 131.564 340.083 109.241 348.088C97.2688 320.662 87.0089 293.054 78.001 265.157M1 240.548C9.11638 239.406 16.0215 232.362 16.9853 224.241C16.2969 231.234 20.6429 238.428 27.1619 241.088C23.8242 241.276 20.8686 243.572 19.1583 246.437C17.4471 249.303 16.8093 252.677 16.4957 255.998C16.3166 247.767 8.94557 240.344 1 240.548ZM226.146 309.755C233.547 308.713 239.842 302.291 240.721 294.885C240.094 301.262 244.056 307.822 250 310.247C246.956 310.418 244.262 312.512 242.701 315.124C241.141 317.737 240.56 320.813 240.274 323.841C240.11 316.335 233.39 309.568 226.146 309.755Z" stroke="#010101" stroke-width="1.5" stroke-linecap="round" stroke-linejoin="round"/>
<defs>
<clipPath id="clip0_430_481">
<rect width="203" height="189" fill="white" transform="translate(333.653) rotate(45.057)"/>
</clipPath>
</defs>
</svg>
