<svg width="200" height="170" viewBox="0 0 200 170" fill="none" xmlns="http://www.w3.org/2000/svg">
<g clip-path="url(#clip0_442_302)">
<path d="M93.9405 170C137.563 170 172.927 168.162 172.927 165.894C172.927 163.626 137.563 161.787 93.9405 161.787C50.3176 161.787 14.9543 163.626 14.9543 165.894C14.9543 168.162 50.3176 170 93.9405 170Z" fill="#F2F2F2"/>
<path d="M140.088 39.4542H139.19V14.4638C139.19 10.6278 137.691 6.94883 135.023 4.23635C132.355 1.52386 128.737 4.23526e-06 124.963 0H72.8849C69.1117 -7.2604e-06 65.493 1.52384 62.825 4.23631C60.1569 6.94879 58.658 10.6277 58.658 14.4637V151.563C58.658 155.399 60.1569 159.078 62.8249 161.79C65.493 164.503 69.1117 166.027 72.8849 166.027H124.963C128.737 166.027 132.355 164.503 135.023 161.791C137.691 159.078 139.19 155.399 139.19 151.563V57.2428H140.088L140.088 39.4542Z" fill="#3F3D56"/>
<path d="M136.162 14.5647V151.462C136.162 154.327 135.043 157.075 133.05 159.1C131.058 161.126 128.355 162.264 125.537 162.264H73.2089C70.391 162.264 67.6885 161.126 65.6959 159.1C63.7034 157.075 62.5839 154.327 62.5839 151.462V14.5647C62.5839 11.6999 63.7034 8.95241 65.6959 6.92667C67.6885 4.90094 70.391 3.76287 73.2089 3.76282H79.5569C79.245 4.5421 79.1262 5.38737 79.211 6.22427C79.2958 7.06118 79.5816 7.86408 80.0433 8.56234C80.5049 9.2606 81.1283 9.83282 81.8585 10.2287C82.5887 10.6245 83.4035 10.8319 84.231 10.8325H114.066C114.894 10.8319 115.709 10.6245 116.439 10.2287C117.169 9.83281 117.792 9.26058 118.254 8.56232C118.716 7.86406 119.001 7.06117 119.086 6.22427C119.171 5.38736 119.052 4.5421 118.74 3.76282H125.537C128.355 3.76287 131.058 4.90094 133.05 6.92667C135.043 8.95241 136.162 11.6999 136.162 14.5647Z" fill="white"/>
<path d="M119.305 73.5943C118.957 73.7791 118.603 73.954 118.243 74.119C117.915 74.2696 117.583 74.411 117.245 74.5433C117.121 74.5912 116.996 74.6392 116.87 74.6871C115.876 75.0534 114.856 75.3394 113.818 75.5425C113.304 75.6452 112.784 75.7258 112.256 75.7844C111.821 75.8345 111.381 75.8703 110.937 75.8916C110.621 75.9075 110.304 75.9144 109.985 75.9144C108.724 75.9149 107.464 75.795 106.225 75.5562C105.901 75.4969 105.585 75.4262 105.269 75.3486C103.738 74.9757 102.257 74.4198 100.855 73.6924C100.729 73.6285 100.604 73.5601 100.478 73.4939C100.292 73.3936 100.11 73.2886 99.9282 73.1791C100.016 73.0559 100.11 72.935 100.206 72.8164C101.256 71.4935 102.569 70.4104 104.058 69.6377C105.547 68.865 107.18 68.42 108.85 68.3317C110.52 68.2435 112.189 68.514 113.749 69.1255C115.309 69.7371 116.725 70.676 117.904 71.8811C118.314 72.2986 118.693 72.7454 119.04 73.2179C119.132 73.3411 119.219 73.4666 119.305 73.5943Z" fill="#6C63FF"/>
<path d="M110.433 63.5733C115.875 63.5733 120.286 59.0885 120.286 53.5562C120.286 48.024 115.875 43.5392 110.433 43.5392C104.992 43.5392 100.58 48.024 100.58 53.5562C100.58 59.0885 104.992 63.5733 110.433 63.5733Z" fill="#2F2E41"/>
<path d="M113.054 63.5874C116.608 61.6124 117.914 57.0824 115.971 53.4695C114.028 49.8566 109.573 48.5288 106.019 50.5038C102.465 52.4788 101.159 57.0087 103.102 60.6216C105.044 64.2346 109.5 65.5624 113.054 63.5874Z" fill="#A0616A"/>
<path d="M117.242 52.3561C115.566 53.5303 113.577 54.1553 111.542 54.147C112.268 54.6588 113.095 55.0045 113.965 55.1602C111.259 55.7504 108.462 55.7663 105.75 55.2072C105.147 55.1089 104.565 54.9058 104.03 54.6067C103.763 54.4553 103.531 54.2486 103.348 53.9999C103.165 53.7512 103.036 53.4662 102.968 53.1634C102.788 52.1166 103.59 51.1656 104.424 50.5246C105.701 49.5583 107.173 48.8925 108.733 48.5754C110.294 48.2584 111.905 48.2979 113.449 48.6913C114.457 48.9562 115.466 49.4038 116.121 50.2268C116.776 51.0499 116.97 52.3187 116.346 53.1663L117.242 52.3561Z" fill="#2F2E41"/>
<path d="M109.985 34.8513C105.581 34.8507 101.297 36.314 97.787 39.0184C94.2767 41.7227 91.7324 45.5198 90.5418 49.8307C89.3513 54.1417 89.5798 58.7302 91.1926 62.8969C92.8054 67.0636 95.7139 70.5799 99.475 72.91L99.6051 72.9875C99.7128 73.0537 99.8205 73.1176 99.9282 73.1792C100.11 73.2887 100.292 73.3936 100.478 73.494C100.604 73.5602 100.729 73.6286 100.855 73.6925C102.257 74.4198 103.738 74.9758 105.269 75.3487C105.585 75.4262 105.901 75.497 106.225 75.5563C107.465 75.7951 108.724 75.915 109.985 75.9144C110.304 75.9144 110.621 75.9076 110.937 75.8916C111.381 75.8711 111.821 75.8353 112.256 75.7844C112.784 75.7251 113.304 75.6445 113.818 75.5426C114.856 75.3395 115.876 75.0534 116.87 74.6871C116.996 74.6392 117.121 74.5913 117.245 74.5434C117.583 74.4111 117.916 74.2696 118.243 74.1191C118.602 73.9548 118.956 73.7799 119.305 73.5944C122.798 71.7345 125.685 68.884 127.616 65.3886C127.625 65.3704 127.636 65.3521 127.645 65.3338C128.675 63.4544 129.406 61.4209 129.811 59.309C130.378 56.3359 130.292 53.2719 129.559 50.3366C128.825 47.4012 127.463 44.667 125.568 42.3298C123.673 39.9926 121.294 38.1101 118.6 36.8173C115.906 35.5244 112.964 34.853 109.985 34.8513ZM127.277 65.0669C127.259 65.0989 127.244 65.1308 127.226 65.1605C125.333 68.6042 122.486 71.4063 119.04 73.218C118.696 73.4005 118.347 73.5716 117.992 73.7312C117.698 73.8658 117.397 73.9936 117.094 74.1122C116.966 74.1624 116.836 74.2126 116.706 74.2582C115.848 74.577 114.968 74.8331 114.074 75.0247C113.411 75.1683 112.74 75.2757 112.066 75.3464C111.65 75.392 111.229 75.424 110.804 75.4399C110.533 75.4513 110.259 75.4582 109.985 75.4582C108.764 75.4596 107.546 75.3443 106.346 75.1137C105.616 74.9768 104.894 74.7971 104.185 74.5753C103.104 74.2359 102.054 73.8031 101.046 73.2818C100.929 73.2202 100.812 73.1586 100.698 73.0948C100.534 73.0058 100.368 72.9145 100.206 72.8165C100.085 72.748 99.964 72.675 99.8452 72.602C99.7756 72.5609 99.706 72.5176 99.6364 72.4743C96.3389 70.4155 93.7085 67.4177 92.0715 63.8529C90.4345 60.2881 89.863 56.3132 90.4279 52.4212C90.9928 48.5292 92.6692 44.8914 95.2492 41.9592C97.8291 39.027 101.199 36.9294 104.941 35.9266C108.683 34.9239 112.632 35.0601 116.299 36.3183C119.965 37.5765 123.187 39.9015 125.566 43.0046C127.945 46.1078 129.375 49.8527 129.679 53.7747C129.983 57.6966 129.148 61.6231 127.277 65.0669Z" fill="#3F3D56"/>
<path d="M105.444 43.6773C105.338 42.544 103.972 41.8463 102.904 42.1886C101.836 42.531 101.135 43.6242 100.923 44.7421C100.821 45.2129 100.811 45.6995 100.895 46.174C100.978 46.6486 101.153 47.1018 101.409 47.5075C101.949 48.2974 102.941 48.7903 103.866 48.5898C104.922 48.3609 105.654 47.3124 105.863 46.2353C106.073 45.1582 105.865 44.0477 105.657 42.9702L105.444 43.6773Z" fill="#2F2E41"/>
<path d="M120.474 45.2965C120.368 44.1631 119.002 43.4654 117.934 43.8078C116.866 44.1501 116.165 45.2433 115.953 46.3612C115.851 46.832 115.842 47.3186 115.925 47.7932C116.008 48.2677 116.183 48.7209 116.439 49.1267C116.979 49.9165 117.971 50.4094 118.896 50.2089C119.952 49.98 120.684 48.9315 120.894 47.8544C121.103 46.7773 120.895 45.6668 120.688 44.5894L120.474 45.2965Z" fill="#2F2E41"/>
<path d="M75.0781 63.5883C74.9384 63.5881 74.8002 63.5584 74.6725 63.5008C74.5447 63.4433 74.4302 63.3593 74.3362 63.2542L63.2013 50.9049C63.075 50.765 62.9215 50.6534 62.7505 50.5769C62.5796 50.5004 62.3949 50.4609 62.2081 50.4606H3.36797C2.47504 50.4596 1.61896 50.0985 0.987562 49.4566C0.356162 48.8147 0.00100254 47.9444 0 47.0366V25.4642C0.00100194 24.5564 0.356162 23.6861 0.987562 23.0442C1.61896 22.4023 2.47504 22.0412 3.36797 22.0402H79.5998C80.4927 22.0412 81.3488 22.4023 81.9802 23.0442C82.6116 23.6861 82.9668 24.5564 82.9678 25.4642V47.0366C82.9668 47.9444 82.6116 48.8147 81.9802 49.4566C81.3488 50.0986 80.4927 50.4596 79.5998 50.4606H77.4386C77.0814 50.4611 76.7389 50.6055 76.4863 50.8623C76.2337 51.1192 76.0916 51.4673 76.0912 51.8305V62.5601C76.0921 62.7673 76.0309 62.9698 75.9159 63.1408C75.8008 63.3117 75.6374 63.4431 75.4472 63.5173C75.3296 63.5641 75.2044 63.5882 75.0781 63.5883Z" fill="white"/>
<path d="M75.0781 63.5883C74.9384 63.5881 74.8002 63.5584 74.6725 63.5008C74.5447 63.4433 74.4302 63.3593 74.3362 63.2542L63.2013 50.9049C63.075 50.765 62.9215 50.6534 62.7505 50.5769C62.5796 50.5004 62.3949 50.4609 62.2081 50.4606H3.36797C2.47504 50.4596 1.61896 50.0985 0.987562 49.4566C0.356162 48.8147 0.00100254 47.9444 0 47.0366V25.4642C0.00100194 24.5564 0.356162 23.6861 0.987562 23.0442C1.61896 22.4023 2.47504 22.0412 3.36797 22.0402H79.5998C80.4927 22.0412 81.3488 22.4023 81.9802 23.0442C82.6116 23.6861 82.9668 24.5564 82.9678 25.4642V47.0366C82.9668 47.9444 82.6116 48.8147 81.9802 49.4566C81.3488 50.0986 80.4927 50.4596 79.5998 50.4606H77.4386C77.0814 50.4611 76.7389 50.6055 76.4863 50.8623C76.2337 51.1192 76.0916 51.4673 76.0912 51.8305V62.5601C76.0921 62.7673 76.0309 62.9698 75.9159 63.1408C75.8008 63.3117 75.6374 63.4431 75.4472 63.5173C75.3296 63.5641 75.2044 63.5882 75.0781 63.5883ZM3.36797 22.4964C2.59402 22.4973 1.85202 22.8103 1.30476 23.3666C0.757494 23.923 0.449659 24.6774 0.448785 25.4642V47.0366C0.44966 47.8234 0.757497 48.5778 1.30476 49.1342C1.85203 49.6905 2.59402 50.0035 3.36797 50.0044H62.2081C62.4571 50.0047 62.7033 50.0574 62.9312 50.1594C63.1591 50.2613 63.3637 50.4101 63.5321 50.5965L74.6669 62.9459C74.7434 63.0307 74.8433 63.09 74.9534 63.1161C75.0636 63.1422 75.179 63.1338 75.2844 63.0921C75.3899 63.0504 75.4805 62.9773 75.5443 62.8824C75.6082 62.7875 75.6424 62.6752 75.6424 62.5601V51.8305C75.6429 51.3464 75.8323 50.8822 76.1691 50.5399C76.5058 50.1975 76.9624 50.0049 77.4386 50.0044H79.5998C80.3737 50.0035 81.1157 49.6905 81.663 49.1342C82.2103 48.5778 82.5181 47.8234 82.519 47.0366V25.4642C82.5181 24.6774 82.2103 23.923 81.663 23.3666C81.1157 22.8103 80.3737 22.4973 79.5998 22.4964H3.36797Z" fill="#3F3D56"/>
<path d="M8.26124 31.5563C9.88888 31.5563 11.2083 30.2149 11.2083 28.5601C11.2083 26.9054 9.88888 25.564 8.26124 25.564C6.6336 25.564 5.31413 26.9054 5.31413 28.5601C5.31413 30.2149 6.6336 31.5563 8.26124 31.5563Z" fill="#6C63FF"/>
<path d="M76.1615 45.139H6.80626C6.59969 45.1393 6.3951 45.0981 6.20419 45.0179C6.01327 44.9377 5.83978 44.8201 5.69362 44.6717C5.54747 44.5233 5.43152 44.347 5.35241 44.153C5.27331 43.959 5.23259 43.7511 5.23259 43.5411C5.23259 43.3311 5.27331 43.1231 5.35241 42.9291C5.43152 42.7351 5.54747 42.5589 5.69362 42.4105C5.83978 42.2621 6.01327 42.1444 6.20419 42.0642C6.3951 41.984 6.59969 41.9429 6.80626 41.9431H76.1615C76.578 41.9436 76.9773 42.1122 77.2717 42.4118C77.5661 42.7114 77.7314 43.1176 77.7314 43.5411C77.7314 43.9645 77.5661 44.3707 77.2717 44.6703C76.9773 44.9699 76.578 45.1385 76.1615 45.139Z" fill="#E6E6E6"/>
<path d="M53.567 38.3477H6.80626C6.59969 38.3479 6.3951 38.3068 6.20419 38.2266C6.01327 38.1464 5.83978 38.0287 5.69362 37.8803C5.54747 37.7319 5.43152 37.5556 5.35241 37.3616C5.27331 37.1677 5.23259 36.9597 5.23259 36.7497C5.23259 36.5397 5.27331 36.3317 5.35241 36.1377C5.43152 35.9437 5.54747 35.7675 5.69362 35.6191C5.83978 35.4707 6.01327 35.353 6.20419 35.2728C6.3951 35.1926 6.59969 35.1515 6.80626 35.1517H53.567C53.9839 35.1517 54.3837 35.3201 54.6784 35.6198C54.9732 35.9194 55.1388 36.3259 55.1388 36.7497C55.1388 37.1735 54.9732 37.5799 54.6784 37.8796C54.3837 38.1793 53.9839 38.3477 53.567 38.3477Z" fill="#E6E6E6"/>
<path d="M124.553 136.747C124.363 136.672 124.199 136.541 124.084 136.37C123.969 136.199 123.908 135.997 123.909 135.789V125.06C123.908 124.697 123.766 124.348 123.514 124.092C123.261 123.835 122.919 123.69 122.561 123.69H120.4C119.507 123.689 118.651 123.328 118.02 122.686C117.388 122.044 117.033 121.174 117.032 120.266V98.6935C117.033 97.7857 117.388 96.9153 118.02 96.2734C118.651 95.6315 119.507 95.2704 120.4 95.2694H196.632C197.525 95.2704 198.381 95.6315 199.012 96.2734C199.644 96.9153 199.999 97.7857 200 98.6935V120.266C199.999 121.174 199.644 122.044 199.012 122.686C198.381 123.328 197.525 123.689 196.632 123.69H137.792C137.605 123.69 137.42 123.73 137.249 123.806C137.079 123.883 136.925 123.994 136.799 124.134L125.664 136.483C125.57 136.589 125.455 136.673 125.328 136.73C125.2 136.788 125.062 136.817 124.922 136.818C124.796 136.817 124.67 136.793 124.553 136.747Z" fill="white"/>
<path d="M124.553 136.747C124.363 136.672 124.199 136.541 124.084 136.37C123.969 136.199 123.908 135.997 123.909 135.789V125.06C123.908 124.697 123.766 124.348 123.514 124.092C123.261 123.835 122.919 123.69 122.561 123.69H120.4C119.507 123.689 118.651 123.328 118.02 122.686C117.388 122.044 117.033 121.174 117.032 120.266V98.6935C117.033 97.7857 117.388 96.9153 118.02 96.2734C118.651 95.6315 119.507 95.2704 120.4 95.2694H196.632C197.525 95.2704 198.381 95.6315 199.012 96.2734C199.644 96.9153 199.999 97.7857 200 98.6935V120.266C199.999 121.174 199.644 122.044 199.012 122.686C198.381 123.328 197.525 123.689 196.632 123.69H137.792C137.605 123.69 137.42 123.73 137.249 123.806C137.079 123.883 136.925 123.994 136.799 124.134L125.664 136.483C125.57 136.589 125.455 136.673 125.328 136.73C125.2 136.788 125.062 136.817 124.922 136.818C124.796 136.817 124.67 136.793 124.553 136.747ZM120.4 95.7257C119.626 95.7266 118.884 96.0395 118.337 96.5959C117.79 97.1523 117.482 97.9066 117.481 98.6935V120.266C117.482 121.053 117.79 121.807 118.337 122.363C118.884 122.92 119.626 123.233 120.4 123.234H122.561C123.038 123.234 123.494 123.427 123.831 123.769C124.168 124.111 124.357 124.576 124.358 125.06V135.789C124.358 135.904 124.392 136.017 124.456 136.112C124.52 136.207 124.61 136.28 124.716 136.321C124.821 136.363 124.936 136.371 125.047 136.345C125.157 136.319 125.257 136.26 125.333 136.175L136.468 123.826C136.636 123.639 136.841 123.491 137.069 123.389C137.297 123.287 137.543 123.234 137.792 123.234H196.632C197.406 123.233 198.148 122.92 198.695 122.363C199.243 121.807 199.55 121.053 199.551 120.266V98.6935C199.55 97.9066 199.243 97.1523 198.695 96.5959C198.148 96.0395 197.406 95.7266 196.632 95.7257H120.4Z" fill="#3F3D56"/>
<path d="M100.792 143.427C97.666 145.462 94.0441 146.572 90.3324 146.632C86.6208 146.692 82.966 145.7 79.7777 143.767C80.3386 142.705 81.0492 141.733 81.8871 140.881C83.1798 139.56 84.7532 138.559 86.4861 137.953C88.2191 137.347 90.0657 137.153 91.8839 137.386C93.7021 137.618 95.4437 138.272 96.9747 139.296C98.5058 140.32 99.7856 141.687 100.716 143.292C100.74 143.335 100.767 143.381 100.792 143.427Z" fill="#6C63FF"/>
<path d="M89.4076 132.517C94.8854 132.517 99.3261 128.003 99.3261 122.434C99.3261 116.865 94.8854 112.35 89.4076 112.35C83.9297 112.35 79.4891 116.865 79.4891 122.434C79.4891 128.003 83.9297 132.517 89.4076 132.517Z" fill="#2F2E41"/>
<path d="M96.7879 129.546C98.7434 125.909 97.4287 121.349 93.8513 119.361C90.2739 117.373 85.7885 118.71 83.833 122.347C81.8774 125.984 83.1921 130.544 86.7695 132.532C90.3469 134.52 94.8323 133.183 96.7879 129.546Z" fill="#FFB8B8"/>
<path d="M82.5536 121.226C84.2405 122.408 86.2427 123.037 88.2915 123.029C87.5607 123.544 86.7287 123.892 85.8528 124.049C88.5768 124.643 91.3921 124.659 94.1225 124.096C94.7294 123.997 95.315 123.792 95.8536 123.491C96.122 123.339 96.3559 123.131 96.54 122.88C96.7241 122.63 96.8543 122.343 96.9222 122.038C97.1036 120.985 96.296 120.027 95.4566 119.382C94.1716 118.409 92.6899 117.739 91.1188 117.42C89.5477 117.101 87.9265 117.141 86.3724 117.537C85.3576 117.803 84.341 118.254 83.6819 119.082C83.0228 119.911 82.8275 121.188 83.4555 122.041L82.5536 121.226Z" fill="#2F2E41"/>
<path d="M90.0145 146.862C85.157 146.861 80.4628 145.079 76.7931 141.843C73.1234 138.608 70.7242 134.135 70.0356 129.247C69.347 124.358 70.4152 119.381 73.0442 115.228C75.6732 111.076 79.6868 108.026 84.3487 106.639C89.0106 105.251 94.0082 105.619 98.4249 107.675C102.842 109.73 106.381 113.336 108.394 117.831C110.408 122.325 110.759 127.406 109.385 132.143C108.011 136.88 105.003 140.954 100.913 143.619C97.6611 145.739 93.8781 146.865 90.0145 146.862ZM90.0145 106.255C86.1085 106.255 82.2901 107.432 79.0422 109.638C75.7943 111.844 73.2628 114.98 71.7679 118.649C70.2729 122.317 69.8817 126.354 70.6436 130.249C71.4056 134.144 73.2865 137.721 76.0484 140.529C78.8104 143.337 82.3294 145.25 86.1604 146.024C89.9914 146.799 93.9623 146.401 97.5709 144.881C101.18 143.361 104.264 140.788 106.434 137.486C108.603 134.184 109.761 130.302 109.761 126.331C109.755 121.008 107.673 115.906 103.971 112.142C100.269 108.378 95.2498 106.261 90.0145 106.255Z" fill="#3F3D56"/>
<path d="M126.516 104.557C128.144 104.557 129.463 103.216 129.463 101.561C129.463 99.9065 128.144 98.5651 126.516 98.5651C124.889 98.5651 123.569 99.9065 123.569 101.561C123.569 103.216 124.889 104.557 126.516 104.557Z" fill="#6C63FF"/>
<path d="M194.416 118.14H125.061C124.855 118.14 124.65 118.099 124.459 118.019C124.268 117.939 124.095 117.821 123.949 117.673C123.802 117.524 123.686 117.348 123.607 117.154C123.528 116.96 123.487 116.752 123.487 116.542C123.487 116.332 123.528 116.124 123.607 115.93C123.686 115.736 123.802 115.56 123.949 115.412C124.095 115.263 124.268 115.145 124.459 115.065C124.65 114.985 124.855 114.944 125.061 114.944H194.416C194.833 114.944 195.233 115.113 195.528 115.412C195.823 115.712 195.988 116.118 195.988 116.542C195.988 116.966 195.823 117.372 195.528 117.672C195.233 117.972 194.833 118.14 194.416 118.14Z" fill="#E6E6E6"/>
<path d="M171.822 111.349H125.061C124.855 111.349 124.65 111.308 124.459 111.228C124.268 111.147 124.095 111.03 123.949 110.881C123.802 110.733 123.686 110.557 123.607 110.363C123.528 110.169 123.487 109.961 123.487 109.751C123.487 109.541 123.528 109.333 123.607 109.139C123.686 108.945 123.802 108.769 123.949 108.62C124.095 108.472 124.268 108.354 124.459 108.274C124.65 108.194 124.855 108.153 125.061 108.153H171.822C172.238 108.153 172.638 108.322 172.932 108.622C173.227 108.921 173.392 109.327 173.392 109.751C173.392 110.174 173.227 110.58 172.932 110.88C172.638 111.18 172.238 111.348 171.822 111.349Z" fill="#E6E6E6"/>
<path d="M124.458 138.789C127.495 138.789 129.956 138.511 129.956 138.169C129.956 137.826 127.495 137.548 124.458 137.548C121.421 137.548 118.959 137.826 118.959 138.169C118.959 138.511 121.421 138.789 124.458 138.789Z" fill="#F2F2F2"/>
<path d="M75.3159 65.7878C78.3527 65.7878 80.8144 65.5101 80.8144 65.1674C80.8144 64.8248 78.3527 64.547 75.3159 64.547C72.2792 64.547 69.8174 64.8248 69.8174 65.1674C69.8174 65.5101 72.2792 65.7878 75.3159 65.7878Z" fill="#F2F2F2"/>
</g>
<defs>
<clipPath id="clip0_442_302">
<rect width="200" height="170" fill="white"/>
</clipPath>
</defs>
</svg>
