<svg width="48" height="48" viewBox="0 0 48 48" fill="none" xmlns="http://www.w3.org/2000/svg">
<path d="M25 23.5846V15C25 14.7167 24.904 14.4792 24.7121 14.2875C24.5202 14.0958 24.2824 14 23.9986 14C23.7149 14 23.4776 14.0958 23.2866 14.2875C23.0955 14.4792 23 14.7167 23 15V23.7577C23 23.9619 23.0372 24.1598 23.1115 24.3512C23.1859 24.5427 23.3102 24.7256 23.4846 24.9L30.5846 32C30.7718 32.1872 31.0013 32.2872 31.2731 32.3C31.5448 32.3128 31.7872 32.2128 32 32C32.2128 31.7872 32.3193 31.5513 32.3193 31.2923C32.3193 31.0333 32.2128 30.7974 32 30.5846L25 23.5846ZM24.0067 42C21.5176 42 19.1774 41.5277 16.9862 40.583C14.795 39.6384 12.8889 38.3563 11.2679 36.737C9.64705 35.1176 8.36383 33.2133 7.4183 31.0241C6.47277 28.8349 6 26.4958 6 24.0067C6 21.5176 6.47232 19.1774 7.41695 16.9862C8.36162 14.795 9.64365 12.8889 11.2631 11.268C12.8825 9.64705 14.7867 8.36383 16.9759 7.4183C19.1651 6.47277 21.5042 6 23.9933 6C26.4824 6 28.8226 6.47232 31.0138 7.41695C33.205 8.36162 35.1111 9.64365 36.732 11.263C38.353 12.8824 39.6362 14.7867 40.5817 16.9759C41.5272 19.1651 42 21.5042 42 23.9933C42 26.4824 41.5277 28.8226 40.583 31.0138C39.6384 33.205 38.3563 35.1111 36.737 36.732C35.1176 38.353 33.2133 39.6362 31.0241 40.5817C28.8349 41.5272 26.4958 42 24.0067 42ZM24 40C28.4333 40 32.2083 38.4417 35.325 35.325C38.4417 32.2083 40 28.4333 40 24C40 19.5667 38.4417 15.7917 35.325 12.675C32.2083 9.55833 28.4333 8 24 8C19.5667 8 15.7917 9.55833 12.675 12.675C9.55833 15.7917 8 19.5667 8 24C8 28.4333 9.55833 32.2083 12.675 35.325C15.7917 38.4417 19.5667 40 24 40Z" fill="white"/>
</svg>
