<svg width="725" height="429" viewBox="0 0 725 429" fill="none" xmlns="http://www.w3.org/2000/svg">
<path d="M112.955 338.929V340.389C112.957 342.809 113.92 345.13 115.631 346.841C117.343 348.553 119.664 349.515 122.085 349.517H199.507C201.929 349.516 204.25 348.554 205.962 346.842C207.674 345.131 208.637 342.81 208.637 340.389V338.929C208.642 336.792 207.892 334.723 206.519 333.087C206.062 332.543 205.545 332.053 204.978 331.626H164.82C164.336 331.626 163.872 331.434 163.53 331.091C163.187 330.749 162.995 330.285 162.995 329.801H122.085C119.665 329.804 117.344 330.767 115.633 332.478C113.921 334.189 112.958 336.509 112.955 338.929Z" fill="#3F3D56"/>
<path d="M155.687 416.336H165.182V349.154H155.687V416.336Z" fill="#3F3D56"/>
<path d="M128.662 416.003C128.662 417.028 143.051 416.4 160.8 416.4C178.549 416.4 192.938 417.028 192.938 416.003C192.938 414.977 178.549 406.843 160.8 406.843C143.051 406.843 128.662 414.977 128.662 416.003Z" fill="#3F3D56"/>
<path d="M127.855 337.388L160.256 342.558L197.901 348.568L210.953 350.649C212.206 350.847 213.486 350.539 214.513 349.795C215.54 349.05 216.23 347.929 216.431 346.676L217.023 342.981L217.57 339.542L218.023 336.709C218.125 336.075 218.098 335.427 217.942 334.805C217.787 334.182 217.506 333.598 217.117 333.087C216.658 332.458 216.048 331.956 215.342 331.626H164.821C164.336 331.626 163.872 331.434 163.53 331.091C163.187 330.749 162.995 330.285 162.995 329.801V328.362C162.995 327.878 163.187 327.414 163.53 327.071C163.872 326.729 164.336 326.537 164.821 326.536H184.673L175.521 325.076L147.386 320.585L130.959 317.963C129.703 317.764 128.42 318.072 127.39 318.818C126.36 319.564 125.669 320.688 125.467 321.943L123.874 331.904C123.68 333.158 123.989 334.438 124.735 335.465C125.481 336.493 126.602 337.184 127.855 337.388Z" fill="#6C63FF"/>
<path d="M197.9 336.001V391.652C197.902 392.92 198.407 394.136 199.304 395.032C200.2 395.929 201.416 396.433 202.684 396.435H212.786C214.054 396.433 215.27 395.929 216.167 395.032C217.064 394.136 217.568 392.92 217.57 391.652V336.001C217.572 334.945 217.219 333.919 216.569 333.087C216.088 332.447 215.449 331.944 214.714 331.626H200.749C200.018 331.946 199.381 332.449 198.901 333.087C198.252 333.919 197.9 334.945 197.9 336.001Z" fill="#6C63FF"/>
<path d="M167.457 241.807C167.508 242.303 167.637 242.788 167.837 243.245C168.141 243.943 168.61 244.557 169.203 245.034L169.225 245.049L198.047 268.424L198.47 268.76L204.438 273.601L206.241 275.062H237.451L235.655 273.601L210.989 253.593L194.46 240.186L181.598 229.758C180.845 229.145 179.922 228.778 178.954 228.706C178.95 228.702 178.945 228.7 178.939 228.699C178.652 228.678 178.363 228.683 178.077 228.714C177.648 228.757 177.228 228.86 176.828 229.02C176.555 229.119 176.295 229.252 176.054 229.415C175.6 229.691 175.197 230.045 174.863 230.459L168.596 238.177L168.502 238.302C168.104 238.788 167.807 239.348 167.628 239.95C167.449 240.551 167.391 241.182 167.457 241.807Z" fill="#6C63FF"/>
<path d="M169.225 245.048C169.768 246.406 170.558 247.652 171.555 248.722L190.743 269.329C191.206 269.755 191.749 270.085 192.341 270.3C192.933 270.516 193.561 270.613 194.19 270.585C194.819 270.557 195.436 270.405 196.007 270.138C196.577 269.871 197.089 269.495 197.513 269.03L198.047 268.423L198.28 268.161L206.57 258.865L210.135 254.863C210.372 254.616 210.578 254.342 210.748 254.045C210.836 253.899 210.916 253.746 210.989 253.592C211.288 252.91 211.425 252.168 211.391 251.424C211.366 250.79 211.215 250.169 210.945 249.595C210.675 249.022 210.293 248.509 209.82 248.086L187.572 231.086C185.118 229.204 182.027 228.351 178.954 228.706C178.95 228.702 178.945 228.699 178.939 228.698C178.257 228.784 177.582 228.926 176.923 229.122C176.631 229.202 176.346 229.305 176.054 229.414C174.168 230.124 172.495 231.305 171.197 232.846C169.784 234.506 168.853 236.521 168.506 238.672C168.158 240.823 168.407 243.029 169.225 245.048Z" fill="#2F2E41"/>
<path d="M160.114 211.735C180.333 211.735 196.724 195.348 196.724 175.133C196.724 154.919 180.333 138.532 160.114 138.532C139.896 138.532 123.505 154.919 123.505 175.133C123.505 195.348 139.896 211.735 160.114 211.735Z" fill="#6C63FF"/>
<path d="M150.366 332.342L163.944 334.503L164.251 334.554L184.892 337.848L197.901 339.929L217.023 342.981L217.57 343.069L220.411 343.522L233.464 345.603C234.717 345.8 235.997 345.493 237.024 344.749C238.051 344.004 238.741 342.882 238.942 341.63L240.081 334.503L240.534 331.67C240.534 331.655 240.541 331.641 240.541 331.626H164.821C164.336 331.626 163.872 331.433 163.53 331.091C163.187 330.749 162.995 330.284 162.995 329.8V328.362C162.995 327.878 163.187 327.413 163.53 327.071C163.872 326.729 164.336 326.536 164.821 326.536H188.748V318.555L187.288 318.321L180.071 317.167L153.463 312.924C152.209 312.725 150.927 313.032 149.898 313.776C148.87 314.521 148.179 315.643 147.977 316.897L147.386 320.585L146.385 326.865C146.189 328.118 146.498 329.399 147.244 330.425C147.99 331.452 149.113 332.141 150.366 332.342Z" fill="#6C63FF"/>
<path d="M110.289 300.007C110.289 329.844 113.32 347.691 160.066 342.579C160.131 342.572 160.19 342.565 160.255 342.558C168.593 341.734 176.839 340.158 184.892 337.848C189.077 336.626 193.144 335.032 197.046 333.086C197.966 332.619 198.85 332.13 199.719 331.626H164.82C164.336 331.626 163.872 331.433 163.529 331.091C163.187 330.749 162.995 330.284 162.994 329.8V328.362C162.995 327.878 163.187 327.413 163.529 327.071C163.872 326.729 164.336 326.536 164.82 326.536H188.748V280.414C188.75 278.995 189.315 277.635 190.319 276.632C191.322 275.628 192.683 275.064 194.102 275.062H213.568C213.399 274.58 213.232 274.09 213.049 273.601C211.223 268.549 209.058 263.626 206.57 258.865C203.162 252.253 199.105 245.996 194.46 240.185C191.226 236.136 187.595 232.42 183.621 229.093C176.295 223.047 168.319 219.308 160.226 219.308C130.382 219.308 110.289 270.169 110.289 300.007Z" fill="#2F2E41"/>
<path d="M159.345 188.699L159.307 187.331C161.852 187.261 164.096 187.101 165.782 185.869C166.26 185.5 166.653 185.033 166.934 184.498C167.215 183.964 167.378 183.375 167.411 182.773C167.44 182.404 167.385 182.034 167.248 181.691C167.111 181.347 166.897 181.04 166.622 180.793C165.503 179.848 163.702 180.154 162.389 180.756L161.257 181.275L163.428 165.415L164.783 165.601L162.937 179.091C163.693 178.811 164.507 178.724 165.305 178.839C166.103 178.954 166.859 179.266 167.505 179.749C167.94 180.128 168.281 180.603 168.502 181.135C168.722 181.668 168.817 182.245 168.778 182.821C168.738 183.631 168.521 184.422 168.143 185.14C167.765 185.857 167.234 186.483 166.589 186.974C164.422 188.557 161.607 188.636 159.345 188.699Z" fill="#2F2E41"/>
<path d="M178.855 166.764H171.487V168.132H178.855V166.764Z" fill="#2F2E41"/>
<path d="M155.597 166.764H148.229V168.132H155.597V166.764Z" fill="#2F2E41"/>
<path d="M130.897 165.077C133.744 160.792 138.754 158.976 143.695 158.534C149.255 158.037 154.628 159.109 160.057 160.15C166.032 161.297 172.356 162.369 178.376 160.92C181.04 160.304 183.529 159.092 185.655 157.374C187.781 155.657 189.49 153.479 190.652 151.005C192.857 146.179 193.332 140.74 191.997 135.605C190.424 130.152 187.231 125.305 182.839 121.708C174.175 114.299 162.45 110.97 151.172 111.283C139.937 111.573 129.078 115.391 120.134 122.195C111.175 129.244 104.87 139.121 102.25 150.215C99.5093 161.217 100.402 172.81 104.795 183.263C107.263 188.986 110.832 194.147 113.586 199.726C116.15 204.921 118.125 210.961 116.53 216.756C115.828 219.34 114.481 221.704 112.614 223.625C110.747 225.547 108.423 226.962 105.859 227.738C103.511 228.353 101.027 228.191 98.7796 227.273C96.5324 226.356 94.6438 224.734 93.3979 222.652C90.8183 218.585 90.7566 213.258 94.6297 209.975C95.6063 209.133 96.7438 208.499 97.9732 208.111C99.2025 207.723 100.498 207.588 101.781 207.716C103.064 207.844 104.307 208.232 105.436 208.855C106.564 209.479 107.554 210.325 108.345 211.343C109.916 213.384 110.619 215.961 110.302 218.517C110.111 219.808 112.088 220.365 112.281 219.062C112.743 216.359 112.231 213.581 110.835 211.221C109.439 208.86 107.25 207.073 104.659 206.175C102.067 205.278 99.2415 205.33 96.6847 206.321C94.1278 207.313 92.0061 209.179 90.6975 211.589C88.3618 215.979 89.622 221.275 92.587 225.028C94.1167 227.027 96.1901 228.543 98.5592 229.395C100.928 230.247 103.492 230.398 105.945 229.831C111.342 228.584 115.757 224.296 117.834 219.256C120.145 213.646 119.086 207.385 116.833 201.941C114.397 196.056 110.78 190.778 107.919 185.106C105.329 179.981 103.681 174.433 103.053 168.725C101.797 157.264 104.399 145.711 110.447 135.894C116.612 126.229 126.022 119.079 136.987 115.728C147.872 112.231 159.623 112.542 170.308 116.609C180.736 120.716 190.804 129.668 190.683 141.691C190.632 146.826 188.725 152.064 184.79 155.489C180.088 159.583 173.541 159.933 167.63 159.294C161.681 158.651 155.905 156.914 149.931 156.471C144.734 156.086 139.128 156.486 134.489 159.067C132.328 160.272 130.489 161.978 129.125 164.042C128.392 165.145 130.169 166.173 130.897 165.077Z" fill="#2F2E41"/>
<path d="M136.722 254.659C136.78 254.791 136.846 254.92 136.919 255.046C136.992 255.177 137.073 255.303 137.16 255.425L153.17 278.464L154.412 280.254L167.472 299.035L180.071 317.167L185.169 324.513C185.306 324.714 185.46 324.902 185.63 325.076C186.418 325.905 187.478 326.423 188.617 326.536H188.748V295.202L187.287 293.099L170.905 269.526L153.309 244.209C152.585 243.168 151.477 242.456 150.228 242.23C148.979 242.004 147.692 242.283 146.648 243.004L141.25 246.75L138.351 248.766C137.434 249.403 136.769 250.342 136.472 251.418C136.174 252.494 136.263 253.641 136.722 254.659Z" fill="#6C63FF"/>
<path d="M134.217 254.096L134.94 255.55L134.947 255.557L135.145 255.944L146.882 279.239C147.544 280.322 148.607 281.099 149.841 281.4C151.074 281.701 152.377 281.502 153.463 280.845L154.223 280.37L154.412 280.254L169.547 270.76C170.087 270.433 170.557 270.003 170.93 269.493C171.302 268.984 171.57 268.405 171.718 267.791C171.866 267.178 171.891 266.541 171.792 265.917C171.692 265.294 171.47 264.696 171.139 264.159L154.515 241.624C152.885 239.416 150.545 237.835 147.887 237.149C145.23 236.463 142.417 236.713 139.921 237.856C139.358 238.11 138.816 238.408 138.3 238.747C135.856 240.361 134.091 242.816 133.338 245.645C132.586 248.475 132.898 251.482 134.217 254.096Z" fill="#2F2E41"/>
<path d="M220.411 331.626V386.606C220.413 387.874 220.918 389.09 221.815 389.986C222.712 390.883 223.927 391.387 225.196 391.389H235.297C236.565 391.387 237.781 390.883 238.678 389.986C239.575 389.09 240.079 387.874 240.081 386.606V331.626H220.411Z" fill="#6C63FF"/>
<path d="M162 328.761V330.199C162.001 330.959 162.265 331.696 162.747 332.284C163.229 332.872 163.899 333.276 164.644 333.427C164.746 333.441 164.849 333.463 164.951 333.471C165.06 333.478 165.17 333.485 165.287 333.485H277.886C279.693 333.485 281.427 332.767 282.706 331.49C283.985 330.212 284.705 328.48 284.707 326.672V280.813C284.705 279.006 283.985 277.273 282.706 275.996C281.427 274.718 279.693 274 277.886 274H194.568C192.762 274.002 191.03 274.72 189.752 275.998C188.474 277.275 187.756 279.007 187.754 280.813V325.475H165.287C164.415 325.475 163.579 325.821 162.963 326.437C162.346 327.053 162 327.889 162 328.761Z" fill="white"/>
<path d="M161.534 328.362V329.801C161.535 330.561 161.798 331.298 162.28 331.886C162.762 332.474 163.432 332.878 164.178 333.028C164.28 333.043 164.382 333.065 164.484 333.072C164.594 333.08 164.703 333.087 164.82 333.087H277.419C279.227 333.086 280.961 332.369 282.24 331.091C283.519 329.814 284.239 328.081 284.241 326.274V280.415C284.239 278.607 283.519 276.875 282.24 275.597C280.961 274.32 279.227 273.602 277.419 273.602H194.102C192.295 273.604 190.563 274.322 189.286 275.599C188.008 276.877 187.289 278.608 187.287 280.415V325.076H164.82C163.949 325.076 163.113 325.422 162.496 326.039C161.88 326.655 161.534 327.491 161.534 328.362ZM162.994 329.801V328.362C162.995 327.878 163.187 327.414 163.529 327.072C163.872 326.729 164.336 326.537 164.82 326.537H188.748V280.415C188.75 278.996 189.315 277.635 190.319 276.632C191.322 275.629 192.683 275.064 194.102 275.062H277.419C278.84 275.063 280.202 275.626 281.207 276.63C282.212 277.633 282.778 278.995 282.78 280.415V326.274C282.778 327.694 282.212 329.055 281.207 330.058C280.202 331.062 278.84 331.626 277.419 331.626H164.82C164.336 331.626 163.872 331.434 163.529 331.091C163.187 330.749 162.995 330.285 162.994 329.801Z" fill="#3F3D56"/>
<path d="M235.764 308.96C238.866 308.96 241.381 306.446 241.381 303.345C241.381 300.243 238.866 297.729 235.764 297.729C232.662 297.729 230.147 300.243 230.147 303.345C230.147 306.446 232.662 308.96 235.764 308.96Z" fill="#6C63FF"/>
<path d="M188.771 325.85H187.31V332.422H188.771V325.85Z" fill="#3F3D56"/>
<path d="M724.1 28.8622H335.421C335.183 28.8622 334.954 28.7674 334.785 28.5988C334.616 28.4301 334.521 28.2013 334.521 27.9627C334.521 27.7241 334.616 27.4953 334.785 27.3266C334.954 27.1579 335.183 27.0632 335.421 27.0632H724.1C724.339 27.0632 724.568 27.1579 724.737 27.3266C724.905 27.4953 725 27.7241 725 27.9627C725 28.2013 724.905 28.4301 724.737 28.5988C724.568 28.7674 724.339 28.8622 724.1 28.8622Z" fill="#CACACA"/>
<path d="M369.595 16.2693C374.089 16.2693 377.732 12.6273 377.732 8.13465C377.732 3.64201 374.089 0 369.595 0C365.102 0 361.459 3.64201 361.459 8.13465C361.459 12.6273 365.102 16.2693 369.595 16.2693Z" fill="#3F3D56"/>
<path d="M397.703 16.2693C402.197 16.2693 405.84 12.6273 405.84 8.13465C405.84 3.64201 402.197 0 397.703 0C393.209 0 389.567 3.64201 389.567 8.13465C389.567 12.6273 393.209 16.2693 397.703 16.2693Z" fill="#3F3D56"/>
<path d="M425.811 16.2693C430.305 16.2693 433.948 12.6273 433.948 8.13465C433.948 3.64201 430.305 0 425.811 0C421.318 0 417.675 3.64201 417.675 8.13465C417.675 12.6273 421.318 16.2693 425.811 16.2693Z" fill="#3F3D56"/>
<path d="M409.498 167.553C400.043 167.553 390.8 164.75 382.939 159.498C375.077 154.246 368.95 146.782 365.331 138.048C361.713 129.315 360.766 119.705 362.611 110.433C364.455 101.162 369.008 92.6453 375.694 85.9609C382.38 79.2766 390.898 74.7244 400.171 72.8802C409.445 71.0359 419.057 71.9824 427.793 75.5999C436.528 79.2174 443.994 85.3434 449.247 93.2034C454.501 101.063 457.304 110.304 457.304 119.757C457.29 132.429 452.249 144.578 443.287 153.538C434.324 162.498 422.173 167.539 409.498 167.553ZM409.498 73.7608C400.399 73.7608 391.504 76.4584 383.938 81.5126C376.373 86.5667 370.476 93.7504 366.994 102.155C363.511 110.56 362.6 119.808 364.375 128.731C366.151 137.653 370.532 145.849 376.967 152.282C383.401 158.715 391.598 163.095 400.523 164.87C409.447 166.645 418.698 165.734 427.104 162.253C435.511 158.771 442.696 152.876 447.752 145.312C452.807 137.747 455.505 128.854 455.505 119.757C455.491 107.562 450.64 95.8712 442.015 87.2482C433.39 78.6252 421.696 73.7747 409.498 73.7608Z" fill="#CACACA"/>
<path d="M406.835 407.193C419.113 407.193 429.066 397.241 429.066 384.966C429.066 372.691 419.113 362.74 406.835 362.74C394.557 362.74 384.603 372.691 384.603 384.966C384.603 397.241 394.557 407.193 406.835 407.193Z" fill="#6C63FF"/>
<path d="M394.485 393.204L394.462 392.373C396.007 392.33 397.37 392.233 398.394 391.485C398.684 391.261 398.923 390.977 399.093 390.653C399.264 390.328 399.363 389.971 399.383 389.605C399.401 389.381 399.367 389.156 399.284 388.948C399.201 388.739 399.071 388.553 398.904 388.403C398.517 388.168 398.074 388.042 397.622 388.038C397.17 388.034 396.725 388.152 396.334 388.38L395.646 388.695L396.965 379.064L397.788 379.177L396.666 387.369C397.125 387.199 397.62 387.146 398.104 387.216C398.589 387.286 399.048 387.476 399.44 387.768C399.704 387.999 399.912 388.287 400.046 388.611C400.18 388.934 400.237 389.284 400.213 389.634C400.189 390.126 400.057 390.606 399.828 391.042C399.598 391.478 399.276 391.858 398.884 392.156C397.568 393.117 395.859 393.165 394.485 393.204Z" fill="#2F2E41"/>
<path d="M406.333 379.884H401.858V380.714H406.333V379.884Z" fill="#2F2E41"/>
<path d="M392.21 379.884H387.735V380.714H392.21V379.884Z" fill="#2F2E41"/>
<path d="M403.489 370.612C398.125 374.292 389.887 372.263 387.456 366.045C386.863 364.532 386.598 362.911 386.68 361.288C386.761 359.665 387.187 358.078 387.929 356.632C388.818 355.117 390.028 353.816 391.473 352.82C392.919 351.824 394.566 351.157 396.298 350.866C400.897 349.912 405.653 351.192 409.857 353.051C410.009 353.13 410.181 353.161 410.35 353.139C410.52 353.117 410.679 353.043 410.805 352.928C414.821 349.728 420.655 351.117 424.773 353.355C429.226 355.855 432.992 359.417 435.736 363.723C438.534 367.993 440.282 372.864 440.838 377.939C441.347 383.423 440.451 388.946 438.235 393.988C436.019 399.03 432.556 403.426 428.171 406.76C427.374 407.356 428.154 408.715 428.961 408.111C433.388 404.841 436.942 400.531 439.308 395.562C441.674 390.593 442.78 385.118 442.528 379.62C442.276 374.123 440.674 368.772 437.863 364.04C435.052 359.308 431.119 355.341 426.411 352.49C421.472 349.52 414.589 347.924 409.699 351.822L410.647 351.7C406.442 349.841 401.835 348.528 397.201 349.138C393.264 349.656 389.397 351.543 387.14 354.904C386.149 356.446 385.498 358.183 385.232 359.997C384.967 361.811 385.092 363.661 385.599 365.423C386.094 367.165 386.986 368.768 388.206 370.105C389.427 371.443 390.941 372.479 392.63 373.132C394.523 373.888 396.57 374.176 398.597 373.972C400.625 373.769 402.574 373.08 404.279 371.963C405.104 371.397 404.322 370.04 403.489 370.612Z" fill="#2F2E41"/>
<path d="M408.389 148.886C420.509 148.886 430.334 139.064 430.334 126.946C430.334 114.829 420.509 105.006 408.389 105.006C396.27 105.006 386.445 114.829 386.445 126.946C386.445 139.064 396.27 148.886 408.389 148.886Z" fill="#6C63FF"/>
<path d="M403.21 136.157C401.787 136.117 400.017 136.068 398.653 135.072C398.247 134.763 397.913 134.369 397.675 133.918C397.437 133.467 397.301 132.969 397.276 132.459C397.251 132.097 397.311 131.734 397.449 131.399C397.588 131.064 397.803 130.765 398.076 130.526C398.483 130.223 398.959 130.026 399.461 129.954C399.962 129.882 400.474 129.936 400.95 130.113L399.788 121.627L400.641 121.51L402.006 131.486L401.295 131.16C400.89 130.924 400.429 130.802 399.96 130.806C399.491 130.81 399.033 130.94 398.632 131.183C398.459 131.339 398.324 131.532 398.238 131.748C398.152 131.964 398.117 132.197 398.136 132.429C398.157 132.808 398.259 133.178 398.436 133.515C398.613 133.851 398.86 134.145 399.16 134.377C400.222 135.152 401.633 135.252 403.234 135.297L403.21 136.157Z" fill="#2F2E41"/>
<path d="M395.572 122.358H390.937V123.219H395.572V122.358Z" fill="#2F2E41"/>
<path d="M410.202 122.358H405.567V123.219H410.202V122.358Z" fill="#2F2E41"/>
<path d="M410.426 110.728C407.759 114.214 403.527 116.553 399.053 115.999C396.978 115.786 395.023 114.922 393.468 113.531C391.913 112.139 390.838 110.292 390.397 108.253C390.012 106.244 390.116 104.171 390.7 102.211C391.284 100.25 392.331 98.4579 393.752 96.9861C396.767 93.8155 401.083 92.1098 405.354 91.525C409.393 91.05 413.487 91.433 417.367 92.6489C421.248 93.8649 424.828 95.8864 427.873 98.5812C430.946 101.223 433.398 104.51 435.056 108.207C436.653 111.877 437.414 115.856 437.283 119.856C437.177 123.834 436.265 127.749 434.602 131.365C432.939 134.981 430.56 138.222 427.609 140.893C426.867 141.542 426.09 142.15 425.282 142.715C424.6 143.193 423.954 142.074 424.63 141.6C427.637 139.404 430.17 136.624 432.077 133.425C433.983 130.227 435.224 126.676 435.724 122.986C436.286 119.289 436.035 115.514 434.991 111.923C433.947 108.332 432.134 105.011 429.678 102.191C427.198 99.3638 424.179 97.0591 420.798 95.4115C417.417 93.7639 413.742 92.8065 409.986 92.5951C402.435 92.2659 392.999 95.6364 391.586 104.04C390.952 107.807 392.361 111.766 395.813 113.652C397.641 114.571 399.701 114.927 401.732 114.675C403.762 114.422 405.672 113.572 407.219 112.233C407.997 111.597 408.699 110.873 409.311 110.077C409.809 109.426 410.931 110.068 410.426 110.728Z" fill="#2F2E41"/>
<path d="M409.498 293.634C400.043 293.635 390.8 290.831 382.939 285.58C375.077 280.328 368.95 272.863 365.331 264.13C361.713 255.396 360.766 245.786 362.611 236.515C364.455 227.243 369.008 218.727 375.694 212.042C382.38 205.358 390.898 200.806 400.171 198.962C409.445 197.117 419.057 198.064 427.793 201.681C436.528 205.299 443.994 211.425 449.247 219.285C454.501 227.145 457.304 236.386 457.304 245.839C457.29 258.51 452.249 270.659 443.287 279.62C434.324 288.58 422.173 293.62 409.498 293.634ZM409.498 199.842C400.399 199.842 391.504 202.54 383.938 207.594C376.373 212.648 370.476 219.832 366.994 228.237C363.511 236.641 362.6 245.89 364.375 254.812C366.151 263.735 370.532 271.931 376.967 278.363C383.401 284.796 391.598 289.177 400.523 290.952C409.447 292.726 418.698 291.816 427.104 288.334C435.511 284.853 442.696 278.957 447.752 271.393C452.807 263.829 455.505 254.936 455.505 245.839C455.491 233.644 450.64 221.953 442.015 213.33C433.39 204.707 421.696 199.856 409.498 199.842Z" fill="#CACACA"/>
<path d="M409.498 428.172C400.043 428.172 390.8 425.369 382.939 420.117C375.077 414.865 368.949 407.401 365.331 398.667C361.713 389.934 360.766 380.324 362.611 371.052C364.455 361.781 369.008 353.264 375.694 346.58C382.38 339.895 390.898 335.343 400.172 333.499C409.445 331.655 419.058 332.602 427.793 336.219C436.528 339.837 443.995 345.963 449.248 353.823C454.501 361.683 457.304 370.924 457.304 380.377C457.29 393.048 452.249 405.197 443.287 414.157C434.324 423.118 422.173 428.158 409.498 428.172ZM409.498 334.38C400.399 334.38 391.504 337.077 383.938 342.132C376.373 347.186 370.476 354.369 366.994 362.774C363.511 371.179 362.6 380.427 364.375 389.35C366.151 398.272 370.532 406.468 376.966 412.901C383.401 419.334 391.598 423.714 400.523 425.489C409.447 427.264 418.697 426.353 427.104 422.872C435.511 419.391 442.696 413.495 447.751 405.931C452.807 398.367 455.505 389.474 455.505 380.377C455.491 368.182 450.64 356.49 442.015 347.867C433.39 339.244 421.696 334.394 409.498 334.38Z" fill="#CACACA"/>
<path d="M406.244 273.105C418.783 273.105 428.948 262.942 428.948 250.406C428.948 237.87 418.783 227.708 406.244 227.708C393.705 227.708 383.541 237.87 383.541 250.406C383.541 262.942 393.705 273.105 406.244 273.105Z" fill="#6C63FF"/>
<path d="M398.689 259.934C397.217 259.893 395.385 259.842 393.974 258.812C393.554 258.492 393.209 258.085 392.963 257.618C392.717 257.151 392.576 256.636 392.55 256.109C392.524 255.735 392.586 255.359 392.729 255.012C392.873 254.665 393.095 254.356 393.378 254.109C393.798 253.796 394.291 253.592 394.81 253.517C395.329 253.443 395.859 253.499 396.351 253.681L395.149 244.902L396.031 244.781L397.444 255.103L396.707 254.765C396.288 254.521 395.812 254.394 395.327 254.398C394.842 254.403 394.367 254.538 393.953 254.789C393.774 254.95 393.635 255.15 393.546 255.374C393.457 255.597 393.42 255.838 393.44 256.078C393.461 256.47 393.567 256.853 393.75 257.201C393.933 257.549 394.189 257.853 394.5 258.093C395.598 258.895 397.058 258.998 398.714 259.045L398.689 259.934Z" fill="#2F2E41"/>
<path d="M390.787 245.659H385.992V246.549H390.787V245.659Z" fill="#2F2E41"/>
<path d="M405.923 245.659H401.128V246.549H405.923V245.659Z" fill="#2F2E41"/>
<path d="M407.387 273.813L423.091 267.719C425.658 266.723 428.241 265.756 430.795 264.726C431.889 264.344 432.897 263.751 433.76 262.978C434.512 262.183 435.024 261.191 435.239 260.118C435.666 257.754 435.803 255.348 435.646 252.951C435.616 250.382 435.404 247.818 435.013 245.278C434.327 240.505 432.717 235.913 430.272 231.757C425.868 224.532 418.281 219.097 409.553 219.531C405.452 219.673 401.527 221.233 398.446 223.943C398.133 224.318 397.782 224.658 397.398 224.959C397.131 225.059 396.841 225.079 396.563 225.015C396.197 224.992 395.83 224.974 395.463 224.961C394.19 224.908 392.914 224.961 391.65 225.121C389.346 225.37 387.162 226.277 385.36 227.733C384.571 228.36 383.914 229.136 383.425 230.017C382.937 230.899 382.627 231.868 382.513 232.869C382.452 233.798 382.606 234.729 382.962 235.589C383.318 236.45 383.867 237.217 384.567 237.831C386.44 239.41 389.114 238.855 391.361 238.736L399.594 238.3L403.765 238.079C404.624 238.034 404.621 239.369 403.765 239.414L392.678 240.002C390.883 240.175 389.08 240.248 387.277 240.22C385.907 240.158 384.599 239.632 383.567 238.728C382.626 237.863 381.924 236.769 381.531 235.552C381.138 234.335 381.067 233.037 381.325 231.785C381.667 230.439 382.288 229.179 383.147 228.088C384.007 226.996 385.086 226.098 386.314 225.449C389.558 223.62 393.431 223.445 397.061 223.715L396.589 223.911C400.694 219.505 406.983 217.645 412.886 218.296C419.12 218.984 424.664 222.46 428.647 227.214C433.088 232.515 435.508 239.124 436.449 245.92C436.939 249.59 437.1 253.296 436.931 256.994C436.938 258.624 436.659 260.244 436.106 261.778C435.476 263.272 434.336 264.494 432.89 265.226C431.232 266.026 429.527 266.726 427.785 267.323L421.999 269.568L410.635 273.978L407.742 275.1C406.941 275.411 406.593 274.121 407.387 273.813Z" fill="#2F2E41"/>
<path d="M425.178 221.541C425.178 220.176 425.583 218.843 426.341 217.708C427.099 216.574 428.177 215.689 429.438 215.167C430.698 214.645 432.086 214.509 433.424 214.775C434.763 215.041 435.992 215.698 436.957 216.663C437.922 217.627 438.579 218.857 438.846 220.195C439.112 221.533 438.975 222.92 438.453 224.181C437.931 225.441 437.046 226.519 435.912 227.277C434.777 228.035 433.443 228.439 432.078 228.439C430.249 228.437 428.495 227.71 427.201 226.416C425.908 225.123 425.18 223.37 425.178 221.541ZM426.514 221.541C426.514 222.641 426.84 223.717 427.451 224.632C428.063 225.546 428.932 226.259 429.949 226.681C430.965 227.102 432.084 227.212 433.164 226.997C434.243 226.782 435.235 226.253 436.013 225.475C436.791 224.697 437.321 223.705 437.536 222.626C437.75 221.547 437.64 220.428 437.219 219.412C436.798 218.395 436.085 217.526 435.17 216.915C434.254 216.304 433.179 215.977 432.078 215.977C430.603 215.979 429.188 216.566 428.145 217.609C427.102 218.652 426.515 220.066 426.514 221.541Z" fill="#2F2E41"/>
<path d="M689.529 139.819H532.414C530.451 139.819 528.569 139.04 527.181 137.652C525.793 136.265 525.013 134.383 525.013 132.42C525.013 130.458 525.793 128.576 527.181 127.189C528.569 125.801 530.451 125.022 532.414 125.022H689.529C690.501 125.022 691.463 125.213 692.361 125.585C693.259 125.957 694.075 126.502 694.762 127.189C695.449 127.876 695.994 128.691 696.366 129.589C696.738 130.487 696.929 131.449 696.929 132.42C696.929 133.392 696.738 134.354 696.366 135.252C695.994 136.15 695.449 136.965 694.762 137.652C694.075 138.339 693.259 138.884 692.361 139.256C691.463 139.628 690.501 139.819 689.529 139.819Z" fill="#E4E4E4"/>
<path d="M638.865 114.493H532.414C530.451 114.493 528.569 113.714 527.181 112.326C525.793 110.939 525.013 109.057 525.013 107.095C525.013 105.132 525.793 103.25 527.181 101.863C528.569 100.475 530.451 99.6958 532.414 99.6958H638.865C639.837 99.6958 640.799 99.8872 641.697 100.259C642.595 100.631 643.411 101.176 644.098 101.863C644.785 102.55 645.33 103.366 645.702 104.263C646.074 105.161 646.265 106.123 646.265 107.095C646.265 108.066 646.074 109.028 645.702 109.926C645.33 110.824 644.785 111.639 644.098 112.326C643.411 113.013 642.595 113.558 641.697 113.93C640.799 114.302 639.837 114.493 638.865 114.493Z" fill="#E4E4E4"/>
<path d="M689.529 265.901H532.414C530.451 265.901 528.569 265.121 527.181 263.734C525.793 262.346 525.013 260.464 525.013 258.502C525.013 256.54 525.793 254.658 527.181 253.27C528.569 251.883 530.451 251.103 532.414 251.103H689.529C691.492 251.103 693.374 251.883 694.762 253.27C696.15 254.658 696.929 256.54 696.929 258.502C696.929 260.464 696.15 262.346 694.762 263.734C693.374 265.121 691.492 265.901 689.529 265.901Z" fill="#E4E4E4"/>
<path d="M638.865 240.574H532.414C530.452 240.572 528.572 239.792 527.186 238.404C525.8 237.017 525.021 235.136 525.021 233.175C525.021 231.215 525.8 229.334 527.186 227.947C528.572 226.559 530.452 225.779 532.414 225.777H638.865C640.828 225.777 642.71 226.556 644.098 227.944C645.486 229.331 646.265 231.213 646.265 233.175C646.265 235.138 645.486 237.02 644.098 238.407C642.71 239.795 640.828 240.574 638.865 240.574Z" fill="#E4E4E4"/>
<path d="M689.529 400.438H532.414C530.451 400.438 528.569 399.659 527.181 398.271C525.793 396.884 525.013 395.002 525.013 393.04C525.013 391.077 525.793 389.195 527.181 387.808C528.569 386.42 530.451 385.641 532.414 385.641H689.529C691.492 385.641 693.374 386.42 694.762 387.808C696.15 389.195 696.929 391.077 696.929 393.04C696.929 395.002 696.15 396.884 694.762 398.271C693.374 399.659 691.492 400.438 689.529 400.438Z" fill="#E4E4E4"/>
<path d="M638.865 375.112H532.414C530.451 375.112 528.569 374.332 527.181 372.945C525.793 371.557 525.013 369.675 525.013 367.713C525.013 365.751 525.793 363.869 527.181 362.481C528.569 361.094 530.451 360.314 532.414 360.314H638.865C640.828 360.314 642.71 361.094 644.098 362.481C645.486 363.869 646.265 365.751 646.265 367.713C646.265 369.675 645.486 371.557 644.098 372.945C642.71 374.332 640.828 375.112 638.865 375.112Z" fill="#E4E4E4"/>
<path d="M343.693 418H0.89972C0.6611 418 0.432252 417.905 0.263521 417.736C0.094791 417.568 0 417.339 0 417.1C0 416.862 0.094791 416.633 0.263521 416.464C0.432252 416.296 0.6611 416.201 0.89972 416.201H343.693C343.932 416.201 344.161 416.296 344.329 416.464C344.498 416.633 344.593 416.862 344.593 417.1C344.593 417.339 344.498 417.568 344.329 417.736C344.161 417.905 343.932 418 343.693 418Z" fill="#3F3D56"/>
<path d="M208.866 82.182L197.036 75.679L191.978 84.8806C195.571 86.8558 197.586 87.9632 201.179 89.9384C204.773 91.9136 199.583 102.184 195.64 100.016C191.696 97.8486 186 94.7176 186 94.7176" stroke="black" stroke-width="2"/>
<path d="M247.425 103.377L235.594 96.8738L230.537 106.075C234.13 108.051 236.145 109.158 239.738 111.133C243.331 113.108 238.142 123.379 234.198 121.211C230.255 119.043 224.559 115.912 224.559 115.912" stroke="black" stroke-width="2"/>
<path d="M250.428 112.445L264.45 120.152" stroke="black" stroke-width="2"/>
<path d="M246.575 119.456L260.596 127.163" stroke="black" stroke-width="2"/>
<path d="M209.943 94.7554L223.964 102.463" stroke="black" stroke-width="2"/>
<path d="M220.807 91.5983L213.1 105.62" stroke="black" stroke-width="2"/>
<path d="M273.715 117.828L263.118 137.107" stroke="black" stroke-width="2"/>
<path d="M272.697 140.077C269.967 134.455 275.628 124.156 281.838 123.447C285.304 123.052 287.631 124.331 289.154 127.469C291.885 133.091 286.223 143.391 280.014 144.099C276.548 144.494 274.221 143.215 272.697 140.077Z" stroke="black" stroke-width="2"/>
<path d="M77.7643 69.3759L66.6962 77.1055L72.7081 85.714C76.07 83.3663 77.9548 82.0499 81.3167 79.7021C84.6785 77.3543 91.5905 86.554 87.9011 89.1305C84.2118 91.7071 78.8827 95.4287 78.8827 95.4287" stroke="black" stroke-width="2"/>
<path d="M113.838 44.1832L102.77 51.9128L108.782 60.5213C112.144 58.1735 114.029 56.8572 117.391 54.5094C120.752 52.1616 127.664 61.3613 123.975 63.9378C120.286 66.5143 114.957 70.236 114.957 70.236" stroke="black" stroke-width="2"/>
<path d="M123.299 45.5043L136.417 36.3433" stroke="black" stroke-width="2"/>
<path d="M127.879 52.0632L140.997 42.9022" stroke="black" stroke-width="2"/>
<path d="M89.5153 73.9766L102.633 64.8156" stroke="black" stroke-width="2"/>
<path d="M91.4937 62.8372L100.655 75.9549" stroke="black" stroke-width="2"/>
<path d="M138.434 27.0063L151.03 45.0432" stroke="black" stroke-width="2"/>
<path d="M157.934 37.768C151.684 37.7275 144.955 28.0918 147.069 22.2101C148.249 18.9274 150.426 17.4073 153.914 17.4299C160.164 17.4705 166.893 27.1062 164.779 32.9878C163.599 36.2706 161.422 37.7907 157.934 37.768Z" stroke="black" stroke-width="2"/>
</svg>
